<svg xmlns="http://www.w3.org/2000/svg" width="46" height="46" viewBox="0 0 46 46">
  <path id="Path_1857" data-name="Path 1857" d="M43.606,306.909a21.225,21.225,0,0,0-.351-2.28v-.01a20.758,20.758,0,0,0-.92-3.26c-.139-.35-.269-.7-.42-1.05s-.3-.69-.46-1.03c-.12-.25-.25-.5-.379-.75-.26-.49-.531-.97-.83-1.44a23.01,23.01,0,0,0-7.6-7.5h-.011a19.08,19.08,0,0,0-1.939-1.06c-.34-.16-.681-.31-1.031-.46-.629-.27-1.28-.51-1.939-.72-.11-.03-.221-.07-.32-.1a20.57,20.57,0,0,0-2.05-.52,21.918,21.918,0,0,0-2.28-.35,22.857,22.857,0,0,0-2.35-.12,2.444,2.444,0,0,0-.271.01,20.391,20.391,0,0,0-2.08.11,21.515,21.515,0,0,0-2.28.35h-.01a20.936,20.936,0,0,0-3.259.92c-.35.14-.7.271-1.05.42s-.691.3-1.03.46a21.524,21.524,0,0,0-1.941,1.06H8.8a23.45,23.45,0,0,0-6.16,5.47,22.742,22.742,0,0,0-1.58,2.27v.01A21.492,21.492,0,0,0,0,299.279c-.161.34-.31.69-.46,1.03s-.281.7-.42,1.05a20.867,20.867,0,0,0-.92,3.26v.01a21.225,21.225,0,0,0-.351,2.28,23.263,23.263,0,0,0,0,4.7,21.619,21.619,0,0,0,.351,2.28,20.042,20.042,0,0,0,.519,2.04c.031.11.071.22.1.33.21.661.449,1.31.72,1.94.15.35.3.69.46,1.03a19.209,19.209,0,0,0,1.059,1.941v.009a23,23,0,0,0,7.5,7.6c.471.29.95.57,1.441.83.25.13.5.26.75.38.339.16.69.31,1.03.46s.7.28,1.05.42a20.932,20.932,0,0,0,3.259.92h.01a21.266,21.266,0,0,0,2.28.35,23.081,23.081,0,0,0,4.7,0,22.885,22.885,0,0,0,6.589-1.69c.35-.15.691-.3,1.031-.46.58-.279,1.16-.59,1.71-.92s1.1-.69,1.63-1.06a22.665,22.665,0,0,0,5.44-5.44c.38-.53.729-1.07,1.06-1.63s.639-1.13.919-1.71c.14-.3.281-.6.411-.91v-.01a1.184,1.184,0,0,0,.049-.11,22.964,22.964,0,0,0,1.691-6.59,23.07,23.07,0,0,0,0-4.7Zm-4.271,13.86a19.994,19.994,0,1,1-22.049-33.14,21.67,21.67,0,0,1,3.44-.27,21.925,21.925,0,0,1,21.9,21.9A21.683,21.683,0,0,1,39.335,320.769Z" transform="translate(2.274 -286.259)"/>
</svg>
