<svg xmlns="http://www.w3.org/2000/svg" width="23.721" height="26.774" viewBox="0 0 23.721 26.774">
  <path id="Path_1296" data-name="Path 1296" d="M655.488,962.876c2.749-2.613,4.092-5.171,3.214-6.693s-3.767-1.635-7.4-.561c-.888-3.689-2.432-6.133-4.19-6.133s-3.3,2.444-4.191,6.133c-3.636-1.074-6.524-.961-7.4.561s.464,4.081,3.214,6.693c-2.749,2.613-4.092,5.171-3.214,6.693s3.767,1.635,7.4.561c.888,3.689,2.432,6.133,4.191,6.133s3.3-2.444,4.19-6.133c3.636,1.074,6.524.961,7.4-.561S658.237,965.489,655.488,962.876Z" transform="translate(-635.248 -949.489)" fill="#ff59ff"/>
</svg>
