<svg xmlns="http://www.w3.org/2000/svg" width="26.54" height="21.044" viewBox="0 0 26.54 21.044">
  <path id="Path_1294" data-name="Path 1294" d="M719.514,476.687a1.6,1.6,0,0,1-1.067-.41,129.043,129.043,0,0,1-10.412-10.958l-.114-.134-.129-.134a5.6,5.6,0,0,1-.456-.536l0-.006a5.582,5.582,0,0,1,4.44-8.867h.037A5.55,5.55,0,0,1,715.44,457l4.074,3.526L723.588,457a5.555,5.555,0,0,1,3.634-1.355h.049A5.562,5.562,0,0,1,731.7,464.5l-.023.031a5.676,5.676,0,0,1-.446.523l-.123.128-.117.136a128.909,128.909,0,0,1-10.413,10.96A1.6,1.6,0,0,1,719.514,476.687Z" transform="translate(-706.244 -455.643)" fill="#fff460"/>
</svg>
