<svg xmlns="http://www.w3.org/2000/svg" width="66.243" height="81.005" viewBox="0 0 66.243 81.005">
  <path id="Path_1306" data-name="Path 1306" d="M1252.276,126.184c.269-.009.542-.028.814-.028h-1.632c-18.658-1.041-30.484-19.94-31.454-38.066V85.682c0,.592-.012,1.189-.035,1.787-.024-.6-.036-1.2-.036-1.787v2.407c-.974,18.126-12.8,37.025-31.459,38.066h-1.627c.272,0,.54.02.814.028-.274,0-.542.028-.814.028h1.627c18.662,1.041,30.486,19.94,31.459,38.066v2.407c0-.591.012-1.189.033-1.787.026.6.038,1.2.038,1.787v-2.407c.97-18.126,12.795-37.025,31.454-38.066h1.632C1252.818,126.213,1252.546,126.189,1252.276,126.184Z" transform="translate(-1186.848 -85.682)" fill="#fff460"/>
</svg>
