<svg xmlns="http://www.w3.org/2000/svg" width="127.844" height="54.618" viewBox="0 0 127.844 54.618">
  <path id="Path_1425" data-name="Path 1425" d="M864.5,963.342c4.291-1.7,8.169-3.156,11.979-4.775,1.817-.775,2.639-.285,3.222,1.526,1.9,5.9,4.025,11.735,5.821,17.665.8,2.635,1.9,2.9,4.382,2.034,16.1-5.622,31.956-11.947,48.453-16.4,4.624-1.25,4.6-1.365,6.509,2.977,3.084,7.014,6.2,14.014,9.216,21.058.95,2.214,2.061,2.7,4.451,1.781,7.994-3.085,16.111-5.845,24.151-8.814,1.923-.709,3.011-.72,3.692,1.649a70.675,70.675,0,0,0,3.509,9.134c.766,1.724.505,2.594-1.264,3.349-13.9,5.921-27.838,11.718-42.048,16.849-1.933.7-2.813.607-3.5-1.711-2.049-6.9-4.517-13.677-6.7-20.541-.62-1.954-1.409-2.535-3.545-2.047-11.775,2.687-23.064,6.948-34.575,10.48-6.889,2.115-13.821,4.106-20.656,6.382-2.132.709-2.591-.31-3.036-1.826q-5.26-17.968-10.494-35.945c-.329-1.128-1.212-2.53.432-2.821" transform="translate(-862.984 -957.668)" fill="#9ef3f3" stroke="#231f20" stroke-linecap="round" stroke-linejoin="round" stroke-width="1.1"/>
</svg>
