<svg xmlns="http://www.w3.org/2000/svg" width="138.023" height="138.022" viewBox="0 0 138.023 138.022">
  <path id="Path_250" data-name="Path 250" d="M1351.3,1053.625v-35.314a5.687,5.687,0,0,1,9.709-4.021l24.97,24.97a5.687,5.687,0,0,0,8.043,0h0a5.686,5.686,0,0,0,0-8.042l-24.969-24.97a5.687,5.687,0,0,1,4.021-9.709h35.313a5.687,5.687,0,0,0,5.687-5.687h0a5.687,5.687,0,0,0-5.687-5.687h-35.315a5.687,5.687,0,0,1-4.021-9.708l24.971-24.972a5.687,5.687,0,0,0,0-8.043h0a5.687,5.687,0,0,0-8.043,0l-24.97,24.971a5.687,5.687,0,0,1-9.709-4.022V928.077a5.687,5.687,0,0,0-5.687-5.687h0a5.687,5.687,0,0,0-5.687,5.687V963.39a5.687,5.687,0,0,1-9.708,4.022l-24.971-24.971a5.687,5.687,0,0,0-8.043,0h0a5.687,5.687,0,0,0,0,8.043l24.972,24.972a5.687,5.687,0,0,1-4.022,9.708h-35.315a5.687,5.687,0,0,0-5.687,5.687h0a5.687,5.687,0,0,0,5.687,5.687h35.313a5.687,5.687,0,0,1,4.022,9.709l-24.97,24.97a5.686,5.686,0,0,0,0,8.042h0a5.687,5.687,0,0,0,8.043,0l24.971-24.97a5.687,5.687,0,0,1,9.708,4.021v35.314a5.687,5.687,0,0,0,5.687,5.687h0A5.687,5.687,0,0,0,1351.3,1053.625Z" transform="translate(-1276.605 -921.84)" fill="#9ef3f3" stroke="#231f20" stroke-linecap="round" stroke-linejoin="round" stroke-width="1.1"/>
</svg>
