<svg xmlns="http://www.w3.org/2000/svg" width="31.759" height="31.759" viewBox="0 0 31.759 31.759">
  <path id="Path_1297" data-name="Path 1297" d="M1193.141,410.15v-8.191a1.319,1.319,0,0,1,2.252-.933l5.792,5.792a1.319,1.319,0,0,0,1.866,0h0a1.319,1.319,0,0,0,0-1.865l-5.792-5.792a1.319,1.319,0,0,1,.933-2.252h8.191a1.319,1.319,0,0,0,1.319-1.319h0a1.319,1.319,0,0,0-1.319-1.319h-8.191a1.319,1.319,0,0,1-.933-2.252l5.792-5.792a1.319,1.319,0,0,0,0-1.865h0a1.319,1.319,0,0,0-1.866,0l-5.792,5.792a1.319,1.319,0,0,1-2.252-.933v-8.191a1.319,1.319,0,0,0-1.319-1.319h0a1.319,1.319,0,0,0-1.319,1.319v8.191a1.319,1.319,0,0,1-2.252.933l-5.792-5.792a1.319,1.319,0,0,0-1.865,0h0a1.319,1.319,0,0,0,0,1.865l5.792,5.792a1.319,1.319,0,0,1-.933,2.252h-8.191a1.319,1.319,0,0,0-1.319,1.319h0a1.319,1.319,0,0,0,1.319,1.319h8.191a1.319,1.319,0,0,1,.932,2.252l-5.792,5.792a1.319,1.319,0,0,0,0,1.865h0a1.319,1.319,0,0,0,1.865,0l5.792-5.792a1.319,1.319,0,0,1,2.252.933v8.191a1.319,1.319,0,0,0,1.319,1.319h0A1.32,1.32,0,0,0,1193.141,410.15Z" transform="translate(-1175.942 -379.71)" fill="#035dff"/>
</svg>
