<svg xmlns="http://www.w3.org/2000/svg" width="158.251" height="142.358" viewBox="0 0 158.251 142.358">
  <g id="Group_1925" data-name="Group 1925" transform="matrix(0.875, 0.485, -0.485, 0.875, -302.343, -636.69)">
    <path id="Path_305" data-name="Path 305" d="M682.841,380.135,670.316,392.66l-2.239,2.239-14.592-14.592,7.8-7.8h13.928Z" transform="translate(-10.684)" fill="#ff6541" stroke="#000" stroke-linecap="round" stroke-linejoin="round" stroke-width="1.1"/>
    <path id="Path_306" data-name="Path 306" d="M728.533,406.654a39.378,39.378,0,1,1-22.614,72.985,43.713,43.713,0,0,0,6.89-7.407,29.528,29.528,0,1,0,0-52.511,29.967,29.967,0,0,0-7.875,5.93,29.562,29.562,0,0,0,0,40.65,32.772,32.772,0,0,1-6.89,7.038,39.408,39.408,0,0,1,0-54.726,40.6,40.6,0,0,1,7.875-6.3,39.083,39.083,0,0,1,18.16-5.635Z" transform="translate(-19.588 -9.073)" fill="#035dff" stroke="#000" stroke-linecap="round" stroke-linejoin="round" stroke-width="1.1"/>
    <path id="Path_307" data-name="Path 307" d="M682.841,380.135,670.316,392.66l-2.239,2.239-14.592-14.592,7.8-7.8h13.928Z" transform="translate(-10.684)" fill="#fff" stroke="#000" stroke-linecap="round" stroke-linejoin="round" stroke-width="1.1"/>
    <path id="Path_308" data-name="Path 308" d="M701.858,444.2a44.293,44.293,0,1,1-46.7-44.243l2.239,2.24,2.24-2.24a44.149,44.149,0,0,1,26.7,10.581,40.6,40.6,0,0,0-7.875,6.3,34.45,34.45,0,1,0,0,54.726,32.77,32.77,0,0,0,6.89-7.038,34.307,34.307,0,0,0,0-40.651,29.966,29.966,0,0,1,7.875-5.93A43.953,43.953,0,0,1,701.858,444.2Z" transform="translate(0 -7.292)" fill="none" stroke="#000" stroke-linecap="round" stroke-linejoin="round" stroke-width="1.1"/>
    <path id="Path_309" data-name="Path 309" d="M701.858,444.2a44.293,44.293,0,1,1-46.7-44.243l2.239,2.24,2.24-2.24a44.149,44.149,0,0,1,26.7,10.581,40.6,40.6,0,0,0-7.875,6.3,34.45,34.45,0,1,0,0,54.726,32.77,32.77,0,0,0,6.89-7.038,34.307,34.307,0,0,0,0-40.651,29.966,29.966,0,0,1,7.875-5.93A43.953,43.953,0,0,1,701.858,444.2Z" transform="translate(0 -7.292)" fill="#ff6541" stroke="#000" stroke-linecap="round" stroke-linejoin="round" stroke-width="1.1"/>
    <path id="Path_310" data-name="Path 310" d="M728.533,406.654a39.378,39.378,0,1,1-22.614,72.985,43.713,43.713,0,0,0,6.89-7.407,29.528,29.528,0,1,0,0-52.511,29.967,29.967,0,0,0-7.875,5.93,29.562,29.562,0,0,0,0,40.65,32.772,32.772,0,0,1-6.89,7.038,39.408,39.408,0,0,1,0-54.726,40.6,40.6,0,0,1,7.875-6.3,39.083,39.083,0,0,1,18.16-5.635Z" transform="translate(-19.588 -9.073)" fill="none" stroke="#000" stroke-linecap="round" stroke-linejoin="round" stroke-width="1.1"/>
  </g>
</svg>
