<?xml version="1.0" encoding="utf-8"?>
<!-- Generator: Adobe Illustrator 24.2.3, SVG Export Plug-In . SVG Version: 6.00 Build 0)  -->
<svg version="1.1" id="Layer_1" xmlns="http://www.w3.org/2000/svg" xmlns:xlink="http://www.w3.org/1999/xlink" x="0px" y="0px"
	 viewBox="0 0 45.3 45.8" style="enable-background:new 0 0 45.3 45.8;" xml:space="preserve">
<style type="text/css">
	.st0{fill-rule:evenodd;clip-rule:evenodd;}
	.st1{fill-rule:evenodd;clip-rule:evenodd;fill:#035DFF;}
	.st2{fill-rule:evenodd;clip-rule:evenodd;fill:#FFF460;}
	.st3{fill-rule:evenodd;clip-rule:evenodd;fill:#F6F6F6;}
</style>
<g id="Group_1926" transform="translate(-296.65 -4331.701)">
	<g>
		<path id="Path_1574_1_" class="st0" d="M327.3,4375.8c11.1-3.8,17-15.9,13.2-27.1s-15.9-17-27.1-13.2c-11.1,3.8-17,15.9-13.2,27.1
			C304,4373.7,316.1,4379.6,327.3,4375.8z"/>
		<path d="M320.4,4377.2c-9,0-17.4-5.6-20.5-14.5c-3.9-11.2,2.1-23.5,13.4-27.4c5.4-1.9,11.3-1.5,16.5,1c5.2,2.5,9.1,6.9,10.9,12.4
			c3.9,11.2-2.1,23.5-13.4,27.4c0,0,0,0,0,0C325,4376.8,322.7,4377.2,320.4,4377.2z M320.3,4334.6c-2.3,0-4.6,0.4-6.9,1.2
			c-11,3.8-16.8,15.7-13,26.7c3.8,10.9,15.8,16.8,26.7,13c11-3.8,16.8-15.8,13-26.7c-1.8-5.3-5.6-9.6-10.7-12
			C326.6,4335.3,323.5,4334.6,320.3,4334.6z M327.3,4375.8L327.3,4375.8L327.3,4375.8z"/>
	</g>
	<g>
		<path id="Path_1478_1_" class="st1" d="M325.2,4373.7c11.1-3.8,17-15.9,13.2-27.1s-15.9-17-27.1-13.2c-11.1,3.8-17,15.9-13.2,27.1
			C301.9,4371.6,314,4377.5,325.2,4373.7z"/>
		<path d="M318.3,4375.1c-9,0-17.4-5.6-20.5-14.5c-3.9-11.2,2.1-23.5,13.4-27.4c5.4-1.9,11.3-1.5,16.5,1c5.2,2.5,9.1,6.9,10.9,12.4
			c3.9,11.2-2.1,23.5-13.4,27.4c0,0,0,0,0,0C322.9,4374.7,320.6,4375.1,318.3,4375.1z M318.2,4332.5c-2.3,0-4.6,0.4-6.9,1.2
			c-11,3.8-16.8,15.8-13,26.7c3.8,10.9,15.8,16.8,26.7,13l0,0c5.3-1.8,9.6-5.6,12-10.7c2.5-5,2.8-10.7,1-16
			c-1.8-5.3-5.6-9.6-10.7-12C324.5,4333.2,321.4,4332.5,318.2,4332.5z M325.2,4373.7L325.2,4373.7L325.2,4373.7z"/>
	</g>
	<g>
		<path id="Path_1479_1_" class="st2" d="M320.3,4359.6c3.4-1.2,5.2-4.8,4-8.2c-1.2-3.4-4.8-5.2-8.2-4c-3.4,1.2-5.2,4.8-4,8.2
			C313.3,4359,317,4360.8,320.3,4359.6z"/>
		<path d="M318.2,4360.3c-2.8,0-5.4-1.8-6.4-4.5c-1.2-3.5,0.7-7.3,4.2-8.6c3.5-1.2,7.3,0.7,8.6,4.2c1.2,3.5-0.7,7.3-4.2,8.6
			c0,0,0,0,0,0C319.7,4360.1,319,4360.3,318.2,4360.3z M318.2,4347.4c-0.7,0-1.3,0.1-2,0.3c-3.2,1.1-4.9,4.6-3.8,7.8
			c1.1,3.2,4.6,4.9,7.8,3.8c1.6-0.5,2.8-1.6,3.5-3.1c0.7-1.5,0.8-3.2,0.3-4.7C323.2,4349,320.8,4347.4,318.2,4347.4z M320.3,4359.6
			L320.3,4359.6L320.3,4359.6z"/>
	</g>
	<g id="Group_1899" transform="translate(313.96 4355.249) rotate(-19)">
		<g>
			<path id="Path_281_1_" class="st3" d="M-1.6-20.6c-2.3,0.7-4.4,1.7-6.3,3.1l13,18l-1-3L-1.6-20.6z"/>
			<path d="M5,0.8c-0.1,0-0.1-0.1-0.1-0.1l-13-18c-0.1-0.1-0.1-0.3,0.1-0.4c1.9-1.4,4.1-2.5,6.4-3.2c0.1,0,0.3,0,0.3,0.2L5.3,0.5
				c0,0.1,0,0.3-0.1,0.3C5.1,0.8,5,0.9,5,0.8z M-7.5-17.4L4.3-1L3.9-2.4l-5.6-17.9C-3.8-19.6-5.8-18.6-7.5-17.4z"/>
		</g>
	</g>
</g>
</svg>
