<?xml version="1.0" encoding="utf-8"?>
<!-- Generator: Adobe Illustrator 24.2.3, SVG Export Plug-In . SVG Version: 6.00 Build 0)  -->
<svg version="1.1" id="Layer_1" xmlns="http://www.w3.org/2000/svg" xmlns:xlink="http://www.w3.org/1999/xlink" x="0px" y="0px"
	 viewBox="0 0 45.3 45.8" style="enable-background:new 0 0 45.3 45.8;" xml:space="preserve">
<style type="text/css">
	.st0{fill:#FFB3CD;}
	.st1{fill:#FFFFFF;}
</style>
<g id="Group_1954" transform="translate(556.376 -4234.943)">
	<g>
		
			<ellipse id="Ellipse_50_1_" transform="matrix(0.7071 -0.7071 0.7071 0.7071 -3167.8745 869.7353)" cx="-534.1" cy="4258.8" rx="20.7" ry="20.5"/>
		<path d="M-534.3,4279.7c-5.5,0-10.7-2.1-14.6-6c-8.1-8.1-8-21.3,0.1-29.5c8.2-8.2,21.4-8.2,29.5-0.1c8.1,8.1,8,21.3-0.1,29.5
			c-4,4-9.2,6.2-14.8,6.2C-534.2,4279.7-534.3,4279.7-534.3,4279.7z M-533.9,4238.4c-5.3,0-10.5,2-14.6,6c-8,8-8.1,20.9-0.1,28.9
			c3.8,3.8,8.9,5.9,14.3,5.9c0,0,0.1,0,0.1,0c5.5,0,10.6-2.2,14.5-6.1c8-8,8.1-20.9,0.1-28.9
			C-523.5,4240.4-528.7,4238.4-533.9,4238.4z"/>
	</g>
	<g>
		<path id="Path_1559_1_" d="M-516.7,4248.5l-5.6-7.8l6.5-2.5c1.5-0.6,3-0.3,3.7,0.7l0.3,0.5c0.7,1,0.5,2.5-0.5,3.7L-516.7,4248.5z"
			/>
		<path d="M-516.7,4248.9l-6-8.3l6.8-2.6c1.6-0.6,3.2-0.3,3.9,0.8l0.3,0.5c0.8,1.1,0.6,2.7-0.5,4L-516.7,4248.9z M-521.9,4240.8
			l5.3,7.3l4.2-5.2c0.9-1.2,1.1-2.5,0.5-3.4l-0.3-0.5c-0.6-0.9-2-1.1-3.4-0.6L-521.9,4240.8z"/>
	</g>
	<g>
		<path id="Path_1560_1_" class="st0" d="M-518,4248.3l-5.6-7.8l6.5-2.5c1.5-0.6,3-0.3,3.7,0.7l0.3,0.5c0.7,1,0.5,2.5-0.5,3.7
			L-518,4248.3z"/>
		<path d="M-518,4248.7l-6-8.3l6.8-2.6c1.6-0.6,3.2-0.3,3.9,0.8l0.3,0.5c0.8,1.1,0.6,2.7-0.5,4L-518,4248.7z M-523.2,4240.6l5.3,7.3
			l4.2-5.2c0.9-1.2,1.1-2.5,0.5-3.4l-0.3-0.5c-0.6-0.9-2-1.1-3.4-0.6L-523.2,4240.6z"/>
	</g>
	<g>
		
			<ellipse id="Ellipse_51_1_" transform="matrix(0.7071 -0.7071 0.7071 0.7071 -3166.8704 868.1263)" class="st1" cx="-535.5" cy="4256.8" rx="20.7" ry="20.5"/>
		<path d="M-535.7,4277.7c-5.5,0-10.7-2.1-14.6-6c-8.1-8.1-8-21.3,0.1-29.5c8.2-8.2,21.4-8.2,29.5-0.1c8.1,8.1,8,21.3-0.1,29.5
			c-4,4-9.2,6.2-14.8,6.2C-535.7,4277.7-535.7,4277.7-535.7,4277.7z M-535.3,4236.4c-5.3,0-10.5,2-14.6,6c-8,8-8.1,20.9-0.1,28.9
			c3.8,3.8,8.9,5.9,14.4,5.9c5.5,0,10.6-2.2,14.5-6.1c8-8,8.1-20.9,0.1-28.9C-524.9,4238.4-530.1,4236.4-535.3,4236.4z"/>
	</g>
	<rect x="-535.5" y="4236.1" transform="matrix(0.9156 -0.4022 0.4022 0.9156 -1757.172 144.1675)" width="0.5" height="41.1"/>
	<g>
		
			<ellipse id="Ellipse_51-2_1_" transform="matrix(0.7071 -0.7071 0.7071 0.7071 -3166.8704 868.126)" class="st0" cx="-535.5" cy="4256.8" rx="9.7" ry="9.6"/>
		<path d="M-535.6,4266.7c-2.5,0-5-0.9-6.9-2.8c-3.8-3.8-3.8-10.1,0.1-13.9c1.9-1.9,4.4-2.9,7-2.9c0,0,0,0,0.1,0
			c2.6,0,5.1,1,6.9,2.9c3.8,3.8,3.8,10.1-0.1,13.9C-530.5,4265.7-533.1,4266.7-535.6,4266.7z M-535.4,4247.4
			C-535.4,4247.4-535.4,4247.4-535.4,4247.4c-2.6,0-4.9,1-6.7,2.8c-3.7,3.7-3.7,9.6-0.1,13.3s9.6,3.6,13.3-0.1
			c3.7-3.7,3.7-9.6,0.1-13.3C-530.6,4248.4-532.9,4247.4-535.4,4247.4z"/>
	</g>
	<g id="Group_1946">
		<g>
			<path id="Path_1561_1_" class="st0" d="M-524,4269.7c-0.3,0.3-0.8,0.4-1.2,0.3c-0.1,0-0.2-0.2-0.2-0.3c0,0,0,0,0,0
				c0.1-0.2,0.1-0.5,0-0.6c-0.2-0.1-0.5,0.1-0.8,0c-0.2-0.1-0.3-0.4-0.3-0.6c0-0.1-0.1-0.2-0.2-0.3c-0.1,0-0.2-0.1-0.2-0.1
				c0-0.1,0.4-0.5,0.4-0.7c0-0.1,0-0.1,0-0.2c0-0.1,0-0.2-0.1-0.2c-0.1-0.1-0.2-0.3-0.1-0.5c0.1-0.5,0.3-0.6,0.7-0.7s1.7,0.5,2,1.3
				c0.3,0.7-0.3,1.8,0.2,2.5C-523.9,4269.4-523.9,4269.6-524,4269.7z"/>
			<path d="M-525,4270.2c-0.1,0-0.2,0-0.3,0c-0.1,0-0.3-0.1-0.3-0.2c-0.1-0.1-0.1-0.2-0.1-0.4l0,0c0-0.2,0-0.3,0-0.3
				c0,0-0.1,0-0.1,0c-0.2,0-0.4,0.1-0.6-0.1c-0.3-0.2-0.5-0.5-0.5-0.8c0,0,0-0.1,0-0.1c-0.1,0-0.3-0.1-0.4-0.3
				c0-0.2,0.1-0.3,0.2-0.5c0.1-0.1,0.1-0.2,0.2-0.3c0-0.1,0-0.2,0-0.3l0,0c-0.2-0.2-0.3-0.5-0.2-0.7c0.1-0.6,0.4-0.8,0.8-0.9
				c0.5-0.2,1.9,0.5,2.3,1.4c0.2,0.4,0.1,0.9,0.1,1.3c-0.1,0.4-0.1,0.9,0.1,1.2c0.1,0.2,0.1,0.5-0.1,0.7
				C-524.2,4270.1-524.6,4270.2-525,4270.2z M-525.2,4269.7C-525.2,4269.7-525.2,4269.7-525.2,4269.7c0.4,0.1,0.8,0,1-0.2l0,0
				c0,0,0,0,0-0.1c-0.3-0.4-0.2-1-0.2-1.5c0-0.4,0.1-0.8,0-1.1c-0.3-0.7-1.5-1.2-1.8-1.2c-0.4,0.1-0.5,0.2-0.5,0.5
				c0,0.1,0,0.2,0.1,0.3c0.1,0.1,0.2,0.3,0.1,0.4c0,0.1,0,0.1,0,0.2c0,0.2-0.1,0.3-0.2,0.5c0,0-0.1,0.1-0.1,0.1c0,0,0,0,0,0
				c0.2,0.1,0.4,0.3,0.4,0.5c0,0.2,0.1,0.3,0.2,0.4c0.1,0,0.1,0,0.3,0c0.1,0,0.3,0,0.5,0C-525.1,4268.9-525.2,4269.3-525.2,4269.7
				L-525.2,4269.7z"/>
		</g>
		<g>
			<path id="Path_1562_1_" class="st0" d="M-523.5,4269.3c-0.5,0-1.1-0.2-1-0.9c0.1-0.7,0.4-1,0-1.4s-1.2-0.6-1.4-1
				c-0.3-0.4-0.3-0.9,0.7-0.9s2.3,0.9,2.5,1.8C-522.6,4268-522.6,4269.3-523.5,4269.3z"/>
			<path d="M-523.6,4269.6c-0.3,0-0.7-0.1-1-0.4c-0.1-0.1-0.3-0.4-0.2-0.8c0-0.2,0.1-0.4,0.1-0.6c0.1-0.4,0.1-0.5,0-0.6
				c-0.1-0.1-0.3-0.3-0.6-0.4c-0.3-0.2-0.7-0.4-0.9-0.7c-0.2-0.3-0.3-0.6-0.1-0.9c0.1-0.3,0.5-0.4,1-0.4c1.1,0,2.5,0.9,2.7,2
				c0.1,0.4,0.3,1.6-0.3,2.2C-523,4269.4-523.2,4269.6-523.6,4269.6L-523.6,4269.6C-523.6,4269.6-523.6,4269.6-523.6,4269.6z
				 M-525.3,4265.4c-0.4,0-0.5,0.1-0.5,0.1c0,0,0,0.2,0.1,0.4c0.1,0.2,0.4,0.4,0.7,0.5c0.3,0.1,0.5,0.3,0.7,0.5
				c0.3,0.3,0.2,0.7,0.1,1c0,0.1-0.1,0.3-0.1,0.5c0,0.2,0,0.3,0.1,0.4c0.1,0.1,0.4,0.2,0.7,0.2h0c0.2,0,0.3-0.1,0.4-0.2
				c0.3-0.3,0.3-1,0.2-1.8C-523.1,4266.3-524.3,4265.5-525.3,4265.4C-525.2,4265.4-525.3,4265.4-525.3,4265.4z"/>
		</g>
		<path id="Path_1563" d="M-525.9,4267.5c0.2,0.1,0.5,0,0.6-0.2c0,0,0,0,0-0.1c0-0.2-0.3-0.1-0.4-0.2c-0.1-0.1-0.2-0.4-0.4-0.2
			C-526.2,4267-526.1,4267.3-525.9,4267.5z"/>
	</g>
	<g id="Group_1947">
		<g>
			<path id="Path_1564_1_" class="st0" d="M-519.6,4258.9l-0.5-0.7c0,0,0-0.1-0.1-0.1l-2.3-0.4c-0.1,0-0.2,0.1-0.2,0.2
				c0.1,0.2,0.2,0.4,0.4,0.6c0.3,0.5,1.1,1.1,2.6,0.6C-519.7,4259-519.6,4259-519.6,4258.9z"/>
			<path d="M-520.8,4259.5c-1,0-1.5-0.6-1.7-0.9c-0.2-0.2-0.3-0.4-0.4-0.7c-0.1-0.1,0-0.3,0.1-0.4c0.1-0.1,0.3-0.2,0.4-0.1l2.3,0.4
				c0.1,0,0.2,0.1,0.2,0.2l0.5,0.7l0,0c0,0.2-0.1,0.4-0.3,0.4C-520.1,4259.4-520.5,4259.5-520.8,4259.5z M-522.4,4257.9
				c0.1,0.1,0.2,0.3,0.3,0.4c0.2,0.3,0.8,1,2.2,0.5l-0.4-0.5L-522.4,4257.9z M-519.8,4258.8
				C-519.8,4258.8-519.8,4258.8-519.8,4258.8C-519.8,4258.8-519.8,4258.8-519.8,4258.8z M-522.6,4257.9
				C-522.6,4257.9-522.6,4257.9-522.6,4257.9L-522.6,4257.9z"/>
		</g>
		<g>
			<path id="Path_1565_1_" class="st0" d="M-521,4257.3l0.8,1.8c0,0.1,0.1,0.1,0.1,0.1l1.2-0.4c0.6-0.2,0.9-1.1,0.7-1.7
				c-0.2-0.4-0.3-0.8-0.6-1.1c0-0.1-0.1-0.1-0.2,0c0,0,0,0,0,0.1l-0.8,2c0,0.1-0.1,0.1-0.2,0.1c0,0,0,0-0.1-0.1l-0.5-0.9
				c0-0.1,0-0.1,0-0.2c0.3-0.2,0.5-0.6,0.6-0.9c0-0.5-0.1-1-0.5-1.4c-0.2-0.2-0.4-0.3-0.6-0.4c-0.1,0-0.1,0-0.2,0c0,0,0,0,0,0.1
				l-0.1,0.7c0,0.1-0.1,0.1-0.1,0.1c0,0,0,0,0,0l-0.6-0.4c-0.1,0-0.1,0-0.2,0c0,0,0,0,0,0.1l0,0.5c0,0.1-0.1,0.1-0.1,0.1
				c0,0,0,0-0.1,0l-0.6-0.3c-0.1,0-0.1,0-0.2,0c0,0,0,0,0,0.1c0,0.5,0.1,1,0.4,1.4c0.5,0.6,0.8,0.9,1.3,0.8
				C-521.1,4257.2-521,4257.2-521,4257.3z"/>
			<path d="M-520.1,4259.4c-0.1,0-0.3-0.1-0.3-0.2l-0.8-1.7c-0.6,0.1-1-0.3-1.5-0.8c-0.4-0.5-0.5-1-0.5-1.6c0,0,0-0.1,0-0.2
				c0.1-0.2,0.3-0.2,0.5-0.1l0.4,0.2l0-0.3c0-0.1,0-0.1,0.1-0.2c0.1-0.1,0.1-0.1,0.2-0.2c0.1,0,0.2,0,0.3,0.1l0.4,0.3l0.1-0.5
				c0-0.1,0-0.1,0.1-0.2c0.1-0.1,0.1-0.1,0.2-0.1c0.1,0,0.2,0,0.3,0.1c0.2,0.1,0.4,0.3,0.6,0.5c0.4,0.5,0.6,1,0.5,1.6
				c-0.1,0.4-0.3,0.8-0.6,1l0.3,0.6l0.7-1.8c0-0.1,0.1-0.1,0.1-0.2c0.2-0.1,0.4-0.1,0.5,0.1c0.2,0.4,0.4,0.8,0.6,1.2
				c0.2,0.4,0.1,0.9-0.1,1.3c-0.2,0.4-0.4,0.6-0.8,0.7l-1.2,0.4C-520,4259.4-520,4259.4-520.1,4259.4z M-521.1,4257
				c0.1,0,0.3,0.1,0.3,0.2l0,0l0.8,1.7l1.1-0.4c0.2-0.1,0.4-0.2,0.5-0.5c0.1-0.3,0.2-0.7,0.1-1c-0.1-0.3-0.3-0.6-0.4-0.9l-0.7,1.8
				c0,0.1-0.1,0.2-0.2,0.2c-0.1,0-0.2,0-0.3,0c-0.1,0-0.1-0.1-0.2-0.2l-0.5-0.9c-0.1-0.1,0-0.3,0.1-0.4c0.3-0.2,0.5-0.5,0.6-0.8
				c0-0.4-0.1-0.8-0.4-1.2c-0.1-0.1-0.2-0.2-0.4-0.3l-0.1,0.5c0,0.2-0.2,0.3-0.4,0.3c-0.1,0-0.1,0-0.1-0.1l-0.4-0.3l0,0.3
				c0,0.2-0.2,0.3-0.4,0.3c-0.1,0-0.1,0-0.2,0l-0.4-0.2c0,0.4,0.1,0.8,0.4,1.1C-521.7,4256.9-521.5,4257.1-521.1,4257
				C-521.2,4257-521.1,4257-521.1,4257z M-521.1,4257.4C-521.1,4257.4-521.1,4257.4-521.1,4257.4
				C-521.1,4257.4-521.1,4257.4-521.1,4257.4z M-518.7,4256L-518.7,4256C-518.7,4256-518.7,4256-518.7,4256z M-522.8,4255.1
				C-522.8,4255.1-522.8,4255.1-522.8,4255.1L-522.8,4255.1z M-522.6,4255C-522.6,4255-522.6,4255-522.6,4255
				C-522.6,4255-522.6,4255-522.6,4255z M-520.8,4254.3C-520.8,4254.3-520.8,4254.3-520.8,4254.3
				C-520.8,4254.3-520.8,4254.3-520.8,4254.3z M-520.7,4254.2L-520.7,4254.2C-520.7,4254.2-520.7,4254.2-520.7,4254.2z"/>
		</g>
	</g>
	<g id="Group_1948">
		<g>
			<path id="Path_1566_1_" class="st0" d="M-526.3,4249.1l-0.2-2.2c0-0.2,0.2-0.5,0.4-0.5l0.3,0c0.2,0,0.3-0.2,0.4-0.4l0.3-1.4
				c0-0.2,0.3-0.4,0.5-0.3c0.1,0,0.1,0,0.2,0.1l2.5,1.8L-526.3,4249.1z"/>
			<path d="M-526.5,4249.5l-0.2-2.6c0-0.4,0.2-0.7,0.6-0.7l0.3,0c0.1,0,0.2-0.1,0.2-0.2l0.3-1.4c0-0.2,0.1-0.3,0.3-0.4
				c0.1-0.1,0.3-0.1,0.5-0.1c0.1,0,0.2,0.1,0.3,0.1l2.8,2L-526.5,4249.5z M-524.7,4244.5c0,0-0.1,0-0.1,0c0,0-0.1,0.1-0.1,0.1
				l-0.3,1.4c-0.1,0.3-0.3,0.5-0.6,0.5l-0.3,0c-0.1,0-0.2,0.1-0.2,0.2l0.1,1.8l3.8-2.5l-2.3-1.6
				C-524.6,4244.5-524.6,4244.5-524.7,4244.5C-524.6,4244.5-524.7,4244.5-524.7,4244.5z"/>
		</g>
		<path id="Path_1567" d="M-526.3,4245.6c0,0-0.7,0.5-1,0.8c-0.4,0.2-0.9-0.6-0.5-0.8c0.4-0.3,0.7,0,0.9-0.3
			C-526.5,4244.8-525.9,4245.3-526.3,4245.6z"/>
	</g>
	<g id="Group_1949">
		<g>
			
				<ellipse id="Ellipse_51-3_1_" transform="matrix(0.7071 -0.7071 0.7071 0.7071 -3156.7546 863.459)" cx="-536.1" cy="4242.3" rx="1.7" ry="1.7"/>
			<path d="M-536.1,4244.2c-0.5,0-1-0.2-1.4-0.6c-0.8-0.8-0.8-2,0-2.7h0c0,0,0,0,0,0c0.4-0.4,0.8-0.6,1.4-0.6c0,0,0,0,0,0
				c0.5,0,1,0.2,1.4,0.6c0.8,0.8,0.8,2,0,2.7C-535.1,4244-535.6,4244.2-536.1,4244.2z M-536.1,4240.8c-0.4,0-0.8,0.2-1,0.4h0
				c-0.6,0.6-0.6,1.5,0,2.1c0.6,0.6,1.5,0.6,2.1,0c0.6-0.6,0.6-1.5,0-2.1C-535.3,4241-535.7,4240.8-536.1,4240.8
				C-536.1,4240.8-536.1,4240.8-536.1,4240.8z"/>
		</g>
		<g>
			
				<ellipse id="Ellipse_51-4_1_" transform="matrix(0.7071 -0.7071 0.7071 0.7071 -3155.6028 863.9363)" class="st0" cx="-534.9" cy="4241.1" rx="1.7" ry="1.7"/>
			<path d="M-534.9,4243.1c-0.5,0-1-0.2-1.4-0.6c-0.4-0.4-0.6-0.9-0.6-1.4c0-0.5,0.2-1,0.6-1.4h0c0,0,0,0,0,0
				c0.4-0.4,0.8-0.6,1.4-0.6c0,0,0,0,0,0c0.5,0,1,0.2,1.4,0.6c0.8,0.8,0.8,2,0,2.7C-533.9,4242.9-534.4,4243.1-534.9,4243.1z
				 M-535,4239.6c-0.4,0-0.8,0.2-1,0.4h0c-0.3,0.3-0.4,0.6-0.4,1c0,0.4,0.2,0.8,0.4,1c0.6,0.6,1.5,0.6,2.1,0c0.6-0.6,0.6-1.5,0-2.1
				C-534.2,4239.8-534.6,4239.6-535,4239.6C-535,4239.6-535,4239.6-535,4239.6z"/>
		</g>
		<path d="M-536.1,4244.2c-0.5,0-1-0.2-1.4-0.6c-0.8-0.8-0.8-2,0-2.7h0c0,0,0,0,0,0c0.4-0.4,0.8-0.6,1.4-0.6c0,0,0,0,0,0
			c0.5,0,1,0.2,1.4,0.6c0.8,0.8,0.8,2,0,2.7C-535.1,4244-535.6,4244.2-536.1,4244.2z M-536.1,4240.8c-0.4,0-0.8,0.2-1,0.4h0
			c-0.6,0.6-0.6,1.5,0,2.1c0.6,0.6,1.5,0.6,2.1,0c0.6-0.6,0.6-1.5,0-2.1C-535.3,4241-535.7,4240.8-536.1,4240.8
			C-536.1,4240.8-536.1,4240.8-536.1,4240.8z"/>
	</g>
	<g id="Group_1950">
		<path id="Path_1568" d="M-552.1,4258.3h-1.6l1.2-3.5h1.4l1.2,3.5h-1.6l-0.1-0.7h-0.5L-552.1,4258.3z M-551.8,4256.1l-0.1,1.1h0.3
			L-551.8,4256.1L-551.8,4256.1z"/>
		<path id="Path_1569" d="M-549.5,4258.3l-0.9-2.5h1.4l0.2,1.4h0.1l0.2-1.4h1.4l-0.9,2.5H-549.5z"/>
	</g>
	<g id="Group_1951">
		<path id="Path_1570" d="M-546.6,4267.1l-1.1-0.1l0.2,2h-1.3l0.2-2l-1.1,0.1l0-1.6h3L-546.6,4267.1z"/>
		<path id="Path_1571" d="M-545.6,4269l-0.9-2.5h1.4l0.2,1.4h0.1l0.2-1.4h1.4l-0.9,2.5H-545.6z"/>
	</g>
	<g id="Group_1952">
		<path id="Path_1572" d="M-536.9,4273.8v-3.5h1.8c0.9,0,1.5,0.4,1.5,1.3c0,0.8-0.6,1.3-1.5,1.3h-0.7l0.1,1L-536.9,4273.8z
			 M-535.8,4272.2h0.6c0.2,0,0.4-0.1,0.4-0.2c0-0.2-0.2-0.2-0.4-0.2h-0.6L-535.8,4272.2z"/>
	</g>
	<g id="Group_1953">
		<path id="Path_1573" d="M-548.2,4247.9l0.3-3.5h1.4l0.3,2h0.1l0.3-2h1.4l0.3,3.5h-1.5l0.3-2.1l-0.1,0l-0.4,1.7h-0.5l-0.4-1.7
			l-0.1,0l0.3,2.1H-548.2z"/>
	</g>
</g>
</svg>
