<svg xmlns="http://www.w3.org/2000/svg" width="144.304" height="110.013" viewBox="0 0 144.304 110.013">
  <g id="Group_1942" data-name="Group 1942" transform="matrix(0.966, 0.259, -0.259, 0.966, -828.45, -4368.07)">
    <path id="Path_1545" data-name="Path 1545" d="M2020.329,3997.9a3.288,3.288,0,0,1-3.288,3.288h0a3.289,3.289,0,0,1-3.289-3.288h0a3.289,3.289,0,0,1,3.289-3.29h0a3.289,3.289,0,0,1,3.288,3.29Z" transform="translate(-34.277 0)" fill="#ff6541" stroke="#000" stroke-linecap="round" stroke-linejoin="round" stroke-width="1.083"/>
    <path id="Path_1546" data-name="Path 1546" d="M2022.665,4004.263a2.229,2.229,0,0,1-2.229,2.229h-12.153a2.229,2.229,0,0,1-2.229-2.229h0a2.23,2.23,0,0,1,2.229-2.231h12.153a2.23,2.23,0,0,1,2.229,2.231Z" transform="translate(-30.146 -3.984)" fill="#035dff" stroke="#000" stroke-linecap="round" stroke-linejoin="round" stroke-width="1.083"/>
    <path id="Path_1547" data-name="Path 1547" d="M2200.716,4005.556a1.84,1.84,0,0,1-1.839,1.84h-10.815a1.839,1.839,0,0,1-1.839-1.84h0a1.839,1.839,0,0,1,1.839-1.839h10.815a1.839,1.839,0,0,1,1.839,1.839Z" transform="translate(-126.813 -4.889)" fill="#fff" stroke="#000" stroke-linecap="round" stroke-linejoin="round" stroke-width="1.083"/>
    <path id="Path_1548" data-name="Path 1548" d="M1984.724,4004.263a2.23,2.23,0,0,1-2.23,2.229h-9.81a2.229,2.229,0,0,1-2.23-2.229h0a2.23,2.23,0,0,1,2.23-2.231h9.81a2.231,2.231,0,0,1,2.23,2.231Z" transform="translate(-11.046 -3.984)" fill="#ffafc9" stroke="#000" stroke-miterlimit="10" stroke-width="1.435"/>
    <path id="Rectangle_152" data-name="Rectangle 152" d="M7.218,0h111.77A7.216,7.216,0,0,1,126.2,7.216V69.933a7.216,7.216,0,0,1-7.216,7.216H7.219A7.219,7.219,0,0,1,0,69.93V7.218A7.218,7.218,0,0,1,7.218,0Z" transform="translate(1952.318 4001.279)" fill="#fff" stroke="#000" stroke-linecap="round" stroke-linejoin="round" stroke-width="1.083"/>
    <path id="Rectangle_153" data-name="Rectangle 153" d="M7.216,0H123.892a7.217,7.217,0,0,1,7.217,7.217v36.85a7.217,7.217,0,0,1-7.217,7.217H7.215A7.215,7.215,0,0,1,0,44.069V7.216A7.216,7.216,0,0,1,7.216,0Z" transform="translate(1949.865 4022.461)" fill="#fff460" stroke="#000" stroke-miterlimit="10" stroke-width="1"/>
    <g id="Group_1940" data-name="Group 1940" transform="translate(2016.823 4003.957)">
      <path id="Rectangle_154" data-name="Rectangle 154" d="M8.139,0H44.259A8.139,8.139,0,0,1,52.4,8.139v0a8.139,8.139,0,0,1-8.139,8.139H8.138A8.138,8.138,0,0,1,0,8.139v0A8.139,8.139,0,0,1,8.139,0Z" transform="translate(0 0)" fill="#035dff" stroke="#000" stroke-linecap="round" stroke-linejoin="round" stroke-width="1.083"/>
      <path id="Rectangle_155" data-name="Rectangle 155" d="M5.519,0H19.566a5.519,5.519,0,0,1,5.519,5.519v0a5.518,5.518,0,0,1-5.518,5.518H5.519A5.519,5.519,0,0,1,0,5.519v0A5.519,5.519,0,0,1,5.519,0Z" transform="translate(23.746 2.564)" fill="#fff" stroke="#000" stroke-linecap="round" stroke-linejoin="round" stroke-width="1.083"/>
    </g>
    <g id="Group_1941" data-name="Group 1941" transform="translate(1986.99 4016.387)">
      <path id="Path_1549" data-name="Path 1549" d="M2086.825,4070.031a28.429,28.429,0,1,1-28.428-28.43A28.429,28.429,0,0,1,2086.825,4070.031Z" transform="translate(-2029.967 -4041.601)" fill="#f2f2f0"/>
      <path id="Path_1550" data-name="Path 1550" d="M2087.023,4071.483a27.175,27.175,0,1,1-27.174-27.175A27.174,27.174,0,0,1,2087.023,4071.483Z" transform="translate(-2031.419 -4043.054)" fill="#035dff" stroke="#000" stroke-linecap="round" stroke-linejoin="round" stroke-width="1.083"/>
      <path id="Path_1551" data-name="Path 1551" d="M2087.919,4078.064a21.489,21.489,0,1,1-21.488-21.489A21.489,21.489,0,0,1,2087.919,4078.064Z" transform="translate(-2038.001 -4049.635)" fill="#ff6541" stroke="#000" stroke-linecap="round" stroke-linejoin="round" stroke-width="1.083"/>
      <path id="Path_1552" data-name="Path 1552" d="M2088.552,4082.711a17.476,17.476,0,1,1-17.475-17.476A17.474,17.474,0,0,1,2088.552,4082.711Z" transform="translate(-2042.647 -4054.282)" fill="none" stroke="#000" stroke-linecap="round" stroke-linejoin="round" stroke-width="1.083"/>
      <path id="Path_1553" data-name="Path 1553" d="M2090.623,4094.3a4.348,4.348,0,1,1-4.35-4.348A4.348,4.348,0,0,1,2090.623,4094.3Z" transform="translate(-2057.845 -4067.542)" fill="#fff" stroke="#000" stroke-linecap="round" stroke-linejoin="round" stroke-width="1.083"/>
    </g>
    <path id="Rectangle_156" data-name="Rectangle 156" d="M5.63,0H22.687a5.631,5.631,0,0,1,5.631,5.631v0a5.63,5.63,0,0,1-5.63,5.63H5.63A5.63,5.63,0,0,1,0,5.63v0A5.63,5.63,0,0,1,5.63,0Z" transform="translate(1959.518 4005.963)" fill="#ff6541" stroke="#000" stroke-linecap="round" stroke-linejoin="round" stroke-width="1.083"/>
    <path id="Rectangle_157" data-name="Rectangle 157" d="M4.682,0h0A4.682,4.682,0,0,1,9.365,4.682v0A4.682,4.682,0,0,1,4.682,9.365h0A4.682,4.682,0,0,1,0,4.683v0A4.682,4.682,0,0,1,4.682,0Z" transform="translate(1960.8 4006.855)" fill="#fff" stroke="#000" stroke-linecap="round" stroke-linejoin="round" stroke-width="1.083"/>
  </g>
</svg>
