<svg id="circle" xmlns="http://www.w3.org/2000/svg" viewBox="0 0 58.75 37.18"><defs><style>.cls-1{fill:#035dff;}.cls-2{fill:#fff;}</style></defs><g id="Group_1911" data-name="Group 1911"><path id="Path_1483" data-name="Path 1483" class="cls-1" d="M12,37.18a15.1,15.1,0,0,1-1.28-1.25,2,2,0,0,1-.35-.67c-.09-.28-.21-.33-.46-.46a7,7,0,0,0-.78-.37,2,2,0,0,0-.62-.16.54.54,0,0,1-.41-.11c-.11-.11-.33-.41-.61-.43H6.87c0,.59-.36.59-.83.72,0-.39.35-.71.54-1a9.73,9.73,0,0,0-1.66,1.2l.18.1-.89.74A3.68,3.68,0,0,1,2.93,36a5.58,5.58,0,0,1-1.61.34c.13-.11.26-.08.41-.1s.34-.12.52-.14a.65.65,0,0,0,.34,0c.11,0,.18-.15.29-.2a4.18,4.18,0,0,0,1-.48c.08,0,.09-.16.12-.24a2.6,2.6,0,0,1,.28-.45c.08-.12.17-.23,0-.3s-.53.33-.64.08-.25-.32-.62-.3a.18.18,0,0,1,.1-.2c.1-.07,0-.31,0-.41s-.25-.13-.38-.15A.45.45,0,0,1,2.31,33c-.08-.13.13-.22.09-.37s-.11-.27-.14-.41.62-.47.72-.6.28.3.31.28.24-.33.41-.33.27.07.31-.12.07-.54.11-.81c-.15.08-.27.19-.42.26s-.44-.07-.59-.12-.36-.21-.3-.32a.57.57,0,0,0-.09-.59l.84-.13a2.16,2.16,0,0,0,0,.36c0,.12.25.12.34.13s.26.07.31-.12a3.53,3.53,0,0,0,.09-.41c0-.13-.18-.25-.35-.35s0-.26-.06-.31a.65.65,0,0,0-.19-.42c0-.1-.09-.11,0-.21s.32.12.45.06a.6.6,0,0,0,.36-.28,1.3,1.3,0,0,1,.61-.44.51.51,0,0,1,.45-.06c.14,0,.24.12.35,0s.59.18.71.23-.07.17-.1.26a1.09,1.09,0,0,0,.47.08c.1,0,.23-.08.32,0l.72.35c.14.07.27-.07.37-.15s.16.19.19.22.28.27.28.43V34c0,.23.2.18.38.18a.44.44,0,0,1,.4.13c.12.13.34.5.45.51s.44-.24.59-.33a3.94,3.94,0,0,1,.38.53l.57.79a1.41,1.41,0,0,0,.56.34l.39.18v.57a4,4,0,0,1-.56.26C11.91,37.1,12.07,37.16,12,37.18Z" transform="translate(0.01)"/><path id="Path_1484" data-name="Path 1484" class="cls-1" d="M15,32.83c-.13,0-.3.05-.3-.11s.13-.18.26-.22S15.3,32.83,15,32.83Z" transform="translate(0.01)"/><path id="Path_1485" data-name="Path 1485" class="cls-1" d="M17.32,33.75H17l-.06-.16c0-.21-.06-.25.13-.37,0,.07.19.2.24.24S17.46,33.77,17.32,33.75Z" transform="translate(0.01)"/><path id="Path_1486" data-name="Path 1486" class="cls-1" d="M18.63,34.2c-.12-.21-.57,0-.55-.2l.6.1A.31.31,0,0,1,18.63,34.2Z" transform="translate(0.01)"/><path id="Path_1487" data-name="Path 1487" class="cls-1" d="M18.45,34.74c0-.09-.17-.22-.06-.29l.18.21Z" transform="translate(0.01)"/><path id="Path_1488" data-name="Path 1488" class="cls-1" d="M19.17,34.49l-.05-.08c.18,0,.29-.14.44,0a.94.94,0,0,1-.35.2A.56.56,0,0,1,19.17,34.49Zm-.24-.19.1.07h-.1Z" transform="translate(0.01)"/><path id="Path_1489" data-name="Path 1489" class="cls-1" d="M20.15,36.92c-.34,0-.32-.59-.37-.84s.23-.42.2-.72a2.16,2.16,0,0,1,.81.45.61.61,0,0,1,.16.28c.05.12.28.12.29.21s-.29.11-.38.15a1.28,1.28,0,0,0-.71.47Z" transform="translate(0.01)"/><path id="Path_1490" data-name="Path 1490" class="cls-1" d="M7.34,4.88a6.44,6.44,0,0,0-1.52,0,1.82,1.82,0,0,1-.57,0,2,2,0,0,0-.91-.21.68.68,0,0,1-.55-.16c-.21-.14-.2-.32-.24-.56a.45.45,0,0,0-.3-.4c-.1-.06-.49-.21-.49-.31s.36-.34.31-.46S2.88,2.69,3,2.5a.86.86,0,0,1,.32,0C3.26,2.43,3,2.17,3,2.14a.91.91,0,0,0,0-.23c0-.13-.08-.19-.1-.31A1,1,0,0,1,3,1.27,1.09,1.09,0,0,0,2.94.83.83.83,0,0,1,3,.39l.52.35c.18.12.42.42.61.21.09.12.14.28.31.26s.13.2.15.35-.12.24-.14.37-.07.29-.1.44c.22,0,.32,0,.44-.17s.2-.37.32-.53,0-.42,0-.64A1.31,1.31,0,0,1,5.2.25C5,.29,5,.19,5,0c.67.21,1.34.49,2,.64L8.8,1l1,.22c.29.06.36.09.26.46-.11.65-.33,1.3-.47,2A6.72,6.72,0,0,0,9.3,5.34Z" transform="translate(0.01)"/><path id="Path_1491" data-name="Path 1491" class="cls-1" d="M.75,9V8.62c0-.12.13-.28.1-.43L.77,7.85S1,7.65,1,7.59a.42.42,0,0,1,.16-.36,1.1,1.1,0,0,0,.29-.38,5.89,5.89,0,0,0,.24-.58,16.81,16.81,0,0,0,1-2.87,3.2,3.2,0,0,1,.51.29c.21.12.19.44.24.68a.73.73,0,0,0,.63.43h.46C4.82,4.8,5,5,5.3,5c.5,0,1,0,1.5,0A5.36,5.36,0,0,1,8,5.19l.87.2c.25.06.37,0,.38.27s.26,0,.26.17c0,.36-.28.54-.42.87s-.09.21-.3.3-.14.15-.17.26-.26.52,0,.67,0,.16,0,.32a1.6,1.6,0,0,0-.16.48l-.18.82c-.1.44-.19.89-.29,1.33Z" transform="translate(0.01)"/><path id="Path_1492" data-name="Path 1492" class="cls-1" d="M4,14.52c-.1-.14.08-.59.12-.75l.34-1.34L5,10.26c1.25.33,2.5.68,3.77.93l1.78.35c.26.05.44,0,.38.25Q10.38,14.87,9.77,18c-.12.65-.29,1.28-.47,1.92-.12-.05-.1-.19-.21-.24a.45.45,0,0,0-.23,0c-.25,0-.34.18-.26.41s-.17.48-.08.71.09.05,0,.21a.88.88,0,0,1,0,.15Z" transform="translate(0.01)"/><path class="cls-1" d="M7.4,19.74H1.88a.29.29,0,0,0-.07-.18c-.17-.18,0-.23,0-.44S1.72,19,1.65,19s-.1-.12-.14-.21c-.12-.26-.17-.6-.31-.84s-.36-.19-.24-.49c.06-.14.27-.26.28-.4a1,1,0,0,0-.31-.55,1,1,0,0,1-.19-.75c.17,0,.33.15.47.24L1,14.81l-.26.32c-.07-.08-.25-.22-.25-.34s.12-.43,0-.61a3.48,3.48,0,0,0-.34-.51A.54.54,0,0,1,0,13.52c0-.09.18-.16.09-.3s0-.44.15-.67-.06-.5-.12-.66a1,1,0,0,1,0-1c.2-.32.6-.75.63-1.14V9.16l2,.51L3.9,10a8.68,8.68,0,0,0,1,.27c-.24.94-.47,1.88-.71,2.82-.09.37-.18.74-.28,1.11s0,.44.19.69C5.18,16.49,6.29,18.11,7.4,19.74Z" transform="translate(0.01)"/><path id="Path_1494" data-name="Path 1494" class="cls-1" d="M12,27.16a2.94,2.94,0,0,1-1-.5L9.29,25.54l-1.36-.86c-.18-.11-.14-.17.07-.22.38-.1,0-.65-.06-.87.36,0,.42-.48.53-.72a1.61,1.61,0,0,1,.21-.3c.05-.06.21,0,.29.07,0-.13.08-.37-.08-.43a.49.49,0,0,1-.24-.27,1.24,1.24,0,0,1-.06-.66c0-.14.27-.46.12-.57s0-.23,0-.34a.89.89,0,0,0,0-.23c0-.13-.11-.26,0-.37s.29,0,.31,0a1.82,1.82,0,0,0,.34.27l.36-1.33a2.59,2.59,0,0,1,.68.09l3.56.55,1.15.18c.14,0,0,.21,0,.32L14.74,23c-.21,1.48-.44,3-.63,4.46Z" transform="translate(0.01)"/></g><g id="Group_1912" data-name="Group 1912"><path id="Path_1495" data-name="Path 1495" class="cls-1" d="M8.07,10.9l.3-1.38A4,4,0,0,1,8.8,8.14c.09-.14.09-.22-.06-.31s-.09-.16,0-.33a.85.85,0,0,1,.09-.31c0-.13.33-.09.39-.27s1-1.33.23-1.31A7.38,7.38,0,0,1,9.8,3.37a7.6,7.6,0,0,0,.43-2l.73.16a4,4,0,0,1-.09.68A1.69,1.69,0,0,0,10.8,3a2,2,0,0,0,.1.26c.07.21,0,.25,0,.46s.22.37.3.48a1.85,1.85,0,0,1,.21.45,1,1,0,0,0,.56.53,3,3,0,0,1-.21.72.65.65,0,0,1-.07.36l-.21.4c.16,0,.25.17.41.14s.34-.44.41-.12c.06.12,0,.33,0,.47a.73.73,0,0,0,.15.35.91.91,0,0,1-.14.3c.25.1.33.07.38.35s0,.41.33.41.49-.12.79,0,.57.14.73-.11a.83.83,0,0,1,.15.61l-.23,1-.32,2.06Z" transform="translate(0.01)"/><path id="Path_1496" data-name="Path 1496" class="cls-1" d="M14.05,13.4c.14-.78.27-1.57.4-2.36l.29-1.86A7.82,7.82,0,0,1,14.92,8c.09-.06.56.07.66.08l1.59.18,3.65.43c.05,0,1,.1,1,.12l-.12,1.56c-.1,1.33-.21,2.67-.31,4Z" transform="translate(0.01)"/><path id="Path_1497" data-name="Path 1497" class="cls-1" d="M15,7.86c-.25,0-.22.41-.25.59l-.2-.4c-.17.22-.22.36-.55.29a1.19,1.19,0,0,0-.7,0,1.27,1.27,0,0,1-.39,0c-.09,0-.06-.1-.07-.17-.05-.29,0-.42-.33-.53.17-.26-.08-.34-.08-.59a1.77,1.77,0,0,0,0-.46.26.26,0,0,0-.27-.24H12c-.08.06-.16.22-.25.16s-.1-.07,0-.19A5.34,5.34,0,0,0,12,5.51a1.42,1.42,0,0,0,.11-.33c.06-.19-.2-.26-.33-.33s-.28-.46-.41-.7S11,3.82,11,3.66s.12-.2.07-.34A.87.87,0,0,0,11,3.15a3.34,3.34,0,0,1,.08-1.6C13,2,15,2.24,17,2.54c1.77.26,3.55.39,5.32.64C22.09,5,22,6.84,21.8,8.66Z" transform="translate(0.01)"/><path id="Path_1498" data-name="Path 1498" class="cls-1" d="M9.8,18.58q.66-3.46,1.33-6.93c1,.19,2,.43,3,.58l-.24,1.29,2.12.29q-.38,2.8-.76,5.62Z" transform="translate(0.01)"/><path id="Path_1499" data-name="Path 1499" class="cls-1" d="M23.14,20.32A31.77,31.77,0,0,1,19.37,20l-4-.5c.26-1.88.51-3.75.76-5.63a4.54,4.54,0,0,0,.74.1l1.75.24,2.77.37c.44.06.88.09,1.32.13l.66.07c.05,0,0,.09,0,.14l-.15,3.18C23.24,18.2,23.17,20.32,23.14,20.32Z" transform="translate(0.01)"/></g><g id="Group_1913" data-name="Group 1913"><path id="Path_1500" data-name="Path 1500" class="cls-1" d="M22,7.32l.36-4.11c2,.18,4,.21,6.06.28h.28c.28,0,0,.42,0,.48,0,.29-.05.94.21,1.11s.1.82.11,1v.56c0,.36.23.66.22,1Z" transform="translate(0.01)"/><path id="Path_1501" data-name="Path 1501" class="cls-1" d="M29,12.26a.6.6,0,0,0-.81,0c-.09-.13-.13-.32-.34-.26s-.13.07-.21.07a.88.88,0,0,0-.1-.27c-.08-.1-.28-.07-.39-.08l-1.9-.09-3.49-.16c.11-1.34.28-2.69.32-4l7.24.38c-.1.15-.26.36-.19.56s.45.28.45.45v.61a15.51,15.51,0,0,1,0,1.67c-.32-.15-.3.39-.17.54s.17.15.1.27a.71.71,0,0,0-.09.63Z" transform="translate(0.01)"/><path id="Path_1502" data-name="Path 1502" class="cls-1" d="M23.5,15.93c0-.42.05-.83.05-1.25,0-.19-1.18-.2-1.3-.21l-.7-.07c-.11,0,0-.18,0-.27,0-.6.09-1.2.14-1.8a2.56,2.56,0,0,1,0-.62c.05-.2.42-.06.55-.05h.85l3.59.16h.55c.2,0,.16.09.23.29s.29,0,.38,0,.16.22.25.27.32-.2.47-.2.48.28.65.41.16.1.2.25a4,4,0,0,0,.36.79,1.82,1.82,0,0,1,.18.72c0,.2.16.31.16.49a2.76,2.76,0,0,0,.5,1.27Z" transform="translate(0.01)"/><path id="Path_1503" data-name="Path 1503" class="cls-1" d="M23.29,20.31c.06-1.41.12-2.83.19-4.24,2,.12,3.95.13,5.92.19h1.16a.43.43,0,0,1,.16,0,1.7,1.7,0,0,1,.34.26,1.61,1.61,0,0,1-.15.36c-.13.35.59.52.58.88a1.62,1.62,0,0,1,0,.44v2.25Z" transform="translate(0.01)"/><path id="Path_1504" data-name="Path 1504" class="cls-1" d="M37.06,21.65h-.47c.07-.08.22-.18.23-.29s-.09-.45-.26-.45a1.22,1.22,0,0,0-.27,0L34.61,21l-3,.13V18a.76.76,0,0,0-.06-.42c-.15-.17-.48-.35-.57-.55s.24-.3.2-.49-.4-.32-.49-.5-.23-.42-.34-.63h4a.35.35,0,0,1,.29.1c.18.14.16.14.16.37A1.33,1.33,0,0,0,35.46,17c.23.18.27.55.35.81l.24-.11c.16-.07.15,0,.27.12s-.08.54-.18.7.71.65.82.75a.86.86,0,0,1,.26.37c.09.21,0,.34.16.51a.91.91,0,0,1,.28.55c0,.09,0,.1-.11.13a.4.4,0,0,0-.25.3C37.25,21.2,37.19,21.65,37.06,21.65Z" transform="translate(0.01)"/><path id="Path_1505" data-name="Path 1505" class="cls-1" d="M29.65,8.86c0-.24-.25-.35-.42-.48s.14-.41.2-.52a1.15,1.15,0,0,0-.14-1,3.43,3.43,0,0,1-.07-.78v-.7c0-.24,0-.28-.13-.36S29,4.92,29,4.81L28.9,4c0-.11.07-.06.11-.17s-.05-.24-.08-.33l1.2,0h.42c.13,0,.26-.19.31-.43.24,0,.23.3.22.53s0,.4.23.4.16-.09.29,0a.89.89,0,0,0,.76.09,1.76,1.76,0,0,1,.68.1c.25,0,.22.41.53.32.28.14.42.38.78.25.16-.06.42-.22.57-.12.31.2.65,0,1,.07-.4.26-.82.51-1.2.8s-.92.64-1.07,1a3.21,3.21,0,0,0-.07.76c0,.29-.3.3-.48.5a.46.46,0,0,0,0,.48c.17.18.06.19.07.43V9.4c0,.29.41.06.43.31s.28.14.4.17.15.36.31.45a1.85,1.85,0,0,1,.48.35c.15.22,0,.32-.17.32H32.89l-2.66.07h-.6Z" transform="translate(0.01)"/><path id="Path_1506" data-name="Path 1506" class="cls-1" d="M34.8,15.42c-.27-.25-.71-.15-1-.15H30.44c-.19,0-.18-.14-.18-.32a.39.39,0,0,0,0-.26.69.69,0,0,1-.13-.11A2.22,2.22,0,0,0,30,13.7c-.21-.52-.68-1.15-.35-1.71.09-.16,0-.25-.09-.36a.52.52,0,0,1-.07-.37c0-.14.2,0,.24,0l3.38-.08h1.75c0,.19.08.2.18.34s-.12.25-.06.37a.64.64,0,0,0,.29.44.75.75,0,0,1,.49.38,3.06,3.06,0,0,0,.35.37c.06.06,0,.18,0,.26a1.28,1.28,0,0,1-.31.51c-.11.13-.37.09-.51.18a.45.45,0,0,0,0,.54c.26.4-.37.57-.37.9C34.71,15.34,34.8,15.38,34.8,15.42Z" transform="translate(0.01)"/><path id="Path_1507" data-name="Path 1507" class="cls-1" d="M35.69,12.38c-.13-.18-.33-.14-.48-.27s-.09-.36-.08-.58-.18-.22-.18-.4a3.53,3.53,0,0,1,0-.46c0-.22-.51-.38-.63-.54s0-.31-.21-.37h-.26c-.16,0,0,0-.09-.15s-.44,0-.44-.21V9a3.09,3.09,0,0,1,0-.43c0-.11.13-.17,0-.29s-.16-.11-.17-.23c0-.36.51-.33.54-.61a4,4,0,0,0,.06-.84.53.53,0,0,0,.59,0c.12-.06.36-.26.51-.23-.11.12,0,.35,0,.49s.2-.08.31-.12a1.47,1.47,0,0,1,.42,0c.15,0,.49-.37.72-.46a3.87,3.87,0,0,0,.7-.5c.15-.11.26-.16.34-.33s.13-.13.28-.1c-.31.21-.35.6-.44,1a.86.86,0,0,1,1,.09.63.63,0,0,0,.49.24,4.69,4.69,0,0,0,.53,0c.29-.1.43-.36.78-.4a2.57,2.57,0,0,0,.72-.2c0,.11,0,.43.14.47a1.35,1.35,0,0,0,.49,0,3,3,0,0,1,.72.26c-.28.12-.79,0-.94.23-.22-.27-.78-.13-1,0a.56.56,0,0,1-.41.15c-.23,0-.13.22-.27.28,0-.22-.24-.22-.34-.1a.19.19,0,0,0-.25-.06h0c-.1.11,0,.32-.1.45a2.61,2.61,0,0,0-.24.54c-.09.25-.32.4-.43.64s-.18.37,0,.44.19.07.26,0,.11-.19.18-.26a2.08,2.08,0,0,1,.2-.15.83.83,0,0,0,.21-.28c-.09.3-.35.6-.31.93s-.23.47-.19.79-.16.57-.1.86.15.7.2,1.06Z" transform="translate(0.01)"/><path id="Path_1508" data-name="Path 1508" class="cls-1" d="M37.53,20c-.12-.11-.18-.12-.17-.31a.74.74,0,0,0-.18-.49,3.87,3.87,0,0,0-.59-.48l-.18-.14c-.23-.14,0-.27.07-.47.1-.41-.17-.82-.59-.58a1.72,1.72,0,0,0-.18-.54c-.16-.25-.46-.38-.62-.65a.81.81,0,0,1-.14-.5,1.24,1.24,0,0,1,0-.47c0-.14.22-.2.28-.34a.6.6,0,0,0,0-.64c-.18-.27.14-.36.34-.42a1,1,0,0,0,.53-.52c.22-.46-.12-.63-.36-1l2.64-.12c0,.19,0,.3.15.41a.88.88,0,0,1,.27.52,4.69,4.69,0,0,1,0,.53c.06.77.13,1.54.19,2.31a2,2,0,0,0,0,.54c.05.18-.22.38,0,.55s0,.46-.06.64-.32.46-.33.67,0,.33,0,.49a.3.3,0,0,1-.19.34c-.19.11-.16.31-.17.55-.17,0-.26-.3-.43-.22a.54.54,0,0,0-.37.39A.1.1,0,0,1,37.53,20Z" transform="translate(0.01)"/><path id="Path_1509" data-name="Path 1509" class="cls-1" d="M39.87,18.85c-.17,0-.25-.13-.44-.13s-.41-.07-.5.11c0-.55.48-.9.47-1.46,0-.14-.07-.18-.21-.27s.09-.43.08-.46,0-.23,0-.34c-.08-1-.16-1.9-.25-2.85.31.16.45,0,.72-.17.1-.07.35,0,.47-.06L41.76,13c.13,1.26.25,2.52.38,3.77,0,.28,0,.4-.25.55-.35-.08-.17.09-.33.28a2.85,2.85,0,0,0-.43.6c-.12.25-.14.12-.36.06s-.34.19-.33.32-.24-.08-.29-.08a.52.52,0,0,0-.21.07A2.86,2.86,0,0,0,39.87,18.85Z" transform="translate(0.01)"/><path id="Path_1510" data-name="Path 1510" class="cls-1" d="M39.9,13a1.88,1.88,0,0,0,.29-1v-.39a1.56,1.56,0,0,0-.2-.82,3.28,3.28,0,0,1-.21-.86c0-.24.11-.5.1-.75A.53.53,0,0,1,40,8.76c.16-.18.18,0,.3.09.25-.24.36-.33.36-.68,0-.06.15-.16.19-.2s-.06-.21,0-.31l.25-.3c0-.06.32.08.4.1s.12.19.29.21a1.4,1.4,0,0,1,.68.27c-.28.4.27.88,0,1.33-.1.21-.72.72-.23.91.25.1.25.09.4-.1s.29-.53.54-.47.24.23.31.45.14.45.23.67a1.09,1.09,0,0,1,0,.44c0,.2,0,.09-.18.16s-.11.25-.13.35-.18.24-.18.34a.71.71,0,0,1-.23.51c-.05.08,0,.12-.07.14l-.85.12L41.05,13l-1.22.14A.37.37,0,0,1,39.9,13Z" transform="translate(0.01)"/><path id="Path_1511" data-name="Path 1511" class="cls-1" d="M44.58,17.11c-.08-.07-.17-.21-.3-.21s-.17.17-.26.22-.4,0-.59.12c-.21-.25-.41-.13-.59-.38-.06-.08-.12-.25-.24-.25l-.33.07L42,14.31l-.12-1.18c0-.18.12-.13.28-.15l.89-.12v.2c.4-.09.73.17,1.13.23a.62.62,0,0,0,.39-.16c.13-.09.16-.14.37-.05s.38-.36.47-.48.25-.09.37-.16l.34-.21c.06.36.13.72.19,1.08a4.64,4.64,0,0,0,.11.51c0,.17-.16.22-.16.37s-.14.18-.2.24c.12.09.38.14.32.32s-.08.22-.11.33a1.61,1.61,0,0,1,0,.31c0,.11-.17.2-.23.3s-.34,0-.46.3a1.21,1.21,0,0,0-.13.42c0,.15-.25,0-.35.09s0,.32-.05.45a2.57,2.57,0,0,1-.23.38Z" transform="translate(0.01)"/><path id="Path_1512" data-name="Path 1512" class="cls-1" d="M37.74,20.84c.18-.11,0-.42,0-.58s.2-.54.37-.35.29.31.43.16,0-.34,0-.48c.21-.21.42-.1.38-.47s.38-.29.58-.27.35.25.49.11,0-.2,0-.26.19.1.35.1c.32,0,0-.51.39-.3a.29.29,0,0,0,.4-.07l0-.06c.1-.35.47-.53.53-.91a.39.39,0,0,0,.46-.12c.17-.18,0-.32.06-.53.51-.17.41.42.82.39.21,0,.13.18.32.2s.15-.12.24-.12H44c.08,0,.3-.22.3-.22a3.72,3.72,0,0,1,.49.4.91.91,0,0,1,0,.33c0,.18.2.41.3.54a.76.76,0,0,0,.39.24s.26.09.13.19l-.57.45c-.19.14-.33.15-.36.35s-.26.22-.4.3a.85.85,0,0,1-.37.15l-1.45.15a29,29,0,0,1-3.08.32,2.33,2.33,0,0,1-.46-.08c0,.09.07.28,0,.3l-.46.06Z" transform="translate(0.01)"/><path id="Path_1513" data-name="Path 1513" class="cls-1" d="M36.83,23.1a1.07,1.07,0,0,0,.1-.39,3.56,3.56,0,0,1,.23-.85c.11-.28.15-.82.48-.86l.9-.12c.24,0,.53,0,.5-.3a2.65,2.65,0,0,0,1.05,0l2-.21L45.75,20c0,.32,0,.33-.23.55s-.33.14-.48.32-.19,0-.27,0-.25.34-.37.46a1.66,1.66,0,0,1-.89.46c-.31.09-.33.76-.55.78l-.81.07Z" transform="translate(0.01)"/><path id="Path_1514" data-name="Path 1514" class="cls-1" d="M31.18,24.92c-.17-.1-.21-.06-.38,0a.4.4,0,0,1-.38-.06,1,1,0,0,0-.82.35c-.13-.3-.18-.36-.51-.42s-.31.13-.43.37c-.05-.14-.09-.28-.14-.42-.08.06-.17.18-.27.21s-.18-.17-.27-.23l-.19.28-.37-.34c-.17-.17-.29,0-.48-.11a2.52,2.52,0,0,0-1-.37c-.16,0-.29,0-.38-.1a.9.9,0,0,1-.17-.3,3.75,3.75,0,0,1,0-.82c0-.46.05-.92.07-1.38,0-.22.07-.39-.19-.41l-1-.09L22,20.87V20.4c1.83.13,3.67.09,5.5.13l3.23.07h.62c-.08,0,.18,2,.18,2.23V25.2Z" transform="translate(0.01)"/></g><g id="Group_1914" data-name="Group 1914"><path id="Path_1515" data-name="Path 1515" class="cls-1" d="M14.25,27.44c.27-1.94.54-3.88.83-5.83a19.27,19.27,0,0,1,.29-2c.76.11,1.52.2,2.29.29l3.6.46.74.09V21c-.2,2.1-.39,4.21-.59,6.31v.1L17,26.86l.08.29L15.39,27c-.37,0-.09.62-.31.59Z" transform="translate(0.01)"/><path id="Path_1516" data-name="Path 1516" class="cls-1" d="M28.14,36.21c0-.24-1.1-.41-1.29-.49s-.72-.22-.82-.47a5.72,5.72,0,0,1-.36-.89c0-.15,0-.73-.24-.73s-.28-.08-.3-.29-.37-.41-.47-.64a4.35,4.35,0,0,1-.34-.84c-.11-.41-.28-.51-.6-.79s-.2-.46-.51-.54-.67.08-1-.3c-.12.13-.13.24-.32.25s-.26,0-.35.14-.33,1.07-.63.85l-.81-.58a1.7,1.7,0,0,1-.74-.69c-.08-.18.15-.34,0-.53s-.09-.31-.22-.45l-.74-.77-.69-.72c-.13-.13-.06-.16-.12-.32s-.3-.16-.35-.39l4.25.57c.18-2,.37-3.94.55-5.91L22.1,21l1.23.12,1.76.16h.32v1a4.09,4.09,0,0,1-.05.8,1,1,0,0,0,.05.8c.16.21.14.38.46.38h.44c.15,0,.65.49.88.37s.22,0,.36.18l.33.3.19-.3c.2.15.22.22.44,0l.18.56c.07-.15.24-.64.4-.61s.28,0,.35.15l.18.4c.3-.34.56-.54,1-.4.21.06.32-.16.5-.06l.61.37a.72.72,0,0,0,.28.13c.12-.06.26-.14.26,0V26.8a2.32,2.32,0,0,0,0,.91c.07.14.17.28.25.42a2.07,2.07,0,0,1,.3,1.14,2.1,2.1,0,0,1-.09.5v.57c0,.19,0,.43-.27.5l-.57.14c-.26.07-.18-.1-.18-.28-.22.08-.68.17-.45.52.09.13-.2.23-.26.38a.8.8,0,0,1-.4.36,4.75,4.75,0,0,1-.59.31c-.14.06-.17.13-.25,0a1.29,1.29,0,0,0-.57.16l.16.21c-.23.06-.39.06-.42.33a.23.23,0,0,0-.31.1h0a.44.44,0,0,1-.11.29c-.07,0-.16-.06-.21,0s0,.27-.07.47-.3.37-.18.53,0,.23,0,.35a1.45,1.45,0,0,0,.09.57,2.11,2.11,0,0,1,.13.47c0,.16.24.24.26.35-.14-.1-.18,0-.29,0Z" transform="translate(0.01)"/><path id="Path_1517" data-name="Path 1517" class="cls-1" d="M38.31,31.46c-.1-.29-.46-.21-.59-.45s-.4,0-.44.17-.06,0-.22,0a.8.8,0,0,0-.3.06c-.12,0-.18.22-.29.17l-.29-.11c-.18-.05-.18-.3-.27-.3s-.24,0-.28-.05-.08-.17-.14-.22a.82.82,0,0,0-.56-.18.29.29,0,0,0-.19.35l-1-.23a2.27,2.27,0,0,0-1,.13,6.43,6.43,0,0,0,.16-1.07,1.88,1.88,0,0,0-.08-1.28,2.6,2.6,0,0,1-.42-1v-.9c0-.07,0-.32,0-.32h3.1c.22,0,.18.05.26.28a6.49,6.49,0,0,1,.21.62c-.35.16-.39.65-.51,1s-.36.77,0,.87h2a.94.94,0,0,0,.17.81c-.13,0-.65-.23-.78-.07a.33.33,0,0,0,0,.44c.1.19.28.09.45,0s.3.09.4.3l.57-.38c.12.16-.8.6-.42.83a3.57,3.57,0,0,0,.68.4Z" transform="translate(0.01)"/><path id="Path_1518" data-name="Path 1518" class="cls-1" d="M32.38,26.07a1.67,1.67,0,0,0,0-.63c-.15-.3-.61.14-.57-.3s0-.86,0-1.28a11.38,11.38,0,0,0-.06-1.65,3.72,3.72,0,0,1-.08-1H32l3.27-.14h1.18c.15,0,.14.08.2.24s-.33.41-.41.5h.79a3.63,3.63,0,0,0-.29,1.12c0,.22-.22.29-.34.46s0,.39-.13.52a1.64,1.64,0,0,0-.47.72c-.07.24,0,.41-.25.57-.29.32.37.49.12.84,0,.19-1.42.08-1.62.08S32.38,26.09,32.38,26.07Z" transform="translate(0.01)"/><path id="Path_1519" data-name="Path 1519" class="cls-1" d="M37.69,29.45c-.11-.22,0-.38,0-.62H35.46c-.09,0,.08-.46.09-.5l.31-.89c.06-.17.32-.18.26-.37s-.18-.56-.28-.84a.51.51,0,0,1,0-.3c.08-.27-.08-.43-.24-.62a1.11,1.11,0,0,0,.36-.66,1.09,1.09,0,0,1,.21-.45c.1-.11.26-.2.27-.36a.52.52,0,0,1,.59-.62L39,23V26.5a27.44,27.44,0,0,0,.18,3,1.46,1.46,0,0,0-.51,0,2.72,2.72,0,0,0-.47.19l-.35.16A2.52,2.52,0,0,1,37.69,29.45Z" transform="translate(0.01)"/><path id="Path_1520" data-name="Path 1520" class="cls-1" d="M40.23,29.52c-.31,0-.3-.53-.34-.77l-.3.65c-.06,0-.14-.1-.21,0a33.15,33.15,0,0,1-.17-3.73,22.9,22.9,0,0,1,0-2.62c.89-.08,1.82-.1,2.7-.25.05,0,.07.25.09.3l.22.79c.16.58.33,1.16.49,1.75l.1.37a.24.24,0,0,0,.08.22c.08.05.2.12.19.24,0,.42-.19.68,0,1.08s-.08.46.15.76l-2.17.21a2.22,2.22,0,0,0-.81.09C40,28.8,40.62,29.52,40.23,29.52Z" transform="translate(0.01)"/></g><g id="Group_1915" data-name="Group 1915"><path id="Path_1521" data-name="Path 1521" class="cls-2" d="M55.62,8a4.17,4.17,0,0,1-.08-.49l-.28-.79c-.16-.45-.32-.9-.47-1.34.14.06.15.11.27,0s0-.37.14-.53a.66.66,0,0,0,.12-.56c0-.1-.09-.35,0-.45a.28.28,0,0,0,.09-.31c0-.1-.09-.12-.07-.18s.07-.24.11-.36a2.82,2.82,0,0,1,.24-1c0,.12.19.39.32.31L56.57,2c.16-.1.56.31.6.45a1.87,1.87,0,0,1,.13.4l.24.73a1.38,1.38,0,0,0,.17.48c.11.1.28.08.32.24s.06.23.18.26l.31.09c.11,0,.14.24.22.33-.21.08-.36.38-.55.51a1.37,1.37,0,0,0-.23.25c-.09,0-.22-.11-.3,0s-.22.34-.39.37-.25.48-.39.68c0,0-.51.25-.46.27-.18-.08-.23.06-.36.19s0,.38,0,.54l-.15.51Z" transform="translate(0.01)"/><path id="Path_1522" data-name="Path 1522" class="cls-2" d="M54.26,9.14a3.35,3.35,0,0,1,0-1c0-.21.23-.48.12-.68A.63.63,0,0,1,54.26,7c.19-.09.44-.35.37-.6s-.26-.84.08-1c.26.76.53,1.52.8,2.28v.36a3.07,3.07,0,0,0,.25.26c.11.1.08.14,0,.29-.25.06-.19.17-.35.3a1.7,1.7,0,0,1-.55.13l-.62.15Z" transform="translate(0.01)"/><path id="Path_1523" data-name="Path 1523" class="cls-2" d="M53.4,9.15c-.14-.28,0-.64-.24-.89s-.14,0-.14-.19-.08-.23-.15-.37.11-.4,0-.61-.16-.43-.25-.65l1.69-.38c0,.28.12.44,0,.7s-.13.14-.23.2a.39.39,0,0,0,0,.48c.17.29,0,.41,0,.74a4.26,4.26,0,0,0,.08,1.07l-.45.09C53.48,9.38,53.49,9.34,53.4,9.15Z" transform="translate(0.01)"/><path id="Path_1524" data-name="Path 1524" class="cls-2" d="M56.07,10.29c-.08-.14-.19-.07-.31-.11s-.08-.1-.09-.24c-.72.12-1.42.3-2.13.46a4.47,4.47,0,0,1,0-.9l1.34-.3.46-.1c.18,0,.26-.35.44-.35s-.07.76-.12.88c.13,0,.37,0,.45.11s.28.4.49.4c.5,0,.09-.41.25-.52a.83.83,0,0,1,.14.3c0,.26-.2.18-.36.33-.1-.24-.45.06-.53.18A.35.35,0,0,1,56.07,10.29Z" transform="translate(0.01)"/><path id="Path_1525" data-name="Path 1525" class="cls-2" d="M55.29,10.15h.24c0,.19.23.24.38.23s.16.22.12.27a.85.85,0,0,1-.13-.25c-.1,0-.29.06-.29.19s0,.27-.12.35C55.42,10.65,55.36,10.4,55.29,10.15Z" transform="translate(0.01)"/><path id="Path_1526" data-name="Path 1526" class="cls-2" d="M53.66,11.86h0c.07,0,.26-.24.23-.35s-.19-.08-.2-.3,0-.3,0-.46,0-.19.23-.24c.42-.11.86-.2,1.29-.27a2.78,2.78,0,0,1,.21.8c0,.07-.7.22-.77.24a2.12,2.12,0,0,0-.93.63S53.83,11.69,53.66,11.86Z" transform="translate(0.01)"/><path id="Path_1527" data-name="Path 1527" class="cls-2" d="M53.45,12.32v-.11c.19.17.23.13.42,0a3.37,3.37,0,0,1,.45-.21c.14-.08.43-.32.64-.29-.19.31-.42.29-.71.48a2.2,2.2,0,0,1-.82.38A1,1,0,0,1,53.45,12.32Zm-.05-.16a1.77,1.77,0,0,0-1-.52c-.24-.07-.26,0-.4-.21a2.69,2.69,0,0,0-.27-.32c-.24-.3-.9,0-1.22,0L47,11.79c0-.28.14-.32.35-.51s.62-.61.39-.88-.28-.44,0-.5l.7-.16a.42.42,0,0,1,.37.12c.16.12.44-.12.56-.18.34-.14.87-.47.85-.89,0-.24-.17-.29-.24-.5s.26-.23.34-.32.1-.35.23-.49l.28-.29c.17-.18.33-.41.57-.47l.7-.15c.23-.05.37-.15.42,0s.17.48.26.72a1.56,1.56,0,0,0-.11.33c0,.08.19.25.19.36s-.09.41.09.41.15.12.2.24,0,.44.12.66a1,1,0,0,1,.11.54v.83h.08c0,.18,0,.77.13.88s-.08.14-.11.31,0,.15.07.2-.12.15-.17.2Z" transform="translate(0.01)"/><path id="Path_1528" data-name="Path 1528" class="cls-2" d="M46.6,13.88l-.21-1.18a3.53,3.53,0,0,0-.1-.55c0-.18.5-.38.58-.44V12l2.94-.54,1.55-.29c.1,0,.21-.07.27,0s.33.58.65.62a.6.6,0,0,1-.35.5c.21.27.13.46.08.79h.22c.06,0,0,.11.12.14a.51.51,0,0,1,.34.25,1,1,0,0,0-.25.2c-.07.09-.07.21-.15.29s-.15.17-.29.11c-.3-.11-.2.23-.48.28l-2.05.35-1.93.3-.37.07c-.26,0-.27.09-.33-.14Z" transform="translate(0.01)"/><path id="Path_1529" data-name="Path 1529" class="cls-2" d="M46.18,19c-.1,0-.19-.11-.29-.15s-.06-.15-.2-.29a1.13,1.13,0,0,0-.36-.14c-.11,0-.13-.12-.2-.2a.74.74,0,0,1-.22-.56c0-.25.21-.41.31-.62s0-.27,0-.4.39.08.4-.11,0-.56.34-.56.42-.36.46-.49a2.35,2.35,0,0,1,.1-.58c.1-.19,0-.33-.2-.45.11-.11.07-.25.16-.36l.18.73c.09.38.08.48.52.41.1,0,.57-.15.59-.07.06.26.13.52.19.78l.6-.61c.13-.13.1-.15.27-.08s.46-.17.63-.2.34.26.35.48c-.22,0-.41-.22-.58-.35-.07.13-.19.28-.16.44s-.11.13-.12.28-.1.21-.18.33-.22,0-.28-.06a5,5,0,0,0-.1.56c0,.37-.38,0-.53-.15a9.69,9.69,0,0,1-.34,1.6c-.1.25-.68.19-.66.45s-.37.22-.55.1c0,.09-.09.18-.14.27S46.2,18.93,46.18,19Z" transform="translate(0.01)"/><path id="Path_1530" data-name="Path 1530" class="cls-2" d="M44.38,20a1.74,1.74,0,0,0,.33-.18c.08-.09,0-.25.16-.3a2.9,2.9,0,0,0,.6-.44c.16-.13.18-.17.38-.08s.39.24.52-.06c.14.09.64.08.65-.15s-.06-.16.07-.19a1.43,1.43,0,0,0,.44-.19c.21-.15.27-.63.32-.88l.12-.67c.49.46.56-.11.64-.49.47.18.56-.73.68-1,.27.2.68.52.68,0,.29,0,.17.32.44.32s.31.16.23.31a1.6,1.6,0,0,0-.17.64c.11,0,.42-.06.46,0a1.08,1.08,0,0,0,.55.33c.31.07.15.3.24.54a.82.82,0,0,0,.12.2.24.24,0,0,0-.11.32v0h-.13c0,.3.12.54.5.37a.24.24,0,0,1,.32.1v.05c0,.05,0,.12-.16.15-.81.18-1.6.4-2.41.55A50.42,50.42,0,0,1,44.38,20Z" transform="translate(0.01)"/><path id="Path_1531" data-name="Path 1531" class="cls-2" d="M50.15,22.85,49,22c-.09-.07-.44,0-.55,0l-.79.12v-.19a.43.43,0,0,0-.21-.11c-.09,0-.18-.13-.35-.11-.41,0-.81.07-1.22.09a.68.68,0,0,0-.46.21,1,1,0,0,1-.43.19,3.35,3.35,0,0,1-.55.11l-1.15.16c0-.21.18-.4.28-.57s.14-.06.23-.09a1.5,1.5,0,0,0,.6-.31c.17-.14.32-.46.5-.57s.25,0,.33-.07.2,0,.32-.12.15-.21.25-.28a.4.4,0,0,0,.19-.41c0-.24.24-.18.45-.21l1.38-.21c1.15-.17,2.28-.33,3.42-.59.22,0,1.24-.41,1.38-.21s0,.29-.16.38l-.59.34c.14.19.16.26.39.18,0,0,.25-.11.28-.08l.21.25a1,1,0,0,1,.18-.23.63.63,0,0,1-.12.5c-.24.31-.23,0-.42,0a.28.28,0,0,0-.27.26c0,.08.13.22.12.25-.11.29-.27.28-.54.3.06.09.13.28.24.32a1.22,1.22,0,0,0,.59-.16c-.06.25-.67.33-.84.54a4.63,4.63,0,0,0-.4.48c-.17.2-.12.51-.33.66s-.33.06-.48.13S50.28,22.94,50.15,22.85Z" transform="translate(0.01)"/><path id="Path_1532" data-name="Path 1532" class="cls-2" d="M47,28.61a.42.42,0,0,0-.47-.18H46.1l-1.56.08c-.16,0-.81.14-.91,0a4.53,4.53,0,0,1-.26-.4c-.08-.14,0-.26,0-.43s-.26-.34-.22-.51.09-.35.12-.53-.18-.39-.25-.65a7.84,7.84,0,0,1-.23-.83c-.23-.8-.45-1.59-.67-2.39.88-.08,1.75-.19,2.62-.31-.1.31-.25.4.09.56a1.4,1.4,0,0,1,.57.29c.17.2.13.44.4.56a3.42,3.42,0,0,1,.7.32c.06.13-.09.33,0,.44a1.69,1.69,0,0,0,.29.17c.18.1.51.18.51.4s0,.24.2.3.12.17.12.33,0,.39.34.42c-.08.14-.16.28-.23.42A2.1,2.1,0,0,0,47.6,28l-.6-.1v.71Z" transform="translate(0.01)"/><path id="Path_1533" data-name="Path 1533" class="cls-2" d="M49.62,35.6c0-.14,0-.21-.16-.22s-.25-.2-.35-.32a1.1,1.1,0,0,0-.37-.31,1.63,1.63,0,0,1-.3-.07.46.46,0,0,0-.07-.29,1.48,1.48,0,0,0-.25-.35l-.18-.19c-.07-.08,0-.22,0-.3s-.27,0-.34,0-.42-.54-.47-.61.11-.28.14-.46-.21-.32-.42-.36a.39.39,0,0,1,0,.26c-.19-.26-.05-.49,0-.76a1.19,1.19,0,0,0-.23-.91c-.14-.24-.13-.25-.41-.25-.12-.05-.27-.26-.37-.36-.38-.36-.75-.79-1.32-.72a.46.46,0,0,0-.3.19,1.18,1.18,0,0,1-.49.33l-.42.22c0-.2-.16-.25-.3-.33l.12-.21-.22-.12c-.18-.11-.19,0-.35,0s-.41-.16-.63-.17V29a1.49,1.49,0,0,1-.48.22c-.12.06-.2-.08-.32-.11s-.27.16-.44.18-.28-.22-.28-.39,0-.24.2-.25l2.7-.26c.18,0,.11.14.25.25s.23,0,.31,0l1.43-.07,1.3-.06c.26,0,.42.29.59.47V28a1.09,1.09,0,0,1,.43.06c.15.06.12.32.16.41a1.27,1.27,0,0,1,.06.28c0,.1.22.22.22.31a.92.92,0,0,0,0,.37,3.9,3.9,0,0,0,.43.54,1.22,1.22,0,0,1,.14.33c0,.13.17.14.28.19s.21.25.28.35,0,.29.08.53,0,.32.11.41.21.09.25.18.07.25.11.37c.14.42.59.75.68,1.19.08.17-.15.42-.09.63s.14.24.07.34a2.5,2.5,0,0,0-.18.23,1.14,1.14,0,0,0,0,.45c0,.18-.46.32-.59.36S49.8,35.54,49.62,35.6Z" transform="translate(0.01)"/><path id="Path_1534" data-name="Path 1534" class="cls-2" d="M47.76,26.08c0-.16.07-.51,0-.63s-.28,0-.28-.29,0-.19-.13-.25l-.63-.35c-.13-.07-.07-.26-.07-.4s-.49-.3-.62-.36a.61.61,0,0,1-.4-.4c-.15-.32-.32-.35-.64-.48s-.23-.14-.13-.39.26-.18.41-.24A2.05,2.05,0,0,1,45.9,22h.24l.85-.08h.21s.09.09.15.1.16,0,.18.05,0,.22.11.27.18,0,.26,0l.75-.12a.57.57,0,0,1,.6.16c.34.27.7.52,1,.78-.37.3-.41.75-.68,1.11-.08.12-.13.38-.23.46l-.28.21c-.19.15-.41.28-.59.45a1.42,1.42,0,0,0-.39.6C48,26.14,48,26.1,47.76,26.08Z" transform="translate(0.01)"/><path id="Path_1535" data-name="Path 1535" class="cls-2" d="M52.49,17.42c0-.29.12-.58.13-.88l-.31.06c0-.1,0-.32-.13-.32s-.32,0-.36-.27a2.26,2.26,0,0,0-.1-.44c0-.14-.15-.23-.08-.37a1.2,1.2,0,0,0,.15-.52l.21.72a1,1,0,0,0,.22.63c.14.1.51-.07.66-.1v.31c0,.1-.16.29-.2.45a3,3,0,0,1-.2.73C52.49,17.33,52.52,17.36,52.49,17.42Zm-1.42-.88c-.18-.18-.21-.07-.44-.08,0-.17.29-.6.15-.74s-.17-.22-.31-.22-.06,0-.18-.14-.34-.11-.42-.24-.14-.32-.31-.28a1.5,1.5,0,0,0-.51.15c-.07,0-.1.12-.18.08s-.13-.11-.23-.05a4.18,4.18,0,0,0-.59.6,2.87,2.87,0,0,0-.14-.56l1.93-.33,1.34-.23.39-.06c.15,0,.13,0,.18.14-.31-.25-.57.49-.57.72v.41c0,.14.25.47.24.73a.41.41,0,0,0-.34.1h0Z" transform="translate(0.01)"/><path id="Path_1536" data-name="Path 1536" class="cls-2" d="M52.28,15.85c-.12-.41-.25-.82-.38-1.23a.79.79,0,0,1-.08-.3c0-.11,0-.21.15-.16s0,.18,0,.31.23.4.29.49l.15.24c.06.1.19.09.25.16s.35.4.17.44S52.33,16,52.28,15.85Z" transform="translate(0.01)"/><path id="Path_1537" data-name="Path 1537" class="cls-2" d="M53,14.9c-.06-.14-.94-.55-.72-.77a6.86,6.86,0,0,1,.64-.68c-.1-.12-.23-.41-.41-.41l-.11,0c0-.1-.16-.08-.23-.08,0-.21.11-.42,0-.6.22-.12.23-.28.28-.5l.76.31c.3.13,0,.69-.08.86.19,0,.38-.1.38.15v.76a1.11,1.11,0,0,1-.16.44l-.18.38s-.17.19-.17.21Z" transform="translate(0.01)"/></g><path class="cls-1" d="M8.83,22.44c-.29-.17-.51.38-.57.59a.48.48,0,0,1-.49.41,1.8,1.8,0,0,0,.09.45c.08.2.33.5-.1.5a3.08,3.08,0,0,1-.68-.08l-2-.22a2.35,2.35,0,0,1,0-.53,1.2,1.2,0,0,0-.14-.67C4.66,22.6,4.35,22,4,22c.06-.41-.18-.46-.51-.55a.42.42,0,0,1-.29-.21.51.51,0,0,0-.33-.39,2,2,0,0,0-.74-.27c-.09,0-.42-.21-.38-.3a1.94,1.94,0,0,0,.16-.48H7.44l.41.61c.18.25.35.51.53.77s0,.41.09.61a.76.76,0,0,0,.17.35.18.18,0,0,0,.06.16C8.76,22.35,8.84,22.29,8.83,22.44Z" transform="translate(0.01)"/><g id="Mask_Group_4" data-name="Mask Group 4"><path class="cls-1" d="M8.83,22.44c-.29-.17-.51.38-.57.59a.48.48,0,0,1-.49.41,1.8,1.8,0,0,0,.09.45c.08.2.33.5-.1.5a3.08,3.08,0,0,1-.68-.08l-2-.22a2.35,2.35,0,0,1,0-.53,1.2,1.2,0,0,0-.14-.67C4.66,22.6,4.35,22,4,22c.06-.41-.18-.46-.51-.55a.42.42,0,0,1-.29-.21.51.51,0,0,0-.33-.39,2,2,0,0,0-.74-.27c-.09,0-.42-.21-.38-.3a3.52,3.52,0,0,0,.15-.42H7.48c.12.18.25.36.37.55s.35.51.53.77,0,.41.09.61a.76.76,0,0,0,.17.35.18.18,0,0,0,.06.16C8.76,22.35,8.84,22.29,8.83,22.44Z" transform="translate(0.01)"/></g></svg>