<svg xmlns="http://www.w3.org/2000/svg" width="175.647" height="178.63" viewBox="0 0 175.647 178.63">
  <g id="Group_2017" data-name="Group 2017" transform="translate(-540.677 -1294.738)">
    <path id="Path_1578" data-name="Path 1578" d="M630,1472.33c-5.072-1.166-9.287-3.993-13.005-6.487-2.2-1.478-4.939-3.312-6.461-3.663s-4.786.106-7.408.472c-4.437.619-9.464,1.321-14.535.155a20.29,20.29,0,0,1-5.905-2.353c-7.048-4.225-9.7-11.523-11.823-17.387-.82-2.259-1.941-5.35-2.826-6.368-.921-1.061-3.863-2.622-6.01-3.762-5.482-2.909-12.294-6.525-15.483-14-3.165-7.422-1.068-14.809.617-20.745.71-2.5,1.593-5.613,1.464-7.08-.111-1.263-1.533-4.153-2.571-6.264-2.772-5.634-6.219-12.642-4.354-20.755s8.028-12.91,12.98-16.765c1.858-1.447,4.4-3.426,5.05-4.511.757-1.264,1.323-4.447,1.776-7,1.079-6.081,2.42-13.643,8.51-18.938,6.132-5.332,13.841-5.609,20.035-5.831,2.432-.087,5.762-.207,7.058-.759,1.24-.529,3.6-2.819,5.321-4.492,4.476-4.348,10.045-9.757,18.233-10.479a20.3,20.3,0,0,1,6.337.463c5.076,1.168,9.291,3.995,13.01,6.49,2.2,1.475,4.935,3.31,6.457,3.66s4.783-.106,7.4-.472c4.437-.62,9.464-1.322,14.539-.155a20.291,20.291,0,0,1,5.9,2.352c7.048,4.225,9.7,11.523,11.823,17.388.82,2.259,1.941,5.349,2.826,6.368.924,1.062,3.867,2.625,6.017,3.765,5.475,2.906,12.288,6.522,15.476,14,3.165,7.421,1.068,14.809-.617,20.746-.711,2.5-1.593,5.614-1.464,7.081.111,1.26,1.533,4.15,2.571,6.261,2.772,5.634,6.22,12.642,4.354,20.755s-8.028,12.91-12.979,16.765c-1.858,1.447-4.4,3.427-5.053,4.513-.756,1.262-1.321,4.446-1.775,7-1.078,6.082-2.419,13.644-8.51,18.938-6.132,5.332-13.84,5.609-20.034,5.831-2.437.088-5.765.208-7.058.759-1.241.529-3.6,2.819-5.322,4.492-4.478,4.349-10.047,9.757-18.233,10.478A20.281,20.281,0,0,1,630,1472.33Z" fill="#ffc721" stroke="#000" stroke-miterlimit="10" stroke-width="1"/>
    <path id="Path_1579" data-name="Path 1579" d="M594.54,1462.486a15.076,15.076,0,0,1-4.387-1.741c-5.456-3.27-7.656-9.336-9.6-14.687-1.117-3.079-2.272-6.263-3.794-8.015-1.56-1.795-4.586-3.4-7.512-4.953-4.995-2.651-10.655-5.655-13.118-11.431-2.44-5.723-.7-11.857.838-17.269.912-3.215,1.856-6.539,1.642-8.965-.2-2.235-1.667-5.224-3.089-8.115-2.53-5.143-5.4-10.972-3.948-17.272s6.574-10.292,11.1-13.812c2.542-1.979,5.171-4.025,6.323-5.949,1.253-2.09,1.856-5.491,2.44-8.781.982-5.541,2.095-11.819,6.791-15.9,4.738-4.12,11.143-4.35,16.793-4.553,3.31-.119,6.734-.241,8.921-1.174,2.135-.911,4.564-3.27,6.913-5.552,4.084-3.966,8.713-8.462,15.049-9.02a15.084,15.084,0,0,1,4.708.35c4.134.951,7.761,3.384,11.269,5.737,2.819,1.892,5.736,3.847,8.2,4.414s5.938.08,9.3-.389c4.183-.585,8.509-1.189,12.643-.238a15.059,15.059,0,0,1,4.388,1.741c5.456,3.27,7.656,9.336,9.6,14.688,1.117,3.079,2.271,6.263,3.794,8.014,1.56,1.794,4.585,3.4,7.511,4.953,4.994,2.651,10.655,5.655,13.118,11.432,2.441,5.723.7,11.857-.837,17.27-.912,3.214-1.856,6.538-1.642,8.965.2,2.234,1.668,5.223,3.09,8.114,2.53,5.142,5.4,10.972,3.949,17.272s-6.575,10.292-11.1,13.813c-2.542,1.979-5.171,4.025-6.324,5.949-1.252,2.09-1.855,5.492-2.439,8.782-.982,5.54-2.1,11.82-6.791,15.9-4.738,4.119-11.142,4.349-16.792,4.552-3.311.119-6.734.241-8.921,1.174-2.135.911-4.565,3.27-6.914,5.552-4.084,3.966-8.712,8.461-15.048,9.02a15.087,15.087,0,0,1-4.707-.35c-4.135-.951-7.761-3.384-11.269-5.737-2.82-1.892-5.735-3.847-8.2-4.414s-5.939-.08-9.3.389c-4.182.584-8.508,1.188-12.641.238Z" transform="translate(-4.779 -4.773)" fill="#035dff" stroke="#000" stroke-miterlimit="10" stroke-width="1"/>
    <path id="Path_1580" data-name="Path 1580" d="M714.667,1411.217c-1.793,7.8-12.907,11.736-16.809,18.246-4.045,6.747-2.364,18.373-8.176,23.426-5.871,5.1-17.179,1.812-24.335,4.863-7.085,3.021-12.536,13.482-20.371,14.173-7.56.666-14.746-8.594-22.543-10.387s-18.306,3.4-24.816-.5c-6.747-4.044-7.081-15.835-12.135-21.648-5.1-5.871-16.714-7.85-19.766-15.005-3.021-7.085,3.569-16.808,2.879-24.644-.666-7.561-8.944-15.96-7.151-23.756s12.907-11.736,16.809-18.246c4.045-6.747,2.364-18.372,8.176-23.426,5.87-5.1,17.179-1.812,24.335-4.864,7.085-3.021,12.536-13.482,20.371-14.173,7.56-.667,14.746,8.595,22.543,10.388s18.306-3.4,24.815.5c6.747,4.044,7.081,15.835,12.135,21.648,5.1,5.87,16.714,7.849,19.766,15.005,3.021,7.085-3.569,16.808-2.879,24.643C708.183,1395.021,716.46,1403.42,714.667,1411.217Z" transform="translate(-9.555 -9.546)" fill="#ff6541" stroke="#000" stroke-miterlimit="10" stroke-width="1"/>
    <g id="Group_1957" data-name="Group 1957" transform="translate(577.817 1346.516)">
      <path id="Path_1581" data-name="Path 1581" d="M625.064,1422.173,611.278,1419l5.9-25.666,7.04,1.619-4.432,15.58,7.637,1.37Z" transform="translate(-611.278 -1393.337)" fill="#ffaec8" stroke="#000" stroke-miterlimit="10" stroke-width="0.522"/>
      <path id="Path_1582" data-name="Path 1582" d="M644.689,1413.87c2.023-8.8,7.029-12.435,12.234-11.238,5.171,1.189,8.121,6.655,6.1,15.454s-7.082,12.5-12.252,11.312C645.563,1428.2,642.665,1422.669,644.689,1413.87Zm12.054,2.811c.32-1.394-.749-2.45-2.4-2.83-1.687-.387-3.074.1-3.394,1.5s.712,2.441,2.4,2.828C655,1418.557,656.422,1418.074,656.743,1416.681Z" transform="translate(-626.915 -1397.667)" fill="#ffaec8" stroke="#000" stroke-miterlimit="10" stroke-width="0.522"/>
      <path id="Path_1583" data-name="Path 1583" d="M683.113,1434.436l.733-26.854,8.213,1.888-2.389,14.583.55.126,4.075-14.195,8.324,1.914-11.036,24.485Z" transform="translate(-645.564 -1400.136)" fill="#ffaec8" stroke="#000" stroke-miterlimit="10" stroke-width="0.522"/>
      <path id="Path_1584" data-name="Path 1584" d="M720.044,1427.763l-.287,1.247,5.474.873-.742,3.227-5.305-1.607-.295,1.283,8.48,1.565-2.479,10.779-14.628-3.364,5.9-25.665,14.042,3.229-2.437,10.6Z" transform="translate(-658.522 -1404.202)" fill="#ffaec8" stroke="#000" stroke-miterlimit="10" stroke-width="0.522"/>
      <path id="Path_1585" data-name="Path 1585" d="M750.134,1439.507l-1.286,11.131-7.369-1.695,5.9-25.666,8.4,1.931c4.615,1.254,7.761,4.024,6.5,9.487-.624,2.713-3.357,5.867-9.113,4.544l-.059.257,1.284.3c4.949,1.138,5.165,6.747,3.365,12.9l-7.883-1.813c1.79-4.259,3.192-10.693.809-11.241Zm1.074-4.5-.6,2.6,1.393.321c1.651.379,2.814.183,3.017-.7.227-.99-.842-1.545-2.381-1.9Z" transform="translate(-673.422 -1407.628)" fill="#ffaec8" stroke="#000" stroke-miterlimit="10" stroke-width="0.522"/>
      <path id="Path_1586" data-name="Path 1586" d="M775.85,1456.862l2.707-11.77a13.827,13.827,0,0,0,6.748,4.061c1.65.38,2.958.565,3.093-.022.4-1.723-10.332-1.064-8.267-10.046,1.13-4.913,5.451-6.583,10.548-5.411a14.321,14.321,0,0,1,6.666,3.58l-3.494,10.661a10.211,10.211,0,0,0-5.224-3.132c-1.723-.4-3.1-.443-3.237.143-.439,1.907,10.487,1.062,8.489,9.75-1.155,5.024-5.688,6.606-10.6,5.476A20.074,20.074,0,0,1,775.85,1456.862Z" transform="translate(-689.827 -1412.418)" fill="#ffaec8" stroke="#000" stroke-miterlimit="10" stroke-width="0.522"/>
    </g>
    <g id="Group_1958" data-name="Group 1958" transform="translate(572.951 1377.984)">
      <path id="Path_1587" data-name="Path 1587" d="M602.584,1464.385c1.915-8.328,6.651-11.769,11.578-10.635,4.893,1.125,7.685,6.3,5.77,14.625s-6.7,11.83-11.6,10.7C603.411,1477.946,600.669,1472.712,602.584,1464.385Zm11.407,2.659c.3-1.318-.709-2.318-2.27-2.677-1.6-.367-2.908.1-3.212,1.417s.674,2.312,2.27,2.678C612.341,1468.821,613.688,1468.363,613.991,1467.044Z" transform="translate(-601.97 -1453.539)" fill="#ffaec8" stroke="#000" stroke-miterlimit="10" stroke-width="0.494"/>
      <path id="Path_1588" data-name="Path 1588" d="M634.032,1483.746l5.586-24.289,13.047,3-2.315,10.063-7.068-1.99-.319,1.388,4.556.682-1.006,4.372-4.4-1.376-1.144,9.746Z" transform="translate(-617.273 -1456.364)" fill="#ffaec8" stroke="#000" stroke-miterlimit="10" stroke-width="0.494"/>
      <path id="Path_1589" data-name="Path 1589" d="M685.849,1495.66l-13.047-3,5.585-24.289,6.662,1.532-4.195,14.744,7.228,1.3Z" transform="translate(-635.778 -1460.619)" fill="#ffaec8" stroke="#000" stroke-miterlimit="10" stroke-width="0.494"/>
      <path id="Path_1590" data-name="Path 1590" d="M704.419,1487.8c1.916-8.328,6.652-11.769,11.58-10.636,4.893,1.125,7.686,6.3,5.771,14.626s-6.7,11.829-11.6,10.7C705.247,1501.365,702.5,1496.131,704.419,1487.8Zm11.409,2.659c.3-1.318-.709-2.318-2.271-2.677-1.6-.366-2.909.1-3.212,1.417s.674,2.312,2.27,2.678C714.177,1492.239,715.525,1491.781,715.828,1490.462Z" transform="translate(-650.575 -1464.717)" fill="#ffaec8" stroke="#000" stroke-miterlimit="10" stroke-width="0.494"/>
      <path id="Path_1591" data-name="Path 1591" d="M740.782,1507.266l.693-25.413,7.773,1.787-2.261,13.8.52.12,3.857-13.434,7.877,1.811L748.8,1509.11Z" transform="translate(-668.224 -1467.053)" fill="#ffaec8" stroke="#000" stroke-miterlimit="10" stroke-width="0.494"/>
      <path id="Path_1592" data-name="Path 1592" d="M775.732,1500.949l-.271,1.18,5.181.826-.7,3.054-5.021-1.52-.279,1.214,8.026,1.48-2.346,10.2-13.844-3.184,5.585-24.289,13.289,3.057L783.043,1503Z" transform="translate(-680.487 -1470.9)" fill="#ffaec8" stroke="#000" stroke-miterlimit="10" stroke-width="0.494"/>
    </g>
    <g id="Group_1959" data-name="Group 1959" transform="translate(598.095 1353.7)">
      <path id="Path_1593" data-name="Path 1593" d="M659.608,1407.8c.047-.157-.6-.549-1.79-.68a7.26,7.26,0,0,0-7.441,4.642c-.406,1.127-.339,1.879-.177,1.906.188.04.444-.608,1.005-1.506a8.449,8.449,0,0,1,6.607-4.122C658.866,1407.929,659.561,1407.985,659.608,1407.8Z" transform="translate(-650.073 -1407.081)" fill="#fff"/>
    </g>
    <g id="Group_1960" data-name="Group 1960" transform="translate(630.156 1392.393)">
      <path id="Path_1594" data-name="Path 1594" d="M719.606,1481.788c.045-.16-.5-.515-1.526-.642a6.2,6.2,0,0,0-6.424,3.959c-.347.972-.275,1.62-.112,1.652.186.042.436-.5.936-1.241a7.487,7.487,0,0,1,5.6-3.45C718.964,1481.953,719.56,1481.973,719.606,1481.788Z" transform="translate(-711.409 -1481.106)" fill="#fff"/>
    </g>
    <g id="Group_1961" data-name="Group 1961" transform="translate(576.887 1380.151)">
      <path id="Path_1595" data-name="Path 1595" d="M618.7,1458.4c.044-.161-.543-.518-1.621-.663a7.169,7.169,0,0,0-7.129,3.75c-.492.971-.529,1.656-.372,1.711.178.068.517-.469,1.141-1.205a9.02,9.02,0,0,1,6.342-3.336C618.025,1458.562,618.66,1458.586,618.7,1458.4Z" transform="translate(-609.5 -1457.685)" fill="#fff"/>
    </g>
    <g id="Group_1962" data-name="Group 1962" transform="translate(634.635 1360.556)">
      <path id="Path_1596" data-name="Path 1596" d="M727.7,1421.637c.035-.176-.667-.48-1.83-.828-.593-.174-1.251-.361-2.08-.544a3.174,3.174,0,0,0-.744-.063,1.994,1.994,0,0,0-.881.239,2.531,2.531,0,0,0-1.088,1.376,9.774,9.774,0,0,0-.365,1.381l-.252,1.228c-.152.784-.272,1.495-.353,2.1-.165,1.2-.178,1.966,0,2.008s.505-.648.9-1.8c.2-.574.408-1.263.625-2.032l.326-1.21a12.5,12.5,0,0,1,.341-1.212,1.415,1.415,0,0,1,.5-.729,1.282,1.282,0,0,1,.816-.1c.742.1,1.492.208,2.085.262C726.9,1421.829,727.665,1421.813,727.7,1421.637Z" transform="translate(-719.978 -1420.199)" fill="#fff"/>
    </g>
    <g id="Group_1963" data-name="Group 1963" transform="translate(650.928 1364.303)">
      <path id="Path_1597" data-name="Path 1597" d="M758.871,1428.8c.035-.176-.666-.48-1.829-.828-.593-.174-1.251-.361-2.08-.544a3.208,3.208,0,0,0-.744-.063,2,2,0,0,0-.881.239,2.533,2.533,0,0,0-1.087,1.376,9.708,9.708,0,0,0-.365,1.381c-.088.426-.172.836-.253,1.228-.152.785-.271,1.495-.353,2.1-.164,1.2-.178,1.967,0,2.008s.505-.648.9-1.8c.2-.574.409-1.262.625-2.032.1-.386.213-.791.326-1.21a12.346,12.346,0,0,1,.341-1.212,1.411,1.411,0,0,1,.5-.729,1.277,1.277,0,0,1,.816-.1c.743.1,1.491.208,2.085.262C758.072,1429,758.837,1428.982,758.871,1428.8Z" transform="translate(-751.149 -1427.367)" fill="#fff"/>
    </g>
    <g id="Group_1964" data-name="Group 1964" transform="translate(664.141 1399.153)">
      <path id="Path_1598" data-name="Path 1598" d="M784.148,1495.477c.035-.176-.666-.48-1.829-.828-.593-.174-1.251-.361-2.08-.544a3.169,3.169,0,0,0-.744-.063,2,2,0,0,0-.88.239,2.529,2.529,0,0,0-1.088,1.375,9.753,9.753,0,0,0-.365,1.382c-.088.426-.172.836-.252,1.228-.152.784-.272,1.495-.354,2.1-.164,1.2-.178,1.966,0,2.008s.505-.648.9-1.8c.2-.574.409-1.263.625-2.032.1-.385.213-.79.326-1.21a12.19,12.19,0,0,1,.341-1.212,1.411,1.411,0,0,1,.5-.729,1.278,1.278,0,0,1,.816-.1c.743.1,1.492.208,2.085.262C783.35,1495.669,784.114,1495.654,784.148,1495.477Z" transform="translate(-776.427 -1494.039)" fill="#fff"/>
    </g>
    <g id="Group_1965" data-name="Group 1965" transform="translate(594.62 1383.165)">
      <path id="Path_1599" data-name="Path 1599" d="M651.147,1464.891c.035-.177-.667-.48-1.829-.829-.592-.173-1.251-.361-2.08-.544a3.2,3.2,0,0,0-.744-.063,2,2,0,0,0-.88.239,2.532,2.532,0,0,0-1.088,1.376,9.782,9.782,0,0,0-.365,1.381l-.252,1.228c-.152.784-.272,1.495-.353,2.1-.164,1.2-.178,1.967,0,2.008s.505-.648.9-1.8c.2-.574.408-1.262.625-2.032l.326-1.21a12.355,12.355,0,0,1,.342-1.212,1.405,1.405,0,0,1,.5-.729,1.283,1.283,0,0,1,.816-.1c.742.1,1.492.208,2.085.262C650.348,1465.083,651.113,1465.067,651.147,1464.891Z" transform="translate(-643.425 -1463.453)" fill="#fff"/>
    </g>
    <g id="Group_1966" data-name="Group 1966" transform="translate(614.904 1387.606)">
      <path id="Path_1600" data-name="Path 1600" d="M682.433,1479.3c.35.084,1.028-1.493,1.515-3.523s.6-3.743.248-3.827-1.027,1.494-1.514,3.524S682.084,1479.219,682.433,1479.3Z" transform="translate(-682.23 -1471.949)" fill="#fff"/>
    </g>
    <g id="Group_1967" data-name="Group 1967" transform="translate(582.73 1349.051)">
      <path id="Path_1601" data-name="Path 1601" d="M620.873,1408.618c.354.065,1.066-2.217,1.593-5.1s.665-5.267.312-5.331-1.067,2.217-1.592,5.1S620.52,1408.554,620.873,1408.618Z" transform="translate(-620.678 -1398.188)" fill="#fff"/>
    </g>
    <g id="Group_1968" data-name="Group 1968" transform="translate(670.067 1368.925)">
      <path id="Path_1602" data-name="Path 1602" d="M796.814,1437.717c.1-.131-.351-.694-1.4-1.122a5.716,5.716,0,0,0-7.372,3.192c-.4,1.056-.3,1.767-.138,1.787.191.035.414-.57.956-1.365a6.094,6.094,0,0,1,6.3-2.729C796.115,1437.629,796.709,1437.88,796.814,1437.717Z" transform="translate(-787.763 -1436.209)" fill="#fff"/>
    </g>
    <g id="Group_1969" data-name="Group 1969" transform="translate(647.167 1395.636)">
      <path id="Path_1603" data-name="Path 1603" d="M744.448,1497.409c.359.013.731-2.237.83-5.026s-.11-5.06-.469-5.073-.731,2.238-.831,5.026S744.088,1497.4,744.448,1497.409Z" transform="translate(-743.953 -1487.31)" fill="#fff"/>
    </g>
    <g id="Group_1970" data-name="Group 1970" transform="translate(671.211 1418.753)">
      <path id="Path_1604" data-name="Path 1604" d="M790.279,1535.48c.35.081.837-.736,1.087-1.823s.169-2.034-.181-2.115-.837.736-1.087,1.823S789.929,1535.4,790.279,1535.48Z" transform="translate(-789.953 -1531.536)" fill="#fff"/>
    </g>
    <g id="Group_1971" data-name="Group 1971" transform="translate(673.15 1388.466)">
      <path id="Path_1605" data-name="Path 1605" d="M799.6,1473.594c-.187-.021-.37.406-.721.979a5.431,5.431,0,0,1-4.032,2.728c-.663.112-1.127.123-1.177.305-.05.16.362.486,1.171.615a4.462,4.462,0,0,0,4.9-3.311C799.914,1474.111,799.765,1473.608,799.6,1473.594Z" transform="translate(-793.662 -1473.594)" fill="#fff"/>
    </g>
    <g id="Group_1972" data-name="Group 1972" transform="translate(642.412 1380.748)">
      <path id="Path_1606" data-name="Path 1606" d="M735.176,1463.434c.352.073.851-.9,1.115-2.169s.193-2.361-.158-2.434-.852.9-1.116,2.169S734.824,1463.361,735.176,1463.434Z" transform="translate(-734.857 -1458.827)" fill="#fff"/>
    </g>
    <g id="Group_1973" data-name="Group 1973" transform="translate(617.243 1356.922)">
      <path id="Path_1607" data-name="Path 1607" d="M687.707,1421.234c.359-.026.519-1.835.358-4.042s-.582-3.973-.94-3.946-.519,1.835-.358,4.042S687.349,1421.26,687.707,1421.234Z" transform="translate(-686.705 -1413.245)" fill="#fff"/>
    </g>
    <g id="Group_1974" data-name="Group 1974" transform="translate(622.82 1375.834)">
      <path id="Path_1608" data-name="Path 1608" d="M697.595,1454.248c.342.108.961-.881,1.382-2.21s.483-2.494.141-2.6-.961.881-1.382,2.21S697.252,1454.139,697.595,1454.248Z" transform="translate(-697.374 -1449.427)" fill="#fff"/>
    </g>
    <g id="Group_1975" data-name="Group 1975" transform="translate(602.21 1370.809)">
      <path id="Path_1609" data-name="Path 1609" d="M665.416,1439.819c-.347-.131-1.229,1.819-3.279,3.133-2.031,1.343-4.171,1.362-4.191,1.731-.016.169.523.407,1.454.414a6.52,6.52,0,0,0,5.806-3.781C665.576,1440.463,665.576,1439.874,665.416,1439.819Z" transform="translate(-657.945 -1439.813)" fill="#fff"/>
    </g>
    <g id="Group_1976" data-name="Group 1976" transform="translate(633.956 1407.285)">
      <path id="Path_1610" data-name="Path 1610" d="M725.671,1509.6c-.187-.032-.41.5-.83,1.257a9.2,9.2,0,0,1-4.822,4.33c-.8.336-1.351.5-1.339.691.006.168.605.334,1.579.2a6.779,6.779,0,0,0,5.44-4.884C725.938,1510.235,725.837,1509.622,725.671,1509.6Z" transform="translate(-718.679 -1509.596)" fill="#fff"/>
    </g>
    <g id="Group_1977" data-name="Group 1977" transform="translate(602.835 1329.076)">
      <path id="Path_1611" data-name="Path 1611" d="M672.662,1548.987c.056.011.113.02.169.033l-.337-.077c-3.806-1.1-5.351-5.569-4.691-9.361l.115-.5q-.042.183-.092.367.035-.187.077-.371l-.114.5c-1.063,3.7-4.4,7.042-8.309,6.371l-.337-.077c.056.013.111.029.167.044-.057-.012-.113-.021-.169-.033l.336.077c3.806,1.1,5.351,5.569,4.691,9.361l-.115.5q.042-.184.092-.367c-.022.124-.049.248-.077.371l.115-.5c1.062-3.7,4.4-7.043,8.308-6.372l.337.077C672.772,1549.018,672.717,1549,672.662,1548.987Z" transform="translate(-659.141 -1445.461)" fill="#fff"/>
      <path id="Path_1612" data-name="Path 1612" d="M773.2,1376.458c.094.019.188.034.282.056l-.561-.129c-6.333-1.835-8.905-9.268-7.806-15.577l.191-.828q-.071.306-.154.611.058-.311.129-.617l-.19.828c-1.768,6.156-7.328,11.719-13.827,10.6l-.559-.129c.094.021.184.049.278.073-.095-.02-.188-.034-.282-.056l.56.129c6.334,1.835,8.9,9.268,7.806,15.578l-.19.828q.071-.307.153-.612-.057.312-.128.618l.191-.829c1.767-6.156,7.327-11.719,13.826-10.6l.56.129C773.388,1376.51,773.3,1376.482,773.2,1376.458Z" transform="translate(-702.844 -1359.974)" fill="#fff"/>
      <path id="Path_1613" data-name="Path 1613" d="M737.566,1555.021c.035.007.071.013.107.02l-.213-.049c-2.4-.693-3.367-3.505-2.953-5.891l.072-.312c-.018.077-.037.155-.057.23.015-.077.032-.155.05-.232l-.072.312c-.669,2.328-2.772,4.433-5.231,4.01l-.211-.049c.036.008.069.019.1.028-.036-.007-.071-.012-.106-.021l.211.049c2.4.693,3.369,3.505,2.954,5.892l-.072.312c.018-.077.037-.154.056-.23-.014.078-.031.156-.049.233l.072-.312c.669-2.328,2.772-4.433,5.229-4.01l.213.049C737.635,1555.041,737.6,1555.03,737.566,1555.021Z" transform="translate(-692.511 -1450.093)" fill="#fff"/>
      <path id="Path_1614" data-name="Path 1614" d="M674.815,1366.666c.029.006.06.01.09.017l-.181-.042c-2.035-.589-2.862-2.979-2.509-5.007l.061-.265c-.015.065-.031.131-.049.2.013-.065.027-.132.042-.2l-.061.265c-.569,1.978-2.356,3.767-4.445,3.407l-.179-.041c.03.007.058.016.089.024l-.09-.017.179.041c2.037.59,2.863,2.979,2.51,5.007l-.061.266c.015-.065.031-.131.048-.2-.011.066-.026.132-.041.2l.061-.265c.569-1.979,2.356-3.767,4.444-3.408l.181.041C674.874,1366.682,674.844,1366.673,674.815,1366.666Z" transform="translate(-663.17 -1360.639)" fill="#fff"/>
    </g>
  </g>
</svg>
