<svg id="circle" xmlns="http://www.w3.org/2000/svg" viewBox="0 0 58.68 37.18"><defs><style>.cls-1{fill:#035dff;}.cls-2{fill:#fff;}</style></defs><path class="cls-1" d="M12.59,36.35l-.39-.18a1.41,1.41,0,0,1-.56-.34L11.07,35a3.94,3.94,0,0,0-.38-.53c-.15.09-.4.33-.59.33s-.37-.42-.45-.51a.49.49,0,0,0-.4-.13c-.2,0-.38,0-.38-.18v-4.9c0-.16-.18-.31-.28-.43s-.14-.21-.19-.22-.23.22-.37.15l-.72-.35H7a1.09,1.09,0,0,1-.47-.08c0-.09.07-.17.1-.26-.12-.05-.66-.29-.71-.23a.33.33,0,0,1-.35,0,.51.51,0,0,0-.45.06c-.27.13-.48.18-.61.44s-.18.2-.36.28-.38-.17-.45-.06,0,.11,0,.21a.65.65,0,0,1,.19.42s0,.28.06.31.38.1.35.35a2.19,2.19,0,0,1-.09.41c0,.13-.16.15-.31.12s-.33,0-.34-.13a2.16,2.16,0,0,1,0-.36l-.84.13a.57.57,0,0,1,.09.59c-.06.11.2.28.3.32s.45.19.59.12.27-.18.42-.26a4.5,4.5,0,0,1-.11.81c0,.27-.14.12-.31.12s-.31.22-.41.33S3,31.7,3,31.66c-.1.13-.74.5-.72.6s.1.27.14.41-.17.24-.09.37a.46.46,0,0,0,.35.28c.13,0,.32,0,.38.15s.12.3,0,.41-.12.1-.1.2c.37,0,.45-.07.62.3s.44-.08.64-.08.06.18,0,.3a2.6,2.6,0,0,0-.28.45c0,.08,0,.2-.12.24a4.18,4.18,0,0,1-1,.48c-.11,0-.18.15-.29.2a1,1,0,0,1-.34,0,3.34,3.34,0,0,0-.52.14c-.18,0-.28,0-.41.1a5.58,5.58,0,0,0,1.61-.34,3.68,3.68,0,0,0,1.28-.48L5,34.65l-.18-.1a9.73,9.73,0,0,1,1.66-1.2c-.19.33-.54.65-.54,1,.47-.13.83-.13.83-.72h.62c.28,0,.42.26.61.43s.26.09.41.11a2,2,0,0,1,.62.16,7,7,0,0,1,.78.37c.25.13.37.18.46.46a2,2,0,0,0,.35.67A15.53,15.53,0,0,0,12,37.18h0a4,4,0,0,0,.56-.26c.07,0,0-.26,0-.32A1.07,1.07,0,0,0,12.59,36.35Z" transform="translate(0)"/><path class="cls-1" d="M15,32.5a.24.24,0,0,0-.26.22c0,.14.17.11.3.11S15.21,32.42,15,32.5Z" transform="translate(0)"/><path class="cls-1" d="M17,33.22c-.19.12-.17.16-.13.37,0,0,0,.16.06.16h.36c.14,0,0-.24-.05-.29S17,33.29,17,33.22Z" transform="translate(0)"/><path class="cls-1" d="M18.63,34.2a.31.31,0,0,0,.05-.1l-.6-.1C18.06,34.18,18.51,34,18.63,34.2Z" transform="translate(0)"/><path class="cls-1" d="M18.45,34.74l.12-.08-.18-.21C18.28,34.52,18.43,34.65,18.45,34.74Z" transform="translate(0)"/><path class="cls-1" d="M18.93,34.37H19l-.1-.07Z" transform="translate(0)"/><path class="cls-1" d="M19.12,34.41l.05.08a.43.43,0,0,0,0,.16.94.94,0,0,0,.35-.2C19.41,34.27,19.3,34.44,19.12,34.41Z" transform="translate(0)"/><path class="cls-1" d="M21,36.09a.61.61,0,0,0-.16-.28,2.16,2.16,0,0,0-.81-.45c0,.3-.26.42-.2.72s0,.83.37.84a1.28,1.28,0,0,1,.71-.47c.09,0,.39-.05.38-.15S21,36.21,21,36.09Z" transform="translate(0)"/><path class="cls-1" d="M3.25,3.53a.45.45,0,0,1,.3.4c0,.24,0,.42.24.56a.68.68,0,0,0,.55.16,2,2,0,0,1,.91.21,1.82,1.82,0,0,0,.57,0,6.44,6.44,0,0,1,1.52,0l1.94.45a6.72,6.72,0,0,1,.29-1.66c.14-.65.36-1.3.47-1.95.1-.37,0-.4-.26-.46L8.8,1,7,.64C6.34.49,5.67.21,5,0c0,.19,0,.29.2.25A1.37,1.37,0,0,0,5.08,1c0,.22.15.44,0,.64a5.34,5.34,0,0,0-.32.53c-.11.18-.22.17-.44.17a1.75,1.75,0,0,1,.1-.44c0-.15.15-.25.14-.37s0-.36-.15-.35S4.19,1.07,4.1,1c-.19.21-.43-.09-.61-.21L3,.39A.82.82,0,0,0,3,.83a1.09,1.09,0,0,1,0,.44.94.94,0,0,0-.08.33c0,.12.13.18.1.31a.92.92,0,0,1-.09.23l.35.36H3c-.07.19.06.1.12.26s-.18.46-.31.46S3.15,3.47,3.25,3.53Z" transform="translate(0)"/><path class="cls-1" d="M8.22,9.55l.18-.82a1.6,1.6,0,0,1,.16-.48c.08-.16.21-.21,0-.32s0-.44,0-.67,0-.2.17-.26a.43.43,0,0,0,.33-.3c.1-.22.42-.51.42-.87,0-.2-.25,0-.26-.17s-.13-.21-.38-.27L8,5.19A5.36,5.36,0,0,0,6.8,5,11.69,11.69,0,0,1,5.35,5c-.28,0-.48-.22-.77-.22H4.12c-.21,0-.59-.2-.63-.43s0-.56-.24-.68a3.2,3.2,0,0,0-.51-.29,16.81,16.81,0,0,1-1,2.87,5.89,5.89,0,0,1-.24.58,1.1,1.1,0,0,1-.29.38c-.13.11-.09.22-.16.36s-.26.22-.25.26l.09.35c0,.15-.09.28-.1.43s0,.25,0,.38L8,10.86A9.4,9.4,0,0,1,8.22,9.55Z" transform="translate(0)"/><path class="cls-1" d="M5,10.26l-.54,2.17c-.12.45-.23.89-.34,1.34,0,.16-.22.61-.12.75l4.5,6.59A.54.54,0,0,0,8.55,21c.06-.16,0-.08,0-.21s.16-.48.08-.71,0-.42.26-.42a.89.89,0,0,1,.23,0c.11.05.09.19.21.24.18-.64.35-1.27.47-1.92q.6-3.09,1.18-6.17c.06-.27-.12-.2-.38-.25l-1.78-.35C7.52,10.94,6.27,10.59,5,10.26Z" transform="translate(0)"/><path class="cls-1" d="M1.65,19a.17.17,0,0,1,.15.16c0,.08-.16.26,0,.44a.29.29,0,0,1,.07.18H7.4c-1.11-1.63-2.22-3.25-3.32-4.88-.17-.25-.27-.36-.19-.69s.19-.74.28-1.11c.24-.94.47-1.88.71-2.82a8.68,8.68,0,0,1-1-.27L2.71,9.66.76,9.15v.59c0,.39-.43.82-.63,1.14a1,1,0,0,0,0,1c.06.16.25.5.12.66s-.34.41-.15.67-.14.21-.09.3l.11.15a3.48,3.48,0,0,1,.34.51c.12.18,0,.42,0,.61s.18.26.25.34L1,14.81c.08.38.15.76.23,1.15-.14-.09-.3-.24-.47-.24a1,1,0,0,0,.19.75c.19.25.34.29.31.55s-.22.26-.28.4c-.12.3.1.25.24.49s.19.58.31.84A.45.45,0,0,0,1.65,19Z" transform="translate(0)"/><path class="cls-1" d="M15.15,19.56,14,19.38l-3.56-.55a2.59,2.59,0,0,0-.68-.09L9.4,20.07c-.16-.07-.28-.09-.34-.27s-.27-.06-.31,0,0,.24,0,.37a.89.89,0,0,1,0,.23c0,.11-.1.27,0,.34s-.09.43-.12.57a1.24,1.24,0,0,0,.06.66.49.49,0,0,0,.24.27c.16.06.08.3.08.43s-.24-.13-.29-.07a1.61,1.61,0,0,0-.21.3c-.11.24-.17.75-.53.72,0,.22.44.77.06.87-.21.05-.25.11-.07.22l1.36.86,1.78,1.12a2.94,2.94,0,0,0,1,.5l2.07.27c.19-1.49.42-3,.63-4.46l.44-3.09C15.2,19.77,15.29,19.58,15.15,19.56Z" transform="translate(0)"/><path class="cls-1" d="M14.46,10l.18-1.09a.83.83,0,0,0-.15-.61c-.16.25-.48.17-.73.11a3.72,3.72,0,0,0-.79.05c-.31,0-.29-.16-.33-.41s-.13-.25-.38-.35c0-.07.18-.22.14-.3a.73.73,0,0,1-.15-.35c0-.14.06-.35,0-.47-.07-.32-.31.1-.41.12s-.25-.18-.41-.14l.21-.4c.07-.12,0-.23.07-.36a3,3,0,0,0,.21-.72,1,1,0,0,1-.56-.53,1.85,1.85,0,0,0-.21-.45c-.08-.11-.32-.33-.3-.48a.72.72,0,0,0,0-.46,2,2,0,0,1-.1-.26,1.69,1.69,0,0,1,.07-.74c0-.23.07-.45.09-.68l-.73-.16a7.6,7.6,0,0,1-.43,2A7.38,7.38,0,0,0,9.4,5.56c.72,0-.14,1-.23,1.31s-.36.14-.39.27a.85.85,0,0,0-.09.31c0,.17-.13.23,0,.33s.15.17.06.31a4,4,0,0,0-.43,1.38L8,10.85,14.09,12Z" transform="translate(0)"/><path class="cls-1" d="M15.58,8.08c-.1,0-.57-.14-.66-.08a7.82,7.82,0,0,0-.18,1.18L14.45,11c-.13.79-.26,1.58-.4,2.36l7.3,1c.1-1.34.21-2.68.31-4l.12-1.56-1-.12-3.65-.43Z" transform="translate(0)"/><path class="cls-1" d="M11,3.15a.87.87,0,0,1,.07.17c0,.14-.08.22-.07.34s.26.36.34.49.16.57.41.7.39.14.33.33a1.42,1.42,0,0,1-.11.33,4.89,4.89,0,0,1-.25.85c-.06.12-.1.11,0,.19s.17-.1.25-.16h.12a.26.26,0,0,1,.27.24,1.77,1.77,0,0,1,0,.46c0,.25.25.33.08.59.3.11.28.24.33.53,0,.07,0,.16.07.17a1.27,1.27,0,0,0,.39,0,1.19,1.19,0,0,1,.7,0c.33.07.38-.07.55-.29l.2.4c0-.18,0-.62.25-.59l6.83.8c.16-1.82.3-3.65.48-5.48C20.5,2.93,18.72,2.8,17,2.54c-2-.3-3.94-.55-5.88-1A3.38,3.38,0,0,0,11,3.15Z" transform="translate(0)"/><path class="cls-1" d="M13.88,13.52l.24-1.29c-1-.15-2-.39-3-.58-.45,2.31-.9,4.62-1.33,6.93l5.44.85q.39-2.82.76-5.62Z" transform="translate(0)"/><path class="cls-1" d="M23.38,14.73l-.66-.07a9.83,9.83,0,0,1-1.32-.13l-2.77-.37-1.75-.24a4.54,4.54,0,0,1-.74-.1c-.25,1.88-.5,3.75-.76,5.63l4,.5a31.86,31.86,0,0,0,3.77.37s.1-2.12.11-2.27l.15-3.18S23.43,14.73,23.38,14.73Z" transform="translate(0)"/><path class="cls-1" d="M29.1,6.66V6.1c0-.19.08-.89-.11-1S28.8,4.28,28.78,4c0-.06.27-.48,0-.48H28.5c-2-.07-4-.1-6.06-.28L22,7.32l7.28.38C29.33,7.32,29.12,7,29.1,6.66Z" transform="translate(0)"/><path class="cls-1" d="M27.1,11.74c.11,0,.31,0,.39.08a.88.88,0,0,1,.1.27c.08,0,.14-.07.21-.07a.67.67,0,0,1,.34.26c.3-.2.5-.26.81,0l.42.31a.71.71,0,0,1,.09-.63c.07-.12,0-.17-.1-.27s-.15-.69.17-.54a15.51,15.51,0,0,0,0-1.67V8.87c0-.2-.38-.27-.45-.45s.09-.41.19-.56L22,7.46c0,1.34-.21,2.69-.32,4l3.49.16Z" transform="translate(0)"/><path class="cls-1" d="M23.55,14.68a10.45,10.45,0,0,1-.05,1.25l7.12.23a2.76,2.76,0,0,1-.5-1.27c0-.18-.15-.29-.16-.49a1.82,1.82,0,0,0-.18-.72,4,4,0,0,1-.36-.79c0-.15-.07-.15-.2-.25s-.42-.41-.65-.41-.34.27-.47.2-.15-.3-.25-.27-.32.18-.38,0,0-.28-.23-.29h-.55L23.1,11.7h-.85c-.13,0-.54-.11-.55.05a3.59,3.59,0,0,1-.05.62c0,.6-.09,1.2-.14,1.8,0,.09-.07.26,0,.27l.7.07C22.37,14.48,23.56,14.49,23.55,14.68Z" transform="translate(0)"/><path class="cls-1" d="M31.06,16.56a1.7,1.7,0,0,0-.34-.26.43.43,0,0,0-.16,0H29.4c-2-.06-3.95-.07-5.92-.19-.07,1.41-.13,2.83-.19,4.24l8.2.18V18.24a1.62,1.62,0,0,0,0-.44c0-.36-.71-.53-.58-.88C30.94,16.85,31.08,16.64,31.06,16.56Z" transform="translate(0)"/><path class="cls-1" d="M36.59,21.63h.47c.13,0,.19-.45.24-.57a.4.4,0,0,1,.25-.3c.08,0,.13,0,.11-.13a.57.57,0,0,0-.28-.55c-.22-.17-.07-.3-.16-.51A.86.86,0,0,0,37,19.2c-.11-.1-.91-.6-.82-.75s.37-.51.18-.7-.11-.19-.26-.12l-.25.11c-.08-.26-.12-.63-.35-.81a1.36,1.36,0,0,1-.65-1.07c0-.23,0-.23-.16-.37a.35.35,0,0,0-.29-.1h-4c.11.21.21.43.34.63s.46.33.49.5-.2.32-.2.49.42.38.57.55a.76.76,0,0,1,.06.42v3.1l3-.13,1.68-.07h.27c.17,0,.27.31.26.45S36.66,21.55,36.59,21.63Z" transform="translate(0)"/><path class="cls-1" d="M29.07,5c.14.08.13.22.13.36v.7a3.43,3.43,0,0,0,.07.78c.1.29.31.72.14,1-.06.11-.33.43-.2.52s.42.24.42.48V11.1h.6l2.68-.1h1.73c.18,0,.32-.1.17-.32a1.85,1.85,0,0,0-.48-.35c-.16-.09-.17-.42-.31-.45s-.39,0-.4-.17-.42,0-.43-.31V8.63c0-.24.1-.25-.07-.43a.46.46,0,0,1,0-.48c.18-.2.46-.21.48-.5a3.21,3.21,0,0,1,.07-.76,2.78,2.78,0,0,1,1.07-1l1.2-.8c-.34-.09-.68.13-1-.07-.15-.1-.41.06-.57.12-.36.13-.5-.11-.78-.25-.31.09-.28-.28-.53-.32a1.81,1.81,0,0,0-.69-.1A.86.86,0,0,1,31.62,4c-.13-.07-.15,0-.29,0s-.23-.26-.23-.4,0-.48-.22-.53c-.05.24,0,.39-.31.43a1.34,1.34,0,0,1-.42,0L29,3.5c0,.09.11.24.08.33s-.12.06-.11.17l.06.82C29,4.92,29,4.94,29.07,5Z" transform="translate(0)"/><path class="cls-1" d="M30.44,15.27h3.31c.34,0,.78-.1,1,.15h0c0-.33.63-.5.37-.9a.45.45,0,0,1,0-.54c.14-.09.4-.05.51-.18a1.28,1.28,0,0,0,.31-.51c0-.08.07-.2,0-.26a3.06,3.06,0,0,1-.35-.37.75.75,0,0,0-.49-.38.64.64,0,0,1-.29-.44c-.06-.12.12-.28.06-.37s-.19-.15-.18-.34H32.94l-3.38.09h-.24a.67.67,0,0,0,.07.37c.07.11.18.2.09.36-.33.56.14,1.19.35,1.71a2.22,2.22,0,0,1,.16.88.69.69,0,0,0,.13.11.57.57,0,0,1,0,.26C30.26,15.13,30.25,15.27,30.44,15.27Z" transform="translate(0)"/><path class="cls-1" d="M35.13,6.67c-.11,0-.2.09-.31.12,0-.14-.07-.37,0-.49a1.57,1.57,0,0,0-.51.23.53.53,0,0,1-.59,0,4,4,0,0,1-.06.84c0,.28-.54.25-.54.61,0,.12.09.15.17.23s0,.18,0,.29a3.09,3.09,0,0,0,0,.43v.4c0,.13.38,0,.44.21s-.07.12.09.15h.26c.16.06.09.28.21.37s.63.32.63.54a3.53,3.53,0,0,0,0,.46c0,.18.19.23.18.4s-.13.39.08.58.35.09.48.27l2.73-.12c0-.36-.12-.71-.2-1.06s.13-.55.1-.86.23-.5.19-.79.22-.63.31-.93a.83.83,0,0,1-.21.28.32.32,0,0,0-.2.15,1,1,0,0,1-.18.26c-.08.07-.15.11-.26,0S38,9,38,8.92s.34-.39.43-.64a2.61,2.61,0,0,1,.24-.54c.07-.13,0-.34.1-.45h0a.19.19,0,0,1,.25.06c.1-.12.38-.12.34.1.14-.06,0-.27.27-.28A.56.56,0,0,0,40.1,7c.22-.17.78-.31,1,0,.15-.28.66-.11.94-.23-.2-.07-.52-.28-.72-.26a1.35,1.35,0,0,1-.49,0c-.11,0-.13-.36-.14-.47a2.57,2.57,0,0,1-.72.2c-.35,0-.49.3-.78.4a4.69,4.69,0,0,1-.53,0,.63.63,0,0,1-.49-.24.86.86,0,0,0-1-.09,1.72,1.72,0,0,1,.44-1c-.15,0-.21-.07-.28.1s-.19.22-.34.33a3.75,3.75,0,0,1-.76.48c-.23.09-.48.46-.72.46S35.28,6.62,35.13,6.67Z" transform="translate(0)"/><path class="cls-1" d="M36.41,18.61l.18.14a3.87,3.87,0,0,1,.59.48.74.74,0,0,1,.18.49c0,.19,0,.2.17.31a.2.2,0,0,0,.09.09c.07-.25.12-.28.37-.39s.26.22.43.22c0-.24-.09-.41.17-.55s.19-.11.19-.34v-.49a2.59,2.59,0,0,1,.33-.67c.09-.18.3-.48.06-.64s0-.31,0-.55a1.77,1.77,0,0,0-.05-.54c-.06-.77-.13-1.54-.19-2.31a4.69,4.69,0,0,0,0-.53.88.88,0,0,0-.27-.52c-.18-.11-.15-.22-.15-.41l-2.64.12c.24.33.58.5.36,1a1,1,0,0,1-.53.52c-.2.06-.49.14-.34.42s.07.38,0,.64-.23.2-.28.34a1.24,1.24,0,0,0,0,.47.81.81,0,0,0,.14.5c.16.27.46.4.62.65a1.72,1.72,0,0,1,.18.54c.42-.24.69.17.59.58C36.43,18.34,36.18,18.47,36.41,18.61Z" transform="translate(0)"/><path class="cls-1" d="M41.76,13l-1.58.18a1.22,1.22,0,0,0-.47.06c-.27.17-.41.33-.72.17.09,1,.17,1.9.25,2.85v.34c0,.11,0,.49-.08.46.14.09.18.13.21.27,0,.56-.47.91-.47,1.46.09-.18.33-.11.5-.11s.27.13.44.13a2.17,2.17,0,0,1,.07-.24.52.52,0,0,1,.21-.07c.05,0,.29.18.29.08s.15-.5.33-.32.24.19.36-.06a2.85,2.85,0,0,1,.43-.6c.16-.19,0-.36.33-.28.28-.15.28-.27.25-.55C42,15.56,41.89,14.3,41.76,13Z" transform="translate(0)"/><path class="cls-1" d="M41.89,7.73c-.17,0-.15-.19-.29-.21s-.35-.16-.4-.1l-.25.3c-.09.1.08.19,0,.31s-.19.14-.19.2c0,.35-.11.44-.36.68-.12-.13-.14-.27-.3-.09a.53.53,0,0,0-.15.42,6.72,6.72,0,0,0-.1.75,3.28,3.28,0,0,0,.21.86,1.56,1.56,0,0,1,.2.82v.39a1.88,1.88,0,0,1-.29,1,.36.36,0,0,0-.07.1L41.05,13l1.13-.13.85-.12c.1,0,0-.06.07-.14a.71.71,0,0,0,.23-.51c0-.1.16-.21.18-.34s0-.3.13-.35.15,0,.18-.16a1.09,1.09,0,0,0,0-.44c-.09-.22-.16-.45-.23-.67s-.07-.4-.31-.45-.39.28-.54.47-.15.2-.4.1c-.49-.19.13-.7.23-.91.23-.45-.32-.93,0-1.33A1.33,1.33,0,0,0,41.89,7.73Z" transform="translate(0)"/><path class="cls-1" d="M46.1,14.43c.06-.06.2-.15.2-.24s.17-.24.16-.37-.08-.34-.11-.51c-.06-.36-.13-.72-.19-1.08l-.34.21c-.12.07-.28.05-.37.16s-.31.48-.47.48-.19-.08-.37.05-.22.19-.39.16c-.4-.06-.73-.32-1.13-.23v-.2L42.2,13c-.16,0-.3,0-.28.15L42,14.31l.24,2.37.33-.07c.12,0,.18.17.24.25.18.25.38.13.59.38.19-.16.4,0,.59-.12s.15-.22.26-.22.22.14.3.21l.27.22c.08-.13.16-.25.23-.38s-.06-.32.05-.45.35.06.35-.09a1.21,1.21,0,0,1,.13-.42c.12-.32.32-.08.46-.3s.19-.19.23-.3a.8.8,0,0,0,0-.31,1.41,1.41,0,0,1,.11-.33C46.42,14.64,46.22,14.52,46.1,14.43Z" transform="translate(0)"/><path class="cls-1" d="M41.75,17.46c-.06.38-.43.56-.53.91a.3.3,0,0,1-.38.17l-.06,0c-.34-.21-.07.3-.39.3-.16,0-.19-.17-.35-.1s0,.19,0,.26-.37-.09-.49-.11-.61-.05-.58.27-.17.26-.38.47c0,.14.09.35,0,.48s-.35-.07-.43-.16-.37.21-.37.35.2.47,0,.58l.65-.08.46-.06c.11,0,0-.21,0-.3a2.33,2.33,0,0,0,.46.08,29,29,0,0,0,3.08-.32L43.88,20a.85.85,0,0,0,.37-.15c.14-.08.36-.12.4-.3s.22-.24.36-.35l.57-.45c.19-.15-.08-.17-.13-.19a.76.76,0,0,1-.39-.24c-.1-.13-.32-.36-.3-.54a.91.91,0,0,0,0-.33,3.72,3.72,0,0,0-.49-.4s-.22.22-.3.22h-.35c-.09,0-.14.12-.24.12s-.11-.21-.32-.2c-.41,0-.31-.56-.82-.39,0,.21.11.35-.06.53A.39.39,0,0,1,41.75,17.46Z" transform="translate(0)"/><path class="cls-1" d="M40.09,20.54a2.65,2.65,0,0,1-1.05,0c0,.31-.26.27-.5.3l-.9.12c-.33,0-.37.58-.48.86a3.56,3.56,0,0,0-.23.85,1.07,1.07,0,0,1-.1.39l5.35-.49L43,22.5c.22,0,.24-.69.55-.78a1.66,1.66,0,0,0,.89-.46c.12-.12.22-.39.37-.46s.21,0,.27,0a1,1,0,0,0,.48-.32.66.66,0,0,0,.23-.55l-3.66.39Z" transform="translate(0)"/><path class="cls-1" d="M31.48,20.63h-.62l-3.23-.07c-1.83,0-3.67,0-5.5-.13v.47l2.26.21,1,.09c.26,0,.2.19.19.41A9.12,9.12,0,0,1,25.51,23a3.75,3.75,0,0,0,0,.82.9.9,0,0,0,.17.3c.09.14.22.1.38.1a2.52,2.52,0,0,1,1,.37c.19.1.31-.06.48.11l.37.34.19-.28c.09.06.17.19.27.23s.19-.15.27-.21c.05.14.09.28.14.42.12-.24.15-.4.43-.37s.38.12.51.42a1,1,0,0,1,.82-.35c.1,0,.28.11.38.06a.31.31,0,0,1,.38,0l.48.31v-2.4A9.89,9.89,0,0,1,31.48,20.63Z" transform="translate(0)"/><path class="cls-1" d="M21.35,27.43v-.1c.2-2.1.39-4.21.59-6.31,0,0,.06-.6,0-.6l-.74-.09-3.6-.46c-.77-.09-1.53-.18-2.29-.29a19.27,19.27,0,0,0-.29,2q-.42,2.93-.83,5.83l.83.11c.22,0-.06-.63.31-.59l1.73.19L17,26.86Z" transform="translate(0)"/><path class="cls-1" d="M28.14,36.21Z" transform="translate(0)"/><path class="cls-1" d="M32.51,28.13c-.08-.14-.18-.28-.25-.42a2.32,2.32,0,0,1,0-.91V25.57c0-.18-.14-.1-.26,0a.72.72,0,0,1-.28-.13L31.09,25c-.18-.1-.29.12-.5.06a.84.84,0,0,0-1,.4l-.18-.4c-.07-.16-.2-.12-.35-.15s-.33.46-.4.61L28.45,25c-.22.17-.24.1-.44,0l-.19.3-.33-.3c-.14-.14-.18-.27-.36-.18s-.64-.35-.88-.37a3.15,3.15,0,0,0-.44,0c-.32,0-.3-.17-.46-.38s-.06-.55-.05-.8a5.54,5.54,0,0,1,.05-.8,6.67,6.67,0,0,0,0-1H25l-1.76-.16L22.09,21s-.06.61-.06.65c-.18,2-.37,3.94-.55,5.91L17.23,27c.05.23.29.21.35.39s0,.19.12.32l.69.72.74.77c.13.14.09.3.22.45s-.05.35,0,.53a1.7,1.7,0,0,0,.74.69l.81.58c.3.22.57-.73.63-.85s.18-.13.35-.14.2-.12.32-.25c.31.38.57.19,1,.3s.3.37.51.54a1.49,1.49,0,0,1,.6.79,4.35,4.35,0,0,0,.34.84c.1.23.44.39.47.64s.11.29.3.29.21.58.24.73a5.72,5.72,0,0,0,.36.89c.1.25.58.36.82.47s1.31.25,1.28.49c.11-.08.15-.15.29,0,0-.11-.22-.21-.26-.35s-.09-.31-.13-.47-.17-.36-.09-.57.12-.24,0-.35.13-.35.18-.53-.1-.27.07-.47.14,0,.21,0a.44.44,0,0,0,.11-.29h0a.23.23,0,0,1,.31-.1h0c0-.27.19-.27.42-.33l-.16-.21a1.29,1.29,0,0,1,.57-.16c.08.13.11.06.25,0a4.75,4.75,0,0,0,.59-.31c.19-.1.32-.15.4-.36s.35-.25.26-.38c-.23-.35.23-.44.45-.52,0,.18-.08.35.18.28l.57-.14c.25-.07.21-.27.27-.5a1.81,1.81,0,0,0,0-.57,2.54,2.54,0,0,0-.1-1.68Z" transform="translate(0)"/><path class="cls-1" d="M38.29,30.11l-.57.38c-.1-.21-.12-.37-.4-.3s-.34.15-.45,0-.08-.26.05-.44.65,0,.78.07a.94.94,0,0,1-.17-.81H35.48c-.36-.1-.08-.62,0-.87s.16-.82.51-1c-.05-.21-.14-.41-.21-.62s0-.28-.26-.28h-3.1c-.09,0,0,.25,0,.32v.9c0,.34.28.66.42,1a1.88,1.88,0,0,1,.08,1.28,6.43,6.43,0,0,1-.16,1.07,2.27,2.27,0,0,1,1-.13l1,.23a.29.29,0,0,1,.19-.35.82.82,0,0,1,.56.18c.06,0,.08.18.14.22s.22,0,.28.05.13.29.27.34l.29.11c.11.05.17-.13.29-.17a.8.8,0,0,1,.3-.06c.16,0,.17.31.22,0s.28-.45.44-.17.49.16.59.45l.24-.12a3.57,3.57,0,0,1-.68-.4C37.49,30.71,38.41,30.27,38.29,30.11Z" transform="translate(0)"/><path class="cls-1" d="M31.8,23.86v1.28c0,.42.42,0,.57.3a1.67,1.67,0,0,1,0,.63h1.69c.11,0,1.59.11,1.62-.08.25-.35-.41-.52-.12-.84.2-.16.18-.33.25-.57a1.64,1.64,0,0,1,.47-.72c.12-.13,0-.37.13-.52s.3-.24.34-.46A3.63,3.63,0,0,1,37,21.76h-.79c.08-.09.45-.39.41-.5s0-.24-.2-.24H35.28l-3.28.2h-.36a3.72,3.72,0,0,0,.08,1A11.19,11.19,0,0,1,31.8,23.86Z" transform="translate(0)"/><path class="cls-1" d="M39.07,23l-2,.18a.65.65,0,0,0-.46.16c-.15.14-.08.28-.13.46s-.17.25-.27.36a1.09,1.09,0,0,0-.21.45,1.11,1.11,0,0,1-.36.66c.16.19.32.35.24.62a.51.51,0,0,0,0,.3c.1.28.19.56.28.84s-.2.2-.26.37l-.31.89s-.18.5-.09.5h2.25c0,.24-.13.4,0,.62s.15.38.23.34l.35-.16a2.72,2.72,0,0,1,.47-.19,1.46,1.46,0,0,1,.51,0q-.16-1.5-.18-3Z" transform="translate(0)"/><path class="cls-1" d="M41.1,28.49l2.17-.21c-.23-.3,0-.49-.15-.76s0-.66,0-1.08c0-.12-.13-.14-.19-.24a.66.66,0,0,1-.08-.22l-.1-.37c-.16-.59-.33-1.17-.49-1.75L42,23.07c0-.05,0-.27-.09-.3-.88.15-1.81.17-2.7.25a22.9,22.9,0,0,0,0,2.62,33.15,33.15,0,0,0,.17,3.73c.07-.07.15,0,.21,0l.3-.65c0,.24,0,.77.34.77s-.2-.72.06-.94A2.21,2.21,0,0,1,41.1,28.49Z" transform="translate(0)"/><path class="cls-1" d="M58.52,4.63l-.31-.09c-.12,0-.14-.17-.18-.26s-.21-.14-.32-.24a1.38,1.38,0,0,1-.17-.48l-.24-.73a1.87,1.87,0,0,0-.13-.4c0-.14-.44-.55-.6-.45L56,2.34c-.13.08-.34-.19-.32-.31a2.71,2.71,0,0,0-.28,1,1.24,1.24,0,0,1-.11.36c0,.12.05.12.07.18s-.06.23-.09.31a2.25,2.25,0,0,0,0,.45.66.66,0,0,1-.12.56c-.16.16,0,.33-.14.53s-.13.1-.27,0c.15.44.31.89.47,1.34l.28.79a4.17,4.17,0,0,0,.08.49l.25.25.18-.5c0-.16-.06-.43,0-.54s.18-.27.36-.19c0,0,.44-.24.46-.27.14-.2.11-.63.39-.68s.28-.24.39-.37.21,0,.3,0a1.37,1.37,0,0,1,.23-.25c.19-.13.34-.43.55-.51C58.66,4.87,58.63,4.66,58.52,4.63Z" transform="translate(0)"/><path class="cls-1" d="M54.21,7.09a.63.63,0,0,0,.12.42c.11.2-.12.47-.12.68a3.35,3.35,0,0,0,0,1v.08l.62-.15A1.7,1.7,0,0,0,55.38,9c.16-.13.1-.24.35-.3,0-.15.06-.19,0-.29a3.07,3.07,0,0,1-.25-.26c-.08-.11,0-.24,0-.36-.27-.76-.54-1.52-.8-2.28-.34.2-.17.75-.08,1S54.4,7,54.21,7.09Z" transform="translate(0)"/><path class="cls-1" d="M52.87,7.7c.07.14.15.2.15.37s0,0,.14.19.1.61.24.89.08.23.29.19l.45-.09a4.26,4.26,0,0,1-.08-1.07c0-.33.22-.45,0-.74a.39.39,0,0,1,0-.48c.1-.06.19-.08.23-.2a4,4,0,0,0,0-.7l-1.69.38c.09.22.17.43.25.65S52.76,7.51,52.87,7.7Z" transform="translate(0)"/><path class="cls-1" d="M56.64,10.14c-.21,0-.38-.26-.49-.4s-.32-.09-.45-.11.39-.79.12-.88-.26.31-.44.35l-.46.1-1.34.3c-.1,0,0,.77,0,.9.71-.16,1.41-.34,2.13-.46,0,.14-.06.19.09.24s.23,0,.31.11a.61.61,0,0,0,.07.14c.08-.12.43-.42.53-.18.16-.15.37-.07.36-.33a.83.83,0,0,0-.14-.3C56.73,9.73,57.14,10.14,56.64,10.14Z" transform="translate(0)"/><path class="cls-1" d="M55.91,10.34c-.15,0-.38,0-.38-.23h-.24c.07.25.13.5.2.75.15-.08.12-.2.12-.35s.19-.15.29-.19a.85.85,0,0,0,.13.25S56,10.34,55.91,10.34Z" transform="translate(0)"/><path class="cls-1" d="M53.86,10.46c-.22,0-.25,0-.23.24a3.45,3.45,0,0,1,0,.46c0,.15.15.13.2.3s-.16.3-.23.35h0a2.12,2.12,0,0,1,.93-.63c.07,0,.79-.17.77-.24a2.78,2.78,0,0,0-.21-.8A10.09,10.09,0,0,0,53.86,10.46Z" transform="translate(0)"/><path class="cls-1" d="M53.85,12.21c-.19.13-.23.17-.42,0v.36a2.2,2.2,0,0,0,.82-.38c.29-.19.52-.17.71-.48a1.55,1.55,0,0,0-.64.29C54.15,12.1,54,12.12,53.85,12.21Z" transform="translate(0)"/><path class="cls-1" d="M51.77,11.11a2.69,2.69,0,0,1,.27.32c.14.17.16.14.4.21a1.77,1.77,0,0,1,1,.52c.05-.05.16-.14.17-.2s-.15-.13-.07-.2.31-.19.11-.31-.12-.7-.13-.88h-.08V9.79a1,1,0,0,0-.11-.54c-.14-.22,0-.44-.12-.66s-.07-.24-.2-.24-.09-.31-.09-.41-.19-.2-.19-.36.13-.28.11-.33c-.09-.24-.18-.48-.26-.72s-.32,0-.42,0a4.06,4.06,0,0,0-.7.15,1.5,1.5,0,0,0-.57.47l-.28.29c-.13.14-.1.35-.23.49s-.3.2-.34.32.23.26.24.5c0,.42-.51.75-.85.89-.12.06-.42.28-.56.18s-.17-.16-.37-.12l-.7.16c-.29.06-.14.36,0,.5s-.22.72-.39.88-.35.23-.35.51l3.54-.65C50.87,11.08,51.53,10.81,51.77,11.11Z" transform="translate(0)"/><path class="cls-1" d="M46.6,13.88l.24,1c.06.23.07.19.33.14l.37-.07,1.93-.33,2.05-.35c.28,0,.18-.39.48-.28.14.06.19,0,.29-.11s.08-.2.15-.29a1,1,0,0,1,.25-.2.51.51,0,0,0-.34-.25c-.08,0-.06-.14-.12-.14H52c0-.33.13-.52-.08-.79a.6.6,0,0,0,.35-.5c-.32,0-.45-.4-.65-.62s-.17,0-.27,0l-1.55.29L46.87,12v-.25c-.08.06-.61.32-.58.44s.06.37.1.55Z" transform="translate(0)"/><path class="cls-1" d="M45.33,18.38a1.13,1.13,0,0,1,.36.14c.14.14,0,.21.2.29a1.59,1.59,0,0,0,.29.15h0c0-.09.1-.18.14-.27.18.12.56.21.55-.1s.56-.2.66-.45a9.69,9.69,0,0,0,.34-1.6c.15.11.48.52.53.15a5,5,0,0,1,.1-.56c.06,0,.24.11.28.06S49,16,49,15.86s.14-.15.12-.28a.88.88,0,0,1,.16-.44c.17.13.36.38.58.35,0-.22-.08-.54-.35-.48s-.49.27-.63.2-.14-.05-.27.08l-.6.61c-.06-.26-.13-.52-.19-.78,0-.08-.49.05-.59.07-.44.07-.43,0-.52-.41l-.18-.73c-.09.11-.05.25-.16.36.23.12.28.21.2.45s0,.41-.1.58-.31.49-.46.49-.32.3-.34.56-.27.1-.4.11.06.28,0,.4-.3.37-.31.62a.74.74,0,0,0,.22.56A.23.23,0,0,0,45.33,18.38Z" transform="translate(0)"/><path class="cls-1" d="M52.29,18.69c.14,0,.19,0,.16-.15s0,0,0-.05a.24.24,0,0,0-.32-.1c-.38.17-.46-.07-.5-.37h.13a.24.24,0,0,1,.08-.33h0a.82.82,0,0,1-.12-.2c-.09-.24.07-.47-.24-.54a1.08,1.08,0,0,1-.55-.33h-.46a1.6,1.6,0,0,1,.17-.64c.08-.15,0-.31-.23-.31s-.15-.33-.44-.32c0,.55-.41.23-.68,0-.12.23-.21,1.14-.68,1-.08.38-.15.95-.64.49l-.12.67c0,.25-.11.73-.32.88a1.43,1.43,0,0,1-.44.19c-.13,0-.07.07-.07.19s-.51.24-.65.15c-.13.3-.3.16-.52.06s-.22,0-.38.08a2.9,2.9,0,0,1-.6.44c-.13.05-.08.21-.16.3a1.74,1.74,0,0,1-.33.18,51.06,51.06,0,0,0,5.5-.71C50.69,19.09,51.48,18.87,52.29,18.69Z" transform="translate(0)"/><path class="cls-1" d="M52.7,19.94l-.21-.25-.28.08c-.23.08-.25,0-.39-.18l.59-.34c.16-.09.37-.18.16-.38s-1.16.16-1.38.21c-1.14.26-2.27.42-3.42.59l-1.38.21c-.21,0-.46,0-.45.21a.4.4,0,0,1-.19.41c-.1.07-.13.22-.25.28s-.2,0-.32.12-.28,0-.33.07a4.28,4.28,0,0,1-.5.57,1.5,1.5,0,0,1-.6.31c-.09,0-.18,0-.23.09s-.3.36-.28.57l1.15-.16a3.35,3.35,0,0,0,.55-.11,1,1,0,0,0,.43-.19.68.68,0,0,1,.46-.21c.41,0,.81-.05,1.22-.09.17,0,.2.09.35.11s.17,0,.21.11.07.19,0,.19L48.4,22c.11,0,.46-.11.55,0l1.15.85c.13.09.15.16.28.1s.34,0,.48-.13.16-.46.33-.66a4.63,4.63,0,0,1,.4-.48c.17-.21.78-.29.84-.54-.12.07-.43.22-.59.16s-.18-.23-.24-.32c.27,0,.43,0,.54-.3a.72.72,0,0,1-.12-.25.28.28,0,0,1,.27-.26c.19,0,.18.35.42,0a.63.63,0,0,0,.12-.5A.76.76,0,0,0,52.7,19.94Z" transform="translate(0)"/><path class="cls-1" d="M42.09,22.76c.22.8.44,1.59.67,2.39A6.32,6.32,0,0,0,43,26c.07.26.3.34.25.65a5,5,0,0,1-.12.53c0,.18.23.33.22.51s-.13.26,0,.43.17.27.26.4.75,0,.91,0l1.56-.08h.43a.42.42,0,0,1,.47.18l.07.07V27.9l.58.11a2.09,2.09,0,0,1,.12-1.35c.07-.14.15-.28.23-.42-.33,0-.32-.12-.34-.42s0-.27-.12-.33a.3.3,0,0,1-.2-.3c0-.17-.33-.3-.51-.4a1.69,1.69,0,0,1-.29-.17c-.11-.11,0-.31,0-.44a3.42,3.42,0,0,0-.7-.32c-.27-.12-.23-.36-.4-.56a1.44,1.44,0,0,0-.62-.3c-.34-.16-.19-.25-.09-.56C43.84,22.57,43,22.68,42.09,22.76Z" transform="translate(0)"/><path class="cls-1" d="M50.37,33.59c-.09-.44-.54-.77-.68-1.19a1,1,0,0,0-.11-.37c0-.12-.19-.11-.25-.18a1.43,1.43,0,0,1-.11-.41c0-.12.07-.32-.08-.53s-.16-.29-.28-.35-.23-.06-.28-.19a1.22,1.22,0,0,0-.14-.33c-.11-.12-.43-.36-.43-.54s.05-.26,0-.37-.19-.21-.22-.31a1.27,1.27,0,0,0-.06-.28,1,1,0,0,0-.16-.41,1.71,1.71,0,0,1-.43-.06v1c-.17-.18-.33-.48-.59-.47l-1.3.06-1.43.07h-.31c-.07,0-.07-.26-.25-.25l-2.7.26c-.19,0-.2,0-.2.25s.11.42.28.39.22-.24.44-.18.2.17.32.11a1.36,1.36,0,0,0,.5-.31v.25c.22,0,.42.17.63.17s.17-.13.35,0l.22.12-.12.21c.14.08.34.13.3.33l.42-.22a1.18,1.18,0,0,0,.49-.33.46.46,0,0,1,.3-.19c.57-.07.94.36,1.32.72.1.1.25.31.37.36.28,0,.27,0,.41.25a1.19,1.19,0,0,1,.23.91c-.08.27-.22.5,0,.76a.39.39,0,0,0,0-.26c.21,0,.46.08.42.36s-.23.32-.14.46.4.61.47.61h.34c.05,0,0,.22,0,.3l.18.19a1.48,1.48,0,0,1,.25.35c0,.07,0,.23.07.29a1.63,1.63,0,0,0,.3.07,1.1,1.1,0,0,1,.37.31c.1.12.17.31.35.32s.17.08.16.22h0c.13,0,.62-.18.59-.36a1.14,1.14,0,0,1,0-.45c0-.08.15-.15.18-.23a.44.44,0,0,0-.07-.34C50.22,34.09,50.45,33.76,50.37,33.59Z" transform="translate(0)"/><path class="cls-1" d="M48.07,25.93a1.42,1.42,0,0,1,.39-.6c.18-.17.4-.3.59-.45l.28-.21c.1-.08.15-.34.23-.46.27-.36.31-.81.68-1.11-.34-.26-.7-.51-1-.78a.57.57,0,0,0-.6-.16l-.75.12c-.08,0-.18.07-.26,0a.43.43,0,0,1-.11-.27c0-.08-.11,0-.18-.05s-.1-.1-.15-.1H47l-.85.08h-.24c-.25,0-.4.19-.63.29s-.34.08-.41.24-.11.29.13.39a1,1,0,0,1,.64.48.61.61,0,0,0,.4.4c.13.06.62.16.62.36s-.06.33.07.4l.63.35c.12.06.13.12.13.25s.12.13.28.29,0,.47,0,.63C48,26.1,48,26.14,48.07,25.93Z" transform="translate(0)"/><path class="cls-1" d="M51.75,14.58c0-.17,0-.17-.18-.14l-.39.06-1.34.23-1.93.33a2.3,2.3,0,0,0,.14.56,4.18,4.18,0,0,1,.59-.6c.1-.06.15.06.23.05s.11,0,.18-.08a1.5,1.5,0,0,1,.51-.15c.17,0,.24.16.31.28s.3.11.42.24,0,.14.18.14.22.14.31.22-.13.57-.15.74c.23,0,.26-.1.44.08h0c.12-.12.18-.09.34-.1,0-.26-.24-.47-.24-.73V15.3C51.17,15.16,51.44,14.33,51.75,14.58Z" transform="translate(0)"/><path class="cls-1" d="M52.22,16c-.14-.1-.17-.47-.22-.63l-.21-.72a1.2,1.2,0,0,1-.15.52c-.07.14,0,.24.08.37a1.29,1.29,0,0,1,.1.44c0,.15.11.27.36.27s.13.22.13.32l.31-.06c0,.3-.13.58-.13.88h0a3,3,0,0,0,.2-.73c0-.16.21-.3.2-.45s0-.2,0-.31C52.73,16,52.36,16.12,52.22,16Z" transform="translate(0)"/><path class="cls-1" d="M52.42,15.2l-.15-.2c-.06-.09-.32-.39-.29-.49s.14-.26,0-.31-.11.05-.15.16a.79.79,0,0,0,.08.3c.13.41.26.82.38,1.23,0,.11.45,0,.56,0s-.11-.39-.17-.44A1.2,1.2,0,0,1,52.42,15.2Z" transform="translate(0)"/><path class="cls-1" d="M53.1,13c.08-.17.38-.73.08-.86l-.76-.31c-.05.22-.06.38-.28.5.14.18.07.39,0,.6.07,0,.22,0,.23.08l.08.07c.18,0,.31.29.41.41a6.86,6.86,0,0,0-.64.68c-.22.22.66.63.72.77h0s.14-.16.17-.21l.18-.38a1.11,1.11,0,0,0,.16-.44v-.76C53.48,12.86,53.29,12.94,53.1,13Z" transform="translate(0)"/><path class="cls-1" d="M8.83,22.44c-.29-.17-.51.38-.57.59a.48.48,0,0,1-.49.41,1.8,1.8,0,0,0,.09.45c.08.2.33.5-.1.5a3.08,3.08,0,0,1-.68-.08l-2-.22a2.35,2.35,0,0,1,0-.53,1.2,1.2,0,0,0-.14-.67C4.66,22.6,4.35,22,4,22c.06-.41-.18-.46-.51-.55a.42.42,0,0,1-.29-.21.51.51,0,0,0-.33-.39,2,2,0,0,0-.74-.27c-.09,0-.42-.21-.38-.3a1.94,1.94,0,0,0,.16-.48H7.44l.41.61c.18.25.35.51.53.77s0,.41.09.61a.76.76,0,0,0,.17.35.18.18,0,0,0,.06.16C8.76,22.35,8.84,22.29,8.83,22.44Z" transform="translate(0)"/><path class="cls-2" d="M8.7,22.3c-.06-.05,0-.11-.06-.16a.76.76,0,0,1-.17-.35,1.4,1.4,0,0,0-.09-.61,8.4,8.4,0,0,0-.53-.77c-.18-.25-.25-.37-.37-.55H1.87a3.52,3.52,0,0,1-.15.42c0,.09.29.28.38.3a2,2,0,0,1,.74.27.51.51,0,0,1,.33.39.42.42,0,0,0,.29.21c.33.09.57.14.51.55.38,0,.69.6.87.89a1.2,1.2,0,0,1,.14.67,2.35,2.35,0,0,0,0,.53L7,24.31a3.08,3.08,0,0,0,.68.08c.43,0,.18-.3.1-.5a1.8,1.8,0,0,1-.09-.45c.31,0,.41-.09.49-.41s.28-.76.57-.59C8.84,22.29,8.8,22.37,8.7,22.3Z" transform="translate(0)"/></svg>