<svg xmlns="http://www.w3.org/2000/svg" width="113.61" height="113.61" viewBox="0 0 113.61 113.61">
  <path id="Path_1855" data-name="Path 1855" d="M950.058,934.855l12.574-28.246a4.979,4.979,0,0,1,9.2.24l11.081,28.864a4.98,4.98,0,0,0,6.433,2.864h0a4.98,4.98,0,0,0,2.864-6.433l-11.081-28.863a4.98,4.98,0,0,1,6.674-6.334l28.244,12.574a4.979,4.979,0,0,0,6.574-2.524h0a4.98,4.98,0,0,0-2.524-6.574l-28.247-12.574a4.979,4.979,0,0,1,.24-9.2l28.865-11.082a4.979,4.979,0,0,0,2.864-6.433h0a4.979,4.979,0,0,0-6.433-2.863l-28.864,11.081a4.979,4.979,0,0,1-6.333-6.674l12.573-28.245a4.978,4.978,0,0,0-2.524-6.574h0a4.98,4.98,0,0,0-6.574,2.524L973.089,858.63a4.979,4.979,0,0,1-9.2-.24L952.81,829.526a4.979,4.979,0,0,0-6.433-2.864h0a4.979,4.979,0,0,0-2.863,6.433L954.6,861.96a4.979,4.979,0,0,1-6.674,6.333l-28.247-12.575a4.98,4.98,0,0,0-6.574,2.524h0a4.979,4.979,0,0,0,2.524,6.574l28.246,12.573a4.979,4.979,0,0,1-.24,9.2L914.767,897.67A4.979,4.979,0,0,0,911.9,904.1h0a4.98,4.98,0,0,0,6.433,2.864L947.2,895.885a4.979,4.979,0,0,1,6.333,6.674L940.96,930.8a4.978,4.978,0,0,0,2.524,6.573h0A4.979,4.979,0,0,0,950.058,934.855Z" transform="translate(-911.056 -825.815)" fill="#fff460" stroke="#000" stroke-miterlimit="10" stroke-width="1"/>
</svg>
