<svg xmlns="http://www.w3.org/2000/svg" width="76.334" height="65.309" viewBox="0 0 76.334 65.309">
  <g id="Group_1868" data-name="Group 1868" transform="translate(-728.033 -1986.45)">
    <path id="Path_1257" data-name="Path 1257" d="M1220.812,106.707c.14,0,.281-.015.423-.015h-.847c-9.685-.541-15.824-10.351-16.328-19.76v-1.25c0,.307-.007.617-.018.928-.012-.31-.019-.62-.019-.928v1.25c-.505,9.409-6.643,19.22-16.33,19.76h-.844c.141,0,.28.01.422.015-.142,0-.281.015-.422.015h.844c9.688.541,15.825,10.351,16.33,19.76v1.25c0-.307.006-.617.017-.928.013.31.02.621.02.928v-1.25c.5-9.409,6.642-19.22,16.328-19.76h.847C1221.093,106.721,1220.951,106.709,1220.812,106.707Z" transform="translate(-442.954 1901.318)" fill="#9ef3f3" stroke="#231f20" stroke-linecap="round" stroke-linejoin="round" stroke-width="1.1"/>
    <path id="Path_1258" data-name="Path 1258" d="M1207.654,98.561c.086,0,.172-.009.259-.009h-.519c-5.933-.331-9.694-6.341-10-12.1v-.766c0,.188,0,.378-.011.568-.008-.19-.011-.38-.011-.568v.766c-.31,5.764-4.069,11.774-10,12.1h-.517c.087,0,.172.006.259.009-.087,0-.172.009-.259.009h.517c5.935.331,9.694,6.341,10,12.1v.766c0-.188,0-.378.01-.568.008.19.012.38.012.568v-.766c.308-5.764,4.069-11.774,10-12.1h.519C1207.826,98.57,1207.739,98.563,1207.654,98.561Z" transform="translate(-404.095 1932.949)" fill="#9ef3f3" stroke="#231f20" stroke-linecap="round" stroke-linejoin="round" stroke-width="1.1"/>
    <path id="Path_1259" data-name="Path 1259" d="M1207.654,98.561c.086,0,.172-.009.259-.009h-.519c-5.933-.331-9.694-6.341-10-12.1v-.766c0,.188,0,.378-.011.568-.008-.19-.011-.38-.011-.568v.766c-.31,5.764-4.069,11.774-10,12.1h-.517c.087,0,.172.006.259.009-.087,0-.172.009-.259.009h.517c5.935.331,9.694,6.341,10,12.1v.766c0-.188,0-.378.01-.568.008.19.012.38.012.568v-.766c.308-5.764,4.069-11.774,10-12.1h.519C1207.826,98.57,1207.739,98.563,1207.654,98.561Z" transform="translate(-458.265 1939.768)" fill="#9ef3f3" stroke="#231f20" stroke-linecap="round" stroke-linejoin="round" stroke-width="1.1"/>
  </g>
</svg>
