<svg xmlns="http://www.w3.org/2000/svg" width="21.127" height="20.446" viewBox="0 0 21.127 20.446">
  <g id="Group_1888" data-name="Group 1888" transform="translate(0 -1)">
    <path id="Path_1439" data-name="Path 1439" d="M20.889,1.164a.682.682,0,0,0-.665-.126L.459,7.853A.682.682,0,0,0,.273,9.042L4.487,12.2l7.534-4.388L6.134,13.438v7.327a.682.682,0,0,0,.4.62.67.67,0,0,0,.281.061.682.682,0,0,0,.449-.168l4.3-3.765,5.062,3.8a.682.682,0,0,0,1.08-.425L21.117,1.8a.682.682,0,0,0-.228-.638Z"/>
  </g>
</svg>
