<svg xmlns="http://www.w3.org/2000/svg" width="127.534" height="127.533" viewBox="0 0 127.534 127.533">
  <path id="Path_1314" data-name="Path 1314" d="M1346.219,1044.626v-32.892a5.3,5.3,0,0,1,9.043-3.745l23.258,23.258a5.3,5.3,0,0,0,7.491,0h0a5.3,5.3,0,0,0,0-7.491l-23.257-23.258a5.3,5.3,0,0,1,3.745-9.043h32.892a5.3,5.3,0,0,0,5.3-5.3h0a5.3,5.3,0,0,0-5.3-5.3H1366.5a5.3,5.3,0,0,1-3.745-9.042l23.259-23.26a5.3,5.3,0,0,0,0-7.492h0a5.3,5.3,0,0,0-7.491,0l-23.258,23.259a5.3,5.3,0,0,1-9.043-3.746V927.687a5.3,5.3,0,0,0-5.3-5.3h0a5.3,5.3,0,0,0-5.3,5.3v32.892a5.3,5.3,0,0,1-9.042,3.746l-23.259-23.259a5.3,5.3,0,0,0-7.491,0h0a5.3,5.3,0,0,0,0,7.492l23.26,23.26a5.3,5.3,0,0,1-3.746,9.042h-32.893a5.3,5.3,0,0,0-5.3,5.3h0a5.3,5.3,0,0,0,5.3,5.3h32.891a5.3,5.3,0,0,1,3.746,9.043l-23.258,23.258a5.3,5.3,0,0,0,0,7.491h0a5.3,5.3,0,0,0,7.491,0l23.259-23.258a5.3,5.3,0,0,1,9.042,3.745v32.892a5.3,5.3,0,0,0,5.3,5.3h0A5.3,5.3,0,0,0,1346.219,1044.626Z" transform="translate(-1277.155 -922.39)" fill="#ffb4ce"/>
</svg>
