<svg xmlns="http://www.w3.org/2000/svg" width="271.655" height="186.904" viewBox="0 0 271.655 186.904">
  <path id="Path_1429" data-name="Path 1429" d="M324.332,952.953c-.008-.146-.011-.3-.019-.45l-.006-.126c-.138-3.458-1.342-4.086-4.477-3.678-14.995,1.955-29.222,5.953-41.6,15.076-1.723,1.269-2.917,1.237-4.779-.014-14.266-9.6-29.5-12.145-45.8-5.706a4.717,4.717,0,0,1-5.323-.816,41.929,41.929,0,0,0-26.561-9.076c-16.524-.061-30.882,6.017-43.9,15.708-2.014,1.5-3.313,1.726-5.73.467-13.071-6.8-25.771-6.037-38.2,2.183-13.547,8.962-22.967,21.133-29.514,35.81-1.486,3.335-3.127,6.6-4.768,9.868-.884,1.762-1.768,3.521-2.628,5.291l-.055.115c-.484.991-.894,1.831.581,2.782,8.088,5.22,9.778,4.762,13.335-4.013.07-.17.133-.345.195-.521a6.361,6.361,0,0,1,.389-.936c1.361-2.521,2.631-5.093,3.9-7.665,3.289-6.665,6.578-13.33,11.489-19.092,3.217-3.778,7.13-6.694,11.018-9.594l.016-.013c.274-.2.546-.406.819-.61,7.234-5.406,15.151-7.986,24.257-4.65,2.676.978,2.6,1.494.838,3.409-9.958,10.806-16.308,23.621-20.222,37.66-1.983,7.122-2.062,14.169,2.258,20.753,6.077,9.259,22.4,8.732,30.163.565,13.1-13.782,17.336-37.1,9.642-55.337-2.393-5.672-2.391-5.673,2.859-9.272l.037-.027c11.884-8.154,24.935-11.855,39.344-10.24a20.932,20.932,0,0,1,11.682,4.889c-.13.154-.239.3-.339.425a3.618,3.618,0,0,1-.535.6q-24.566,20.291-27.065,52.055a16.267,16.267,0,0,0,19.9,17.406,27.208,27.208,0,0,0,14.649-8.6c14.519-16,19.294-34.365,12.542-55.161-1.091-3.361.047-3.906,2.775-4.54a40.652,40.652,0,0,1,27.113,3.062l.078.037c4.4,2.052,4.408,2.054,1.225,6.061-8.931,11.245-15.475,23.6-17.424,38.04-1.164,8.62,3.281,17.025,10.51,18.877,9.052,2.317,16.661-.685,23.062-7.339,11.061-11.493,12.978-33.159,4.906-48.591-1.678-3.206-.84-4.473,1.79-6.1,9.527-5.9,20.041-8.95,30.925-10.861l.406-.072c3.2-.56,4.83-.847,5.622-1.813C324.541,958.178,324.473,956.454,324.332,952.953Zm-174.492,57.8c-1.241,5.076-2.758,10.135-6.429,14.132a23.692,23.692,0,0,1-4.007,3.7,8.477,8.477,0,0,1-8.96.356c-2.329-1.185-2.069-3.435-1.833-5.479.033-.288.064-.568.089-.844,1.141-12.64,6.667-23.458,14.191-33.4,1.177-1.551,2.435-3.042,3.693-4.529l.273-.324a2.1,2.1,0,0,1,.67-.448c.149-.079.318-.165.5-.271C152.277,992.495,152.079,1001.588,149.84,1010.749Zm70.62-5.813c-2.886,7.947-6.942,14.951-15.089,18.651-4.978,2.262-7.818.828-7.631-4.559.324-9.313,3.584-17.9,8.04-25.989a58.187,58.187,0,0,1,12.7-15.792c2.779-2.438,3.5-1.406,4.051,1.439A47.754,47.754,0,0,1,220.46,1004.936Zm52.546,11.414c-2.445,3.974-6.083,6.752-11.369,6.051-2.076-.273-2.87-1.342-3.128-3.283a19.459,19.459,0,0,1,.95-7.591c.043-.162.085-.323.127-.486a63.742,63.742,0,0,1,15.2-27.891C278.953,994.939,279.421,1005.92,273.006,1016.35Z" transform="matrix(-0.921, -0.391, 0.391, -0.921, -71.169, 1086.567)" fill="#ff6541" stroke="#231f20" stroke-linecap="round" stroke-linejoin="round" stroke-width="1.1"/>
</svg>
