<svg xmlns="http://www.w3.org/2000/svg" width="447.83" height="487.862" viewBox="0 0 447.83 487.862">
  <g id="Group_1774" data-name="Group 1774" transform="matrix(0.996, -0.087, 0.087, 0.996, -1477.358, -1574.424)">
    <path id="Path_1172" data-name="Path 1172" d="M1737.156,1754.7l11.42,16.855c3.306,4.878,6.679,9.91,7.952,15.663,1.258,5.681.381,11.738,2.132,17.287,3.908,12.384,19.154,17.942,24.394,29.823,2.566,5.815,2.392,12.4,2.917,18.736s2.1,13.136,7.013,17.167a28.979,28.979,0,0,1-15.316,5.658c-7.088.468-14.06-1.676-20.839-3.8L1704.2,1855.6c-5.828-1.826-12.067-3.938-15.633-8.9-2.631-3.66-3.371-8.306-4.037-12.764l-2.83-18.956c-.854-5.717-1.708-11.443-2.057-17.214a99.007,99.007,0,0,1,3.2-31.575c1.386-5.169,3.291-10.386,6.959-14.28,4.389-4.663,10.874-6.9,17.259-7.39,6.227-.477,12.3,1,18.5.712C1731.061,1744.976,1734.409,1750.649,1737.156,1754.7Z" transform="translate(-77.588 -5.194)" fill="#f6f6f6" style="isolation: isolate"/>
    <path id="Path_1173" data-name="Path 1173" d="M1737.156,1754.7l11.42,16.855c3.306,4.878,6.679,9.91,7.952,15.663,1.258,5.681.381,11.738,2.132,17.287,3.908,12.384,19.154,17.942,24.394,29.823,2.566,5.815,2.392,12.4,2.917,18.736s2.1,13.136,7.013,17.167a28.979,28.979,0,0,1-15.316,5.658c-7.088.468-14.06-1.676-20.839-3.8L1704.2,1855.6c-5.828-1.826-12.067-3.938-15.633-8.9-2.631-3.66-3.371-8.306-4.037-12.764l-2.83-18.956c-.854-5.717-1.708-11.443-2.057-17.214a99.007,99.007,0,0,1,3.2-31.575c1.386-5.169,3.291-10.386,6.959-14.28,4.389-4.663,10.874-6.9,17.259-7.39,6.227-.477,12.3,1,18.5.712C1731.061,1744.976,1734.409,1750.649,1737.156,1754.7Z" transform="translate(-77.588 -5.194)" fill="none" stroke="#1b1f26" stroke-linecap="round" stroke-linejoin="round" stroke-width="1.3"/>
    <g id="Group_1773" data-name="Group 1773" transform="translate(1326.29 1720.789)">
      <path id="Path_1174" data-name="Path 1174" d="M1700.448,1802.408c4.26.02,2.062-2.332,1.971-10.235a27.9,27.9,0,0,0,25.594-13.23,6.851,6.851,0,1,0-1.1-12.1,22.677,22.677,0,0,0-6.485-17.044,28.778,28.778,0,0,0-16.543-8.159,33.476,33.476,0,0,0-24.433,6.147c-6.925,5.125-10.589,13.709-11.9,22.226a5.306,5.306,0,0,0-6.711,8.185,6.676,6.676,0,0,0,4.438,1.711,12.48,12.48,0,0,0,4.711-.563,23.273,23.273,0,0,0,20.465,12.558l-.595,12.04S1697.445,1802.395,1700.448,1802.408Z" transform="translate(-1399.425 -1725.297)" fill="#ffb4ce" stroke="#1b1f26" stroke-linecap="round" stroke-linejoin="round" stroke-width="1.3"/>
      <path id="Path_1175" data-name="Path 1175" d="M1700.294,1799.646a5.921,5.921,0,0,0,9.651-2.113" transform="translate(-1408.455 -1737.649)" fill="none" stroke="#1b1f26" stroke-linecap="round" stroke-linejoin="round" stroke-width="1.3"/>
      <path id="Path_1176" data-name="Path 1176" d="M1728.72,1761.18c-.166-2.263-1.5-4.146-2.442-6.154a25.581,25.581,0,0,0-6.715-8.6,19.09,19.09,0,0,0-4.588-2.926,47.735,47.735,0,0,0-5.592-1.853,18.02,18.02,0,0,0-5.422-.885c-1.813.008-3.621.148-5.427.277a20.391,20.391,0,0,0-5.823,1.105,12.23,12.23,0,0,1-2.81.771l-.119.047a4.359,4.359,0,0,0-.645.186c-.221.078-.434.174-.647.265l-.2.083a.819.819,0,0,0-.223.078l-.078.044-.024.017a28.776,28.776,0,0,0-13.258,10.925,10.773,10.773,0,0,1-.638,1.459,5.277,5.277,0,0,1-.708.945c-.114.279-.234.555-.354.831l-.059.129a1.1,1.1,0,0,0-.051.13s-.141.322-.189.426a4.41,4.41,0,0,0-.572,1.142l-.093.187c-.048.1-.094.193-.144.286a1.2,1.2,0,0,0-.117.307l-.089.037c-.059.024-.13.053-.205.089-.09.2-.19.4-.3.594-.065.13-.132.257-.2.381-.089.162-.182.323-.272.483-.092.2-.19.39-.289.588l0,.009v.078a.321.321,0,0,1-.014.09c-.008.01-.015.021-.022.032a1.209,1.209,0,0,0-.253.775,1.616,1.616,0,0,0,.021.273.952.952,0,0,0-.3.738,1.046,1.046,0,0,0,.645.816,1.128,1.128,0,0,0,.592.7,1.12,1.12,0,0,0,.107.127,1.186,1.186,0,0,0,.841.341,1.224,1.224,0,0,0,.764-.26,14.394,14.394,0,0,0,2.474.215,14.229,14.229,0,0,0,3.208-.366,1.1,1.1,0,0,0,.246-.087c.4.033.8.048,1.2.051a1.307,1.307,0,0,1,.195-.209,4.963,4.963,0,0,1,2.761-1.026,11.508,11.508,0,0,0,3.232-1.17,50.025,50.025,0,0,0,6.26-3.241,18.648,18.648,0,0,0,4.935-4.588,28.535,28.535,0,0,0,1.706-2.965c.445-.816,1.27-1.65,1.274-2.615a1.17,1.17,0,0,1,2.341,0,4.036,4.036,0,0,0,.574,1.554,11.99,11.99,0,0,1,.546,1.561,7.755,7.755,0,0,0,1.634,3.219,54.732,54.732,0,0,0,5.32,5.012c1.886,1.592,3.979,2.117,6.282,2.846,1.165.37,2.256.976,3.451,1.244,1.255.282,2.545.357,3.8.648a1.057,1.057,0,0,1,.648.417c.1-.006.2-.006.3-.016a4.618,4.618,0,0,0,1.529.259,4.686,4.686,0,0,0,.611-.041,1.2,1.2,0,0,0,.836.352,1.075,1.075,0,0,0,.78-.339.966.966,0,0,0,.121-.053A43.956,43.956,0,0,1,1728.72,1761.18Z" transform="translate(-1401.771 -1725.177)" fill="#ffb4ce"/>
      <path id="Path_1177" data-name="Path 1177" d="M1729.32,1765.429q-.105-.33-.212-.662.021-.7.04-1.4a.347.347,0,0,0-.268-.365c-.017-.156-.036-.312-.058-.464a.366.366,0,0,0,.078-.329q-.1-.468-.226-.936a.321.321,0,0,0,.078-.327c-.133-.414-.279-.823-.433-1.228a.439.439,0,0,0,0-.078c-.016-.083-.041-.165-.059-.248a.317.317,0,0,0,.092-.361,13.25,13.25,0,0,0-.872-2c-.136-.3-.282-.587-.441-.871a.353.353,0,0,0-.166-.148c-.044-.066-.083-.136-.129-.2a.417.417,0,0,0,.031-.554l-1.3-1.651a.394.394,0,0,0,.019-.546c-.349-.405-.712-.8-1.083-1.178l-1.01-1.1a.318.318,0,0,0,.007-.39c-.02-.029-.043-.055-.064-.083h0l-.008-.008a8.457,8.457,0,0,0-1.677-1.727c-2.523-2.517-5.336-4.832-8.917-5.526-.263-.051-1.266-1.026-1.287-.81-3.445-1.55-6.5-1.152-10.5-.955-.546.027-1.8-.408-2.222-.2a9.209,9.209,0,0,0-2.653.278c-.573-.123-1.023.606-1.742.851-1.391.473-2.758,1-4.106,1.561a3.755,3.755,0,0,0-.6.168c-.331.124-.643.269-.966.4l-.007-.017-.172.091a27.828,27.828,0,0,0-13.05,10.835c-.312.486-1.107.415-1.189.882-.163-.009.285.615.209.807-.169.443-.361.876-.551,1.31l-.04.078c-.005.016-.01.033-.014.049-.078.184-.161.37-.246.552a3.635,3.635,0,0,0-.525,1.043c-.1.183-.179.371-.278.552a.378.378,0,0,0-.038.277c-.215.473-.956.367-1.112.865-.007.022-.75.546-.089.676-.226.405-.058.3-.2.748-.04.13-.286.375-.214.463-.048.136.083.468.035.606s-.383.325-.321.41c-.041.123.659.321.617.445a.375.375,0,0,0,.411.479c-.006.378.535.438.724.161.034-.05.06-.1.093-.156.016.007.026.018.044.024a.62.62,0,0,0,.287.033,13.476,13.476,0,0,0,5.491-.12.354.354,0,0,0,.2-.131c6.877.715,13.812-3.465,18.777-8.875a.911.911,0,0,1,.142-.924,13.38,13.38,0,0,0,1.62-2.929c.218-.507.427-1.019.659-1.52a5.265,5.265,0,0,1,.338-.662,3.5,3.5,0,0,1,.24-.319q.225-.224,0-.051c.16-1.182,2-1.047,2.258,0a18.69,18.69,0,0,0,1.759,4.646,32.7,32.7,0,0,0,2.949,3.941,29.764,29.764,0,0,0,2.741,3.107,29,29,0,0,0,12.845,4.36,2.845,2.845,0,0,0,1.241-.147.376.376,0,0,0,.281.147,5.457,5.457,0,0,0,.931-.045,3.881,3.881,0,0,0,2.46.138c-.02.382.522.654.706.246.019-.109.078-.145.184-.109.325.035.435-.277.346-.52A.388.388,0,0,0,1729.32,1765.429Z" transform="translate(-1401.989 -1725.233)" fill="#fff460"/>
      <g id="Group_1740" data-name="Group 1740" transform="translate(279.658 45.149)">
        <path id="Path_1178" data-name="Path 1178" d="M1688.509,1786.3a3.826,3.826,0,0,1,0-7.653h6.782a3.826,3.826,0,1,1,0,7.653Z" transform="translate(-1684.683 -1778.649)" fill="#1b1f26"/>
        <rect id="Rectangle_76" data-name="Rectangle 76" width="12.552" height="5.77" rx="2.885" transform="translate(0.941 0.941)" fill="#fff"/>
        <path id="Path_1179" data-name="Path 1179" d="M1700.482,1782.74h0a2.887,2.887,0,0,1-2.887,2.887h-2.428v-5.77h2.428A2.887,2.887,0,0,1,1700.482,1782.74Z" transform="translate(-1686.986 -1778.914)" fill="#1b1f26"/>
        <path id="Path_1180" data-name="Path 1180" d="M1710.41,1786.3a3.826,3.826,0,0,1,0-7.653h6.782a3.826,3.826,0,1,1,0,7.653Z" transform="translate(-1689.494 -1778.649)" fill="#1b1f26"/>
        <rect id="Rectangle_77" data-name="Rectangle 77" width="12.552" height="5.77" rx="2.885" transform="translate(18.031 0.941)" fill="#fff"/>
        <path id="Path_1181" data-name="Path 1181" d="M1722.381,1782.74h0a2.887,2.887,0,0,1-2.887,2.887h-2.428v-5.77h2.428A2.887,2.887,0,0,1,1722.381,1782.74Z" transform="translate(-1691.797 -1778.914)" fill="#1b1f26"/>
      </g>
      <path id="Path_1182" data-name="Path 1182" d="M1653,1847.469c-.726.726-1.588,1.333-2.37,1.986-.358.3-.722.591-1.081.888-1.488,2.295-3.2,4.43-4.838,6.619-.043.058-.087.11-.13.167a6.039,6.039,0,0,1-.715,1.384,58.835,58.835,0,0,0-7.017,13.931,9.615,9.615,0,0,1-1.1,2.161c1.917,1.568,5.7,1.1,6.563-1.809q1.26-4.226,2.843-8.3,2.274-5.253,4.687-10.445a4.415,4.415,0,0,0,.307-.9q.912-1.22,1.916-2.374A3.853,3.853,0,0,0,1653,1847.469Z" transform="translate(-1394.273 -1748.619)" fill="#f6f6f6"/>
      <path id="Path_1183" data-name="Path 1183" d="M1505.589,1827.367c2.154-2.258,1.446-6.6-2.482-6.633l-9.782-.078c-3.319-.027-4.863,4.116-3.283,6.346q-1.074.747-2.107,1.543-1.669-.377-3.33-.78a4.022,4.022,0,0,0-4.582-1.163q-5.6-1.486-11.125-3.27a3.605,3.605,0,0,0-.862-.792,3.351,3.351,0,0,0-1.749-1.1,9.972,9.972,0,0,0-5.022-.05c-3.579.846-3.667,5.249-1.093,7.04a3.643,3.643,0,0,0,2.723,3.672l-.454.036c-1.022,2.453,1.195,4.63,3.5,4.9a4.164,4.164,0,0,0,1.435.944,4.021,4.021,0,0,0,.24,2.537l4.175,9.825,1.24,4.037a4.068,4.068,0,0,0,1.29,1.995q.691,2.16,1.445,4.3a3.778,3.778,0,0,0,.839,1.346c.5,1.43,1.007,2.857,1.549,4.275.018.047.044.083.063.13l.04.138c.047.161.1.318.165.473.058.468.1.936.123,1.41a4.022,4.022,0,0,0-.624,2.777c.453,3.029,7.158,54.238,7.61,57.267.418,2.8,13.771,2.282,15.589.058,3.771-4.612-11.292-56.495-9.95-62.1.546-2.29,1.181-4.556,1.865-6.807q1.99-5.852,3.908-11.723a3.628,3.628,0,0,0,.033-2.373q1.505-4.544,3.164-9.04C1502.678,1833.978,1505.492,1830.752,1505.589,1827.367Z" transform="translate(-1355.311 -1742.729)" fill="#fff"/>
      <g id="Group_1759" data-name="Group 1759" transform="translate(71.42 181.603)">
        <g id="Group_1749" data-name="Group 1749" transform="translate(73.786 4.007)">
          <g id="Group_1748" data-name="Group 1748">
            <path id="Path_1184" data-name="Path 1184" d="M1557.558,2281.654l3.248-49.446-38.746-1.649-.021,52.369Z" transform="translate(-1514.5 -2018.389)" fill="#ffb4ce"/>
            <g id="Group_1747" data-name="Group 1747" transform="translate(6.126 263.186)">
              <path id="Path_1185" data-name="Path 1185" d="M1582.446,2317.365l-62.217,2.231,1.412-22.306,37.719-1.352-.644,11.151C1573.8,2306.335,1581.093,2310.119,1582.446,2317.365Z" transform="translate(-1520.229 -2295.938)"/>
              <g id="Group_1741" data-name="Group 1741" transform="translate(41.188 11.288)">
                <path id="Path_1186" data-name="Path 1186" d="M1573.142,2316.015c.279.047.742-1.312,1.657-2.809.9-1.5,1.906-2.586,1.717-2.777-.162-.187-1.584.687-2.575,2.341S1572.884,2315.988,1573.142,2316.015Z" transform="translate(-1573.013 -2310.404)" fill="#f6f6f6"/>
              </g>
              <g id="Group_1742" data-name="Group 1742" transform="translate(34.621 10.761)">
                <path id="Path_1187" data-name="Path 1187" d="M1564.709,2315.024c.277.056.789-1.287,1.842-2.691,1.032-1.418,2.2-2.353,2.041-2.568-.126-.208-1.7.48-2.856,2.063S1564.453,2314.993,1564.709,2315.024Z" transform="translate(-1564.598 -2309.729)" fill="#f6f6f6"/>
              </g>
              <g id="Group_1743" data-name="Group 1743" transform="translate(29.85 7.911)">
                <path id="Path_1188" data-name="Path 1188" d="M1558.5,2308.224c.175.21,1.772-.755,4.015-1.131,2.235-.412,4.115-.058,4.19-.312.11-.213-1.866-1.023-4.379-.569C1559.806,2306.644,1558.309,2308.068,1558.5,2308.224Z" transform="translate(-1558.482 -2306.076)" fill="#f6f6f6"/>
              </g>
              <g id="Group_1744" data-name="Group 1744" transform="translate(0.965 18.667)">
                <path id="Path_1189" data-name="Path 1189" d="M1521.466,2322.1c.012.248,13.434-.032,29.976-.624s29.948-1.275,29.937-1.523-13.431.032-29.979.624S1521.454,2321.852,1521.466,2322.1Z" transform="translate(-1521.466 -2319.861)" fill="#1b1f26"/>
              </g>
              <g id="Group_1745" data-name="Group 1745" transform="translate(5.197 1.515)">
                <path id="Path_1190" data-name="Path 1190" d="M1526.982,2306.083c.253.071,1.048-1.688,1.463-3.99s.295-4.2.03-4.214-.586,1.823-1,4.063S1526.716,2306.011,1526.982,2306.083Z" transform="translate(-1526.889 -2297.879)" fill="#1b1f26"/>
              </g>
              <g id="Group_1746" data-name="Group 1746" transform="translate(46.805 12.27)">
                <path id="Path_1191" data-name="Path 1191" d="M1580.6,2318.624c.281-.011.033-2.129,1.513-4.1,1.463-1.981,3.706-2.542,3.615-2.785-.025-.112-.624-.139-1.526.166a6.2,6.2,0,0,0-2.9,2.112,5.373,5.373,0,0,0-1.092,3.244C1580.234,2318.139,1580.482,2318.644,1580.6,2318.624Z" transform="translate(-1580.212 -2311.662)" fill="#1b1f26"/>
              </g>
            </g>
            <path id="Path_1192" data-name="Path 1192" d="M1556.07,1960.986c-2.96-5.731-37.7.911-37.7.911l-5.987,267.746,60.245-7.515S1565.009,1978.289,1556.07,1960.986Z" transform="translate(-1512.378 -1958.655)"/>
          </g>
        </g>
        <g id="Group_1758" data-name="Group 1758" transform="translate(0 4.377)">
          <g id="Group_1757" data-name="Group 1757">
            <path id="Path_1193" data-name="Path 1193" d="M1466.792,2281.654l3.248-49.446-38.746-1.649-.021,52.369Z" transform="translate(-1420.774 -2018.759)" fill="#ffb4ce"/>
            <g id="Group_1756" data-name="Group 1756" transform="translate(9.087 262.816)">
              <path id="Path_1194" data-name="Path 1194" d="M1491.68,2317.365l-62.217,2.231,1.412-22.306,37.719-1.352-.644,11.151C1483.033,2306.335,1490.327,2310.119,1491.68,2317.365Z" transform="translate(-1429.463 -2295.938)"/>
              <g id="Group_1750" data-name="Group 1750" transform="translate(41.187 11.288)">
                <path id="Path_1195" data-name="Path 1195" d="M1482.375,2316.015c.278.047.742-1.312,1.657-2.809.9-1.5,1.906-2.586,1.717-2.777-.162-.187-1.584.687-2.575,2.341S1482.115,2315.988,1482.375,2316.015Z" transform="translate(-1482.245 -2310.404)" fill="#f6f6f6"/>
              </g>
              <g id="Group_1751" data-name="Group 1751" transform="translate(34.623 10.761)">
                <path id="Path_1196" data-name="Path 1196" d="M1473.946,2315.024c.277.056.789-1.287,1.842-2.691,1.032-1.418,2.2-2.353,2.041-2.568-.126-.208-1.7.48-2.856,2.063S1473.687,2314.993,1473.946,2315.024Z" transform="translate(-1473.833 -2309.729)" fill="#f6f6f6"/>
              </g>
              <g id="Group_1752" data-name="Group 1752" transform="translate(29.85 7.911)">
                <path id="Path_1197" data-name="Path 1197" d="M1467.732,2308.224c.175.21,1.772-.755,4.015-1.131,2.236-.412,4.115-.058,4.19-.312.11-.213-1.866-1.023-4.379-.569C1469.043,2306.644,1467.543,2308.068,1467.732,2308.224Z" transform="translate(-1467.716 -2306.076)" fill="#f6f6f6"/>
              </g>
              <g id="Group_1753" data-name="Group 1753" transform="translate(0.965 18.667)">
                <path id="Path_1198" data-name="Path 1198" d="M1430.7,2322.1c.012.248,13.434-.032,29.976-.624s29.948-1.275,29.938-1.523-13.432.032-29.979.624S1430.688,2321.852,1430.7,2322.1Z" transform="translate(-1430.7 -2319.861)" fill="#1b1f26"/>
              </g>
              <g id="Group_1754" data-name="Group 1754" transform="translate(5.197 1.515)">
                <path id="Path_1199" data-name="Path 1199" d="M1436.216,2306.083c.254.071,1.048-1.688,1.463-3.99s.3-4.2.03-4.214-.586,1.823-1,4.063S1435.95,2306.011,1436.216,2306.083Z" transform="translate(-1436.123 -2297.879)" fill="#1b1f26"/>
              </g>
              <g id="Group_1755" data-name="Group 1755" transform="translate(46.805 12.27)">
                <path id="Path_1200" data-name="Path 1200" d="M1489.838,2318.624c.281-.011.033-2.129,1.513-4.1,1.463-1.981,3.706-2.542,3.615-2.785-.025-.112-.624-.139-1.526.166a6.2,6.2,0,0,0-2.9,2.112,5.376,5.376,0,0,0-1.092,3.244C1489.471,2318.139,1489.716,2318.644,1489.838,2318.624Z" transform="translate(-1489.446 -2311.662)" fill="#1b1f26"/>
              </g>
            </g>
            <path id="Path_1201" data-name="Path 1201" d="M1486.18,1962l-48.62-2.872-19.742,268.427,63.205-5.33Z" transform="translate(-1417.818 -1959.129)"/>
          </g>
        </g>
        <path id="Path_1202" data-name="Path 1202" d="M1443.118,1957.9s58.684,4.767,96.525-4.377l3.6,31.689-68.086,2.115Z" transform="translate(-1423.376 -1953.52)"/>
      </g>
      <path id="Path_1203" data-name="Path 1203" d="M1601.365,1901.313a183.927,183.927,0,0,1-22.1-7.2,4.015,4.015,0,0,1-2.9-.127c-6.489-2.55-12.816-2.666-18.258-7.543a43.218,43.218,0,0,1-11.111-13.784l-.16-.234a64.868,64.868,0,0,0-4.448-4.908,54.713,54.713,0,0,1-9.847-12.251c-1.142-.992-2.287-1.981-3.443-2.957-.119-.26-.257-.5-.382-.759-.06-.062-.121-.122-.179-.19q-1.626-1.934-3.213-3.9a100.408,100.408,0,0,0-12.387-11.062c-4.559-3.619-10.006-5.575-14.786-8.74a4.318,4.318,0,0,0-1.373.433c-1.593-.84-3.216-1.633-4.876-2.365-1.025-.452-1.765-1.226-2.644-.945-1.663-.78-3.6-.751-5.3-1.464a14.008,14.008,0,0,1-1.754-.556,1.945,1.945,0,0,0-.2-.06.194.194,0,0,1-.03-.008,1.986,1.986,0,0,0-.29-.023,13.286,13.286,0,0,1-1.574-.178c-.459-.09-.912-.211-1.367-.317-.216-.051-.433-.1-.651-.144-.109-.022-.217-.041-.325-.06-.078-.012-.39-.053-.042-.01a2.117,2.117,0,0,1-.725-.222l-.019.009a4.212,4.212,0,0,0-3.247.828,11,11,0,0,1-.513,1.445,8.846,8.846,0,0,0-.339,1.022,1.218,1.218,0,0,1-.063.518c-.06.161-.123.32-.183.481-.1.438-.19.877-.3,1.315-.347,1.4-.819,2.774-1.231,4.153s-.858,2.772-1.4,4.119a1.884,1.884,0,0,1-.68.886c-.517,2.193-1.015,4.391-1.548,6.577-1.106,4.509-2.447,8.945-3.746,13.4-1.151,3.937-1.553,8.014-3.295,11.756a5.221,5.221,0,0,1-.261.494,4.3,4.3,0,0,1-.828,2.012,23.224,23.224,0,0,1-1.01,3.911c-.3.889-.606,1.772-.881,2.668-.133.433-.257.867-.364,1.306-.052.212-.1.426-.142.641-.02.106-.052.731-.052.3a1.561,1.561,0,0,1-3.121,0v-.074l-.016-.078a6.961,6.961,0,0,1-.1-.753,1.448,1.448,0,0,1,.009-.162,1.14,1.14,0,0,1-.423-.713c-.02-.141-.036-.276-.054-.415h0v-.02c-.006-.044-.012-.088-.017-.133a21.825,21.825,0,0,1-1.135-3.68q-.506-1.458-.936-2.941a1.265,1.265,0,0,1-.434-.791c-.411-2.551-2-4.688-3.01-7.019a37.319,37.319,0,0,1-2.06-6.39c-1.123-2.555-2.312-5.077-3.468-7.623-2.166-4.772-4.227-9.594-5.99-14.524-.342-.633-.675-1.27-.97-1.929a32.015,32.015,0,0,1-1.593-6.156,5.512,5.512,0,0,1-.116-.724c-.175-.366-.347-.733-.529-1.092a7,7,0,0,0-2.143-2.745,34.727,34.727,0,0,1-4.711.794c-3.058.4-6.037,1.1-9.057,1.7-5.25,1.04-10.519,1.913-15.676,3.324-4.768,1.51-9.405,3.409-14.237,4.727-5.306,1.448-10.646,2.691-15.912,4.292q-16.41,4.978-32.534,10.835a4.552,4.552,0,0,1-1.022.247c-.134.093-.264.19-.4.283a4.457,4.457,0,0,1-1.327,2.372c-2.394,2.341-5.6,4.051-7.3,7.014a19.461,19.461,0,0,0-2.093,7.683c-.4,4,1.043,8.276.638,12.282a4.681,4.681,0,0,1,.8,1.258A83.532,83.532,0,0,0,1351,1908.447a108.652,108.652,0,0,0,14.891,10.69c1.964,1.126,4.207,2.185,6.184,3.526a57.731,57.731,0,0,1,6.842-6.876c1.219-1.382,2.49-2.71,3.792-4.005,4.3-4.726,8.428-9.6,12.682-14.369-2.965-1.014-5.657-3.341-8-5.167-1.581-1.233-3.121-2.506-4.752-3.672-1.4-1-2.833-1.973-4.224-2.992-.468-.346-3.706-3.027-2.741-3.027a4.778,4.778,0,0,1-4.553-4.418l-.432-.364c.133-.071.254-.156.385-.229a3.816,3.816,0,0,1,3.355-4.185l.323-.044a5.558,5.558,0,0,1,.932-.044l-.011-.078a6.145,6.145,0,0,1,.812.06l9.573-1.795a5.256,5.256,0,0,1,.926-.442c5.557-2.02,11.549-2.1,17.167-3.853a1.474,1.474,0,0,1,.624-.7,7.419,7.419,0,0,1,2.939-.6c.054-.01.107-.019.16-.03a3.344,3.344,0,0,1,1.157-.6,1.612,1.612,0,0,1,1.763.717,1.294,1.294,0,0,1,.162.385c.03-.014.063-.024.094-.038-.025.053-.044.111-.065.166a1.679,1.679,0,0,1-.247,1.12,3.834,3.834,0,0,0,0,.414q.717,14.633,1.435,29.268a4,4,0,0,0,.639,2.034q.091,1.919.183,3.841a3.85,3.85,0,0,0,1.535,3q.012,1.815.022,3.631a3.976,3.976,0,0,0-.268,1.639q.168,4.943.336,9.885a4.056,4.056,0,0,0,.461,1.788l.078,1.17a4.309,4.309,0,0,1,.818,1.784c.81,3.754.394,7.659,1,11.475a35.894,35.894,0,0,1,.835,7.38c12.727,3.41,27.514,2.47,36.519-8.344a36.633,36.633,0,0,0,7.482-15.974,44.378,44.378,0,0,0,46.553,22.935,26.7,26.7,0,0,0,3.98-.39,6.317,6.317,0,0,0,4.674-2.965,4.023,4.023,0,0,0-.63-4.7c-.323-1.045-.62-2.1-.9-3.174a4.649,4.649,0,0,1,.032-2.5,37.3,37.3,0,0,1-1.5-5.2c-.019-.052-.041-.1-.058-.156l.033,0c-.077-.41-.151-.819-.2-1.24-.011-.094-.013-.184-.02-.275-.429-1.047-.873-2.088-1.336-3.111a4.905,4.905,0,0,1-.443-2.341,44.116,44.116,0,0,1-1.073-4.769c-.39-1.65-.967-3.264-1.386-4.91-.4-1.569-.762-3.148-1.149-4.72-.259-1.056-.5-2.115-.734-3.173a1.509,1.509,0,0,1-.3-.573,53.94,53.94,0,0,1-1.451-6.164c-.084-.234-.161-.468-.234-.687a22.86,22.86,0,0,1-.676-2.542,34.506,34.506,0,0,1-.858-3.756c-.629-1.668-1.359-3.289-2.138-4.9-1.795-3.7.168-5.124,1.968-1.4.508,1.051,1.751,1.92,2.2,2.995a1.826,1.826,0,0,1,.8.959c.265.68.53,1.362.78,2.047a1.594,1.594,0,0,1,1.327,1.121,17.555,17.555,0,0,0,1.05,2.467c.027.031.057.059.083.093,1.8,2.366,4.068,4.37,5.632,6.923.8,1.306,1.315,2.785,2.21,4.034a19.136,19.136,0,0,1,2.484,3.476,1.8,1.8,0,0,1,.143.685c.223.21.455.413.7.609,1.034.827,2.658,2.082,2.846,3.546.023.019.045.035.069.054,1.522,1.262,2.91,2.7,4.325,4.08,2.941,2.868,6.04,5.586,9.2,8.208a41.133,41.133,0,0,0,10.482,6.538c1.084.449,2.154.879,3.2,1.333,2.939.346,6.179,1.789,8.771,2.879.429.181.843.368,1.253.551a4.9,4.9,0,0,1,1.38.058c2.132.39,4.237.894,6.345,1.39a12.5,12.5,0,0,1,2.107.488,5.115,5.115,0,0,1,1.673.881,57.7,57.7,0,0,0,10.078,2.107,92.343,92.343,0,0,0,9.789,1.042c.42.012.821.038,1.208.078.033-.066.072-.129.1-.2,3.788.456,7.569.9,11.314,1.4,3.087.42,5.756-1.17,5.926-4.515.39-7.641,1.193-15.4,1.175-23.046C1612.586,1904.649,1607.794,1902.961,1601.365,1901.313Zm-198.261-54a3.487,3.487,0,0,0-.168-.964c.214.324.439.637.661.953a4.4,4.4,0,0,0-.495.012Z" transform="translate(-1326.329 -1742.942)" fill="#ff6541"/>
      <path id="Path_1204" data-name="Path 1204" d="M1466.6,1802.865v-15.517c-7.2-.653-14.1-5.092-18.337-10.949a7.843,7.843,0,0,1-15.229-3.191,7.306,7.306,0,0,1,6.908-6.9,33.269,33.269,0,0,1,8.519-23.58,34.758,34.758,0,0,1,22.53-11.124,32.157,32.157,0,0,1,19.951,4.658,27.169,27.169,0,0,1,11.916,16.481,28.123,28.123,0,0,1-4.37,21.7c-4.24,6.293-10.828,10.768-17.972,13.339l.049,15.662" transform="translate(-1349.735 -1723.133)" fill="#ffb4ce" stroke="#1b1f26" stroke-linecap="round" stroke-linejoin="round" stroke-width="1.3"/>
      <path id="Path_1205" data-name="Path 1205" d="M1428.378,1737.724a7.17,7.17,0,0,1,6.583,2.5,9.16,9.16,0,0,1-.4-9.372,7.828,7.828,0,0,0,3.631,7.106,8.886,8.886,0,0,1,1.839-6.633,18.482,18.482,0,0,1,5.354-4.555,40.856,40.856,0,0,1,53.21,9.379,42.215,42.215,0,0,1-46.881,9.186,15.591,15.591,0,0,1-2.528,13.044,7.767,7.767,0,0,0-1.674,2.846c-.66,3.136,3.541,6.2,2.082,9.052a13.507,13.507,0,0,1-12.084-18.354,33.344,33.344,0,0,1-3.033-2.961,13.553,13.553,0,0,1-1.811-3.745C1431.74,1742.362,1430.1,1740.189,1428.378,1737.724Z" transform="translate(-1348.718 -1720.789)" fill="#fff460" stroke="#1b1f26" stroke-linecap="round" stroke-linejoin="round" stroke-width="1.3"/>
      <path id="Path_1206" data-name="Path 1206" d="M1484.326,1772.03a4.9,4.9,0,0,1,2.419-2.653,3.025,3.025,0,0,1,3.394.592,3.256,3.256,0,0,1,.675,2.6,8.257,8.257,0,0,1-.929,2.592,37.942,37.942,0,0,1-4.7,7.147,17.01,17.01,0,0,1-5.216-1.785,5.755,5.755,0,0,1-2.951-4.425c-.078-1.844,1.4-3.762,3.247-3.725,1.537.031,2.321,1.219,3.233,2.207A25.718,25.718,0,0,0,1484.326,1772.03Z" transform="translate(-1359.403 -1731.402)" fill="#ff6541" stroke="#1b1f26" stroke-linecap="round" stroke-linejoin="round" stroke-width="1.3"/>
      <path id="Path_1207" data-name="Path 1207" d="M1507.961,1770.371a4.582,4.582,0,0,1,2.751-2.535,2.993,2.993,0,0,1,3.367,1.214c.8,1.39.09,3.138-.724,4.516a30.618,30.618,0,0,1-5.825,7.135,12.91,12.91,0,0,1-4.5-2.892,4.406,4.406,0,0,1-.812-4.972,2.94,2.94,0,0,1,2.982-1.4,2.537,2.537,0,0,1,1.97,2.236A11.051,11.051,0,0,1,1507.961,1770.371Z" transform="translate(-1364.838 -1731.096)" fill="#ff6541" stroke="#1b1f26" stroke-linecap="round" stroke-linejoin="round" stroke-width="1.3"/>
      <path id="Path_1208" data-name="Path 1208" d="M1501.478,1761.876a5.713,5.713,0,0,1,8.555-1.822" transform="translate(-1364.777 -1729.149)" fill="none" stroke="#1b1f26" stroke-linecap="round" stroke-linejoin="round" stroke-width="1.3"/>
      <path id="Path_1209" data-name="Path 1209" d="M1476.7,1765.547a6.746,6.746,0,0,1,10.2-1.888" transform="translate(-1359.334 -1729.864)" fill="none" stroke="#1b1f26" stroke-linecap="round" stroke-linejoin="round" stroke-width="1.3"/>
      <path id="Path_1210" data-name="Path 1210" d="M1488.26,1792.737a5.5,5.5,0,0,0,9.581-2.071" transform="translate(-1361.873 -1736.14)" fill="none" stroke="#1b1f26" stroke-linecap="round" stroke-linejoin="round" stroke-width="1.3"/>
      <path id="Path_1211" data-name="Path 1211" d="M1549.144,1887.782c4.515,9.2,12.937,19.314,18.649,27.82s12.691,16.318,21.3,21.87c12.646,8.151,24.018,10.053,38.844,12.611a219.184,219.184,0,0,0,51.067,3.075,107.6,107.6,0,0,0,15.443.061,35.987,35.987,0,0,0,14.725-4.292,6.113,6.113,0,0,0,2.388-2.092,2.459,2.459,0,0,0-.254-2.965c-.929-.85-2.385-.538-3.6-.227a44.334,44.334,0,0,1-14.739,1.208" transform="translate(-1375.249 -1757.475)" fill="none" stroke="#1b1f26" stroke-linecap="round" stroke-linejoin="round" stroke-width="1.3"/>
      <path id="Path_1212" data-name="Path 1212" d="M1526.461,1823.615c7.918.731,26.276,9.525,32.523,15.111a228.467,228.467,0,0,1,39.92,46.833c18.177,7.179,36.679,14.982,54.856,22.161l31.872-4.932c1.68-.26,3.772-.345,4.67,1.1a3.015,3.015,0,0,1-.858,3.677,8.785,8.785,0,0,1-3.745,1.591l-10.169,2.542c1.77,5.207.728,11.549-2,16.325" transform="translate(-1370.266 -1743.379)" fill="none" stroke="#1b1f26" stroke-linecap="round" stroke-linejoin="round" stroke-width="1.3"/>
      <path id="Path_1213" data-name="Path 1213" d="M1744.013,1957.808a15.07,15.07,0,0,0,8.008-3.627,5.533,5.533,0,0,0,1.546-2.077,2.636,2.636,0,0,0-.254-2.491,2.818,2.818,0,0,0-2.321-.959,9.542,9.542,0,0,0-2.538.556,44.663,44.663,0,0,1-16.817,1.795" transform="translate(-1415.34 -1770.847)" fill="none" stroke="#1b1f26" stroke-linecap="round" stroke-linejoin="round" stroke-width="1.3"/>
      <path id="Path_1214" data-name="Path 1214" d="M1746.932,1946.788a14.828,14.828,0,0,0,7.906-5.1c1.056-1.264,1.886-3.1,1.023-4.5a3.234,3.234,0,0,0-3.252-1.236,11.259,11.259,0,0,0-3.4,1.374,40.346,40.346,0,0,1-18.46,4.5" transform="translate(-1415.145 -1768.042)" fill="none" stroke="#1b1f26" stroke-linecap="round" stroke-linejoin="round" stroke-width="1.3"/>
      <path id="Path_1215" data-name="Path 1215" d="M1748.761,1935.228a9.1,9.1,0,0,0,3.022-3.186,3.448,3.448,0,0,0-.37-3.593,3.648,3.648,0,0,0-2.737-1.1,8.21,8.21,0,0,0-2.982.546,85.794,85.794,0,0,1-18.859,4.777" transform="translate(-1414.286 -1766.167)" fill="none" stroke="#1b1f26" stroke-linecap="round" stroke-linejoin="round" stroke-width="1.3"/>
      <path id="Path_1216" data-name="Path 1216" d="M1524.284,1886.406c5.423,21.016,11.087,42.282,16.511,63.3-8.01,1.608-16.223,3.223-24.3,1.961a35.022,35.022,0,0,1-20.678-11.353c-5.3-6.023-8.97-13.864-9.193-21.884-.3,9.152-.815,18.948-6.313,26.27-4.19,5.579-10.81,8.935-17.606,10.512s-13.849,1.55-20.826,1.517c-3.69-27.6-6.694-54.736-7.62-82.564" transform="translate(-1350.011 -1754.484)" fill="none" stroke="#1b1f26" stroke-linecap="round" stroke-linejoin="round" stroke-width="1.3"/>
      <path id="Path_1217" data-name="Path 1217" d="M1480.73,1882.447a165.44,165.44,0,0,1-34.053-39.242c-2.052-3.3-4.062-7.043-3.382-10.867a11.283,11.283,0,0,1,5.433-7.257,33.677,33.677,0,0,1,8.679-3.364c1.386,3.735,2.157,7.74,3.869,11.576,5.827,13.058,14.177,36.18,20,49.238,5.146-15.336,13.392-44.934,18.422-61.113a28.326,28.326,0,0,1,7.293,1.449,10,10,0,0,1,5.724,4.76,9.366,9.366,0,0,1,.476,6.439,23.942,23.942,0,0,1-2.678,6c-2.906,5.06-6.2,9.884-9.485,14.7C1494.683,1864.082,1487.081,1873.141,1480.73,1882.447Z" transform="translate(-1351.965 -1742.896)" fill="none" stroke="#1b1f26" stroke-linecap="round" stroke-linejoin="round" stroke-width="1.3"/>
      <path id="Path_1218" data-name="Path 1218" d="M1431.023,1821.7a477.984,477.984,0,0,0-82.9,21.984c-5.978,2.175-12.156,4.636-16.371,9.4-5.651,6.389-6.633,15.959-4.231,24.144s7.729,15.195,13.56,21.42a130.574,130.574,0,0,0,33.751,25.877c7.668-8.612,15.355-16.452,23.023-25.064l-23.576-17.055c-2.171-1.57-4.613-4.118-3.406-6.509.745-1.476,2.551-2,4.16-2.384l43.661-10.3" transform="translate(-1326.29 -1742.959)" fill="none" stroke="#1b1f26" stroke-linecap="round" stroke-linejoin="round" stroke-width="1.3"/>
      <path id="Path_1219" data-name="Path 1219" d="M1460.746,1821.532l11.986-.53" transform="translate(-1355.829 -1742.805)" fill="none" stroke="#1b1f26" stroke-linecap="round" stroke-linejoin="round" stroke-width="1.3"/>
      <path id="Path_1220" data-name="Path 1220" d="M1501.478,1819.794l11.93,1.266" transform="translate(-1364.777 -1742.539)" fill="none" stroke="#1b1f26" stroke-linecap="round" stroke-linejoin="round" stroke-width="1.3"/>
      <path id="Path_1221" data-name="Path 1221" d="M1474.893,1934.243l-27.013,2.386c-.343,2.621,1.2,6.086,3.631,7.138,1.891.818,4.044.637,6.1.441,3.685-.352,7.436-.719,10.846-2.162A11.05,11.05,0,0,0,1474.893,1934.243Z" transform="translate(-1352.992 -1767.682)" fill="none" stroke="#1b1f26" stroke-linecap="round" stroke-linejoin="round" stroke-width="1.3"/>
      <path id="Path_1222" data-name="Path 1222" d="M1546.637,1931.154l-27.013,2.385c-.343,2.622,1.2,6.086,3.63,7.138,1.891.819,4.044.638,6.1.442,3.685-.352,7.436-.72,10.846-2.163A11.047,11.047,0,0,0,1546.637,1931.154Z" transform="translate(-1368.753 -1767.004)" fill="none" stroke="#1b1f26" stroke-linecap="round" stroke-linejoin="round" stroke-width="1.3"/>
      <path id="Path_1223" data-name="Path 1223" d="M1535.81,1881.241c1.335-1.269,1.988-2.512,1.561-3.251s-1.83-.793-3.6-.272c-.431-1.795-1.181-2.979-2.035-2.979s-1.6,1.187-2.035,2.979c-1.766-.521-3.169-.468-3.6.272s.226,1.982,1.561,3.251c-1.336,1.269-1.988,2.512-1.561,3.251s1.83.794,3.6.272c.431,1.795,1.181,2.978,2.035,2.978s1.6-1.187,2.035-2.978c1.766.521,3.169.468,3.6-.272S1537.144,1882.51,1535.81,1881.241Z" transform="translate(-1370.16 -1754.61)" fill="#fff460" stroke="#1b1f26" stroke-linecap="round" stroke-linejoin="round" stroke-width="1.3"/>
      <path id="Path_1224" data-name="Path 1224" d="M1731.557,2321.2a56.314,56.314,0,0,0,34.075-5.882c1.354-.714,2.809-1.511,4.325-1.277a6.831,6.831,0,0,1,3.462,2.2l5.561,5.4a4.309,4.309,0,0,0,1.339,1,1.472,1.472,0,0,0,1.573-.219,2.177,2.177,0,0,0,.454-1.4l1.384-16.5-27.3-.52c-4.512-.086-9.068-.368-13.577-.256-2.959.073-3.936,1.561-5.091,4.073C1735.709,2312.289,1733.626,2316.741,1731.557,2321.2Z" transform="translate(-1415.323 -1848.853)" fill="#ff6541" stroke="#1b1f26" stroke-linecap="round" stroke-linejoin="round" stroke-width="1.3"/>
      <path id="Path_1225" data-name="Path 1225" d="M1660.685,2321.2a56.314,56.314,0,0,0,34.075-5.882c1.354-.714,2.809-1.511,4.325-1.277a6.83,6.83,0,0,1,3.462,2.2l5.56,5.4a4.3,4.3,0,0,0,1.339,1,1.471,1.471,0,0,0,1.572-.219,2.176,2.176,0,0,0,.454-1.4l1.384-16.5-27.3-.52c-4.512-.086-9.068-.368-13.577-.256-2.959.073-3.936,1.561-5.091,4.073C1664.835,2312.289,1662.755,2316.741,1660.685,2321.2Z" transform="translate(-1399.753 -1848.853)" fill="#ff6541" stroke="#1b1f26" stroke-linecap="round" stroke-linejoin="round" stroke-width="1.3"/>
      <path id="Path_1226" data-name="Path 1226" d="M1662.183,1835.27c-.016.03-19.413,15.384-26.48,37.78" transform="translate(-1394.265 -1745.939)" fill="none" stroke="#1b1f26" stroke-linecap="round" stroke-linejoin="round" stroke-width="1.3"/>
      <path id="Path_1227" data-name="Path 1227" d="M1650.638,2162.425l90.457-2.565-.328-26.7" transform="translate(-1397.546 -1811.382)" fill="#1b1f26"/>
      <path id="Path_1228" data-name="Path 1228" d="M1739.744,1858.95v67.243l-95.257,23.409v-74.883A57.685,57.685,0,0,1,1688.4,1818.7h0a41.45,41.45,0,0,1,51.345,40.251Z" transform="translate(-1396.195 -1742.034)" fill="#f6f6f6"/>
      <path id="Path_1229" data-name="Path 1229" d="M1644.487,1980.207v249.778l166.284,4.654-71.026-277.846" transform="translate(-1396.195 -1772.636)" fill="#f6f6f6"/>
      <path id="Path_1230" data-name="Path 1230" d="M1739.744,1926.194v-67.243h0A41.449,41.449,0,0,0,1688.4,1818.7h0a57.685,57.685,0,0,0-43.915,56.016v324.668l166.284,4.655Z" transform="translate(-1396.194 -1742.036)" fill="none" stroke="#1b1f26" stroke-linecap="round" stroke-linejoin="round" stroke-width="1.3"/>
      <path id="Path_1231" data-name="Path 1231" d="M1620.6,1826.129c2.235-2.125,3.327-4.2,2.612-5.443s-3.062-1.327-6.019-.456c-.723-3-1.978-4.986-3.408-4.986s-2.685,1.987-3.407,4.986c-2.956-.873-5.306-.78-6.019.456s.378,3.318,2.613,5.443c-2.236,2.124-3.328,4.2-2.613,5.442s3.064,1.327,6.019.456c.723,3,1.979,4.986,3.407,4.986s2.685-1.987,3.408-4.986c2.957.872,5.306.78,6.019-.456S1622.832,1828.253,1620.6,1826.129Z" transform="translate(-1387.331 -1741.54)" fill="#fff460" stroke="#1b1f26" stroke-linecap="round" stroke-linejoin="round" stroke-width="1.3"/>
      <path id="Path_1232" data-name="Path 1232" d="M1630.371,1854.026c2.236-2.125,3.327-4.205,2.613-5.443s-3.063-1.327-6.019-.456c-.723-3-1.978-4.986-3.408-4.986s-2.685,1.987-3.407,4.986c-2.957-.873-5.306-.78-6.019.456s.378,3.318,2.613,5.443c-2.236,2.124-3.327,4.2-2.613,5.442s3.063,1.327,6.019.457c.722,3,1.978,4.986,3.407,4.986s2.685-1.988,3.408-4.986c2.957.872,5.306.78,6.019-.457S1632.606,1856.151,1630.371,1854.026Z" transform="translate(-1389.478 -1747.668)" fill="#ff6541" stroke="#1b1f26" stroke-linecap="round" stroke-linejoin="round" stroke-width="1.3"/>
      <path id="Path_1233" data-name="Path 1233" d="M1651.313,1825.951c1.249-2.819,1.462-5.159.327-6.029s-3.338-.053-5.734,1.886c-1.816-2.5-3.738-3.847-5.058-3.3s-1.717,2.865-1.235,5.912c-3.065.327-5.2,1.312-5.384,2.731s1.621,2.92,4.5,4.025c-1.249,2.819-1.462,5.159-.327,6.029s3.338.053,5.734-1.886c1.817,2.5,3.738,3.847,5.058,3.3s1.717-2.865,1.236-5.911c3.065-.327,5.2-1.312,5.384-2.731S1654.192,1827.056,1651.313,1825.951Z" transform="translate(-1393.938 -1742.23)" fill="#035dff" stroke="#1b1f26" stroke-linecap="round" stroke-linejoin="round" stroke-width="1.3"/>
      <path id="Path_1234" data-name="Path 1234" d="M1611.378,1878.3l47.2-5.275-16.771,78.176h-10.279Z" transform="translate(-1388.921 -1754.234)" fill="#1b1f26"/>
      <g id="Group_1771" data-name="Group 1771" transform="translate(111.286 71.619)">
        <g id="Group_1768" data-name="Group 1768">
          <g id="Group_1763" data-name="Group 1763" transform="translate(16.129)">
            <path id="Path_1235" data-name="Path 1235" d="M1500,1812.571c-5.276,0-10.416,8.735-10.416,8.735v2.983s5.14,8.735,10.416,8.735,3.287-8.086,3.287-10.227S1505.271,1812.571,1500,1812.571Z" transform="translate(-1489.578 -1812.571)" fill="#fff" stroke="#1b1f26" stroke-linecap="round" stroke-linejoin="round" stroke-width="1.3"/>
            <g id="Group_1762" data-name="Group 1762" transform="translate(0 5.13)">
              <g id="Group_1761" data-name="Group 1761">
                <g id="Group_1760" data-name="Group 1760">
                  <path id="Path_1236" data-name="Path 1236" d="M1489.578,1823.284s5.746-5.323,6.438-3.9S1489.578,1823.284,1489.578,1823.284Z" transform="translate(-1489.578 -1819.146)" fill="#fff" stroke="#1b1f26" stroke-linecap="round" stroke-linejoin="round" stroke-width="1.3"/>
                  <path id="Path_1237" data-name="Path 1237" d="M1489.578,1826.9s5.746,5.322,6.438,3.895S1489.578,1826.9,1489.578,1826.9Z" transform="translate(-1489.578 -1820.85)" fill="#fff" stroke="#1b1f26" stroke-linecap="round" stroke-linejoin="round" stroke-width="1.3"/>
                </g>
                <path id="Path_1238" data-name="Path 1238" d="M1489.578,1825.458s8.5-1.742,8.5,0S1489.578,1825.458,1489.578,1825.458Z" transform="translate(-1489.578 -1820.362)" fill="#fff" stroke="#1b1f26" stroke-linecap="round" stroke-linejoin="round" stroke-width="1.3"/>
              </g>
            </g>
          </g>
          <g id="Group_1767" data-name="Group 1767">
            <path id="Path_1239" data-name="Path 1239" d="M1472.564,1812.571c5.275,0,10.415,8.735,10.415,8.735v2.983s-5.14,8.735-10.415,8.735-3.289-8.086-3.289-10.227S1467.288,1812.571,1472.564,1812.571Z" transform="translate(-1468.908 -1812.571)" fill="#fff" stroke="#1b1f26" stroke-linecap="round" stroke-linejoin="round" stroke-width="1.3"/>
            <g id="Group_1766" data-name="Group 1766" transform="translate(5.573 5.13)">
              <g id="Group_1765" data-name="Group 1765">
                <g id="Group_1764" data-name="Group 1764" transform="translate(2.013)">
                  <path id="Path_1240" data-name="Path 1240" d="M1485.114,1823.284s-5.745-5.323-6.437-3.9S1485.114,1823.284,1485.114,1823.284Z" transform="translate(-1478.629 -1819.146)" fill="#fff" stroke="#1b1f26" stroke-linecap="round" stroke-linejoin="round" stroke-width="1.3"/>
                  <path id="Path_1241" data-name="Path 1241" d="M1485.114,1826.9s-5.745,5.322-6.437,3.895S1485.114,1826.9,1485.114,1826.9Z" transform="translate(-1478.629 -1820.85)" fill="#fff" stroke="#1b1f26" stroke-linecap="round" stroke-linejoin="round" stroke-width="1.3"/>
                </g>
                <path id="Path_1242" data-name="Path 1242" d="M1484.547,1825.458s-8.5-1.742-8.5,0S1484.547,1825.458,1484.547,1825.458Z" transform="translate(-1476.05 -1820.362)" fill="#fff" stroke="#1b1f26" stroke-linecap="round" stroke-linejoin="round" stroke-width="1.3"/>
              </g>
            </g>
          </g>
        </g>
        <g id="Group_1770" data-name="Group 1770" transform="translate(11.034 6.16)">
          <g id="Group_1769" data-name="Group 1769">
            <circle id="Ellipse_14" data-name="Ellipse 14" cx="4.066" cy="4.066" r="4.066" fill="#fff" stroke="#1b1f26" stroke-linecap="round" stroke-linejoin="round" stroke-width="1.3"/>
          </g>
        </g>
      </g>
      <g id="Group_1772" data-name="Group 1772" transform="translate(44.782 165.429)">
        <path id="Path_1243" data-name="Path 1243" d="M1431.932,1961.723c-.1-1.971-.261-4.01-.533-5.963-.248-1.79-1.361-3.468-1.135-5.306a2.216,2.216,0,0,1,.194-.671,51.494,51.494,0,0,0-3.385-7.794,1.478,1.478,0,0,1-.635-.592c-.219-.394-.41-.8-.6-1.21a11.5,11.5,0,0,1-2.829-3.931c-1.045-.91-2.164-1.737-3.229-2.621a1.267,1.267,0,0,1-.43-.822,4.016,4.016,0,0,0-3.161,1.085,14.518,14.518,0,0,0-3.34,5.56,18.637,18.637,0,0,0-4.158,5.15,43.187,43.187,0,0,0-5.385,6.27c-.06.094-.116.19-.167.29a3.886,3.886,0,0,0-.479,4.164c.037.078.055.162.085.242,0,.043-.017.078-.023.124l-.186,1.922-15.068,13.4c-2.085,1.854-1.078,5.486,1.313,6.438l-.286.332-3.81,4.425a4.069,4.069,0,0,0,.381,5.741,4.124,4.124,0,0,0,.377.293.331.331,0,0,1,.4-.124c.369.124.714.321,1.092.41a3.649,3.649,0,0,0,1.2.008,5.02,5.02,0,0,0,2.122-1.262.337.337,0,0,1,.385,0q1.273-1.295,2.554-2.588c-.395,1.181-.751,2.379-1.053,3.6a4.169,4.169,0,0,0,2.611,4.748c.084-.012.167-.025.245-.04.318-.063.635-.127.951-.2.39-.084.771-.2,1.15-.317a23.334,23.334,0,0,0,1.863-1.657c.355-.357.7-.986,1.171-.917a8.36,8.36,0,0,1,.581-.606c.385-.376.742-.78,1.106-1.177.4-.435.767-.9,1.13-1.364.062-.078.126-.156.189-.234.242-.337.484-.673.724-1.01a.39.39,0,0,1,.673.394,6.659,6.659,0,0,1-.732,1.022c-.672.936-1.326,1.886-1.928,2.871a2.141,2.141,0,0,1-.353.928c-.043.073-.083.148-.123.222a1.173,1.173,0,0,1,.085.468c-.018.139-.037.277-.055.415a3.193,3.193,0,0,0-.092.409,6.34,6.34,0,0,0,0,.73.488.488,0,0,1,.051.164v.006l.012.065c.007.034.016.07.025.1s.02.066.031.1l.012.033a1.484,1.484,0,0,0,.1.179c.017.028.036.054.055.082-.007-.011,0-.009.019.024a2.439,2.439,0,0,0,.3.3c.052.045.107.087.156.131-.1-.083,0,0,.03.022l.094.07a.42.42,0,0,1,.185.339,4.15,4.15,0,0,0,5.3-1.195l10.9-14.675c.048-.065.1-.148.156-.234a1.221,1.221,0,0,1,.449-.718,12.573,12.573,0,0,1,1.483-2.1,2.952,2.952,0,0,1,.026-.5,3.15,3.15,0,0,1,.1-.841.39.39,0,0,1,.753,0,5.789,5.789,0,0,1,.078,1.057c.035.35.09.695.11,1.046a15.466,15.466,0,0,1-.014,2.08,1.692,1.692,0,0,1,.1.443c.091,1.195.319,2.375.4,3.571.063.994.029,1.991.058,2.985.037,1.261.144,2.854,1.611,3.143,2.678.529,4.078-1.824,4.851-3.979.037-.105.068-.211.1-.317.03-.271.058-.542.09-.812a2.7,2.7,0,0,0,.226-.156A68,68,0,0,0,1431,1974,61.541,61.541,0,0,0,1431.932,1961.723Z" transform="translate(-1383.681 -1932.793)" fill="#ffb4ce"/>
        <path id="Path_1244" data-name="Path 1244" d="M1402.384,1960.213a2.049,2.049,0,0,1,1.1,2.612,5.938,5.938,0,0,1-1.951,2.445l-11.375,9.954a10.24,10.24,0,0,0-2.741,3.163,3.088,3.088,0,0,0,4.089,4.389,10.205,10.205,0,0,0,3.1-2.286l8.015-7.647" transform="translate(-1384.39 -1938.817)" fill="#ffb4ce" stroke="#1b1f26" stroke-linecap="round" stroke-linejoin="round" stroke-width="1.3"/>
        <path id="Path_1245" data-name="Path 1245" d="M1389.338,1987.828a21.121,21.121,0,0,0-4.621,5.935,4.629,4.629,0,0,0-.641,3.64c.6,1.613,2.716,2.2,4.36,1.7a10.3,10.3,0,0,0,4.1-3.033l13.67-14.2" transform="translate(-1383.73 -1943.574)" fill="#ffb4ce" stroke="#1b1f26" stroke-linecap="round" stroke-linejoin="round" stroke-width="1.3"/>
        <path id="Path_1246" data-name="Path 1246" d="M1396.754,1995.338a16.064,16.064,0,0,0-1.618,3.547,5.388,5.388,0,0,0,.234,3.813,3.278,3.278,0,0,0,3.163,1.858,5.4,5.4,0,0,0,3.092-2.141l14.738-16.635" transform="translate(-1386.144 -1944.434)" fill="#ffb4ce" stroke="#1b1f26" stroke-linecap="round" stroke-linejoin="round" stroke-width="1.3"/>
        <path id="Path_1247" data-name="Path 1247" d="M1412.063,1993.376l-3.987,6.426a9.181,9.181,0,0,0-1.472,3.257,3.128,3.128,0,0,0,1.2,3.174,3.087,3.087,0,0,0,2.975-.058,8.53,8.53,0,0,0,2.335-2.029,95.729,95.729,0,0,0,13.289-19.16" transform="translate(-1388.701 -1944.259)" fill="#ffb4ce" stroke="#1b1f26" stroke-linecap="round" stroke-linejoin="round" stroke-width="1.3"/>
        <path id="Path_1248" data-name="Path 1248" d="M1432.209,1977.009a49.35,49.35,0,0,0,.377,8.686c.156,1.189.474,2.539,1.536,3.1a2.623,2.623,0,0,0,2.842-.521,6.58,6.58,0,0,0,1.606-2.584,46.983,46.983,0,0,0,2.653-10.786c1.053-7.234,1.359-14.67-.184-21.811s-5.054-14.018-10.668-18.7" transform="translate(-1393.938 -1933.144)" fill="#ffb4ce" stroke="#1b1f26" stroke-linecap="round" stroke-linejoin="round" stroke-width="1.3"/>
      </g>
      <path id="Path_1249" data-name="Path 1249" d="M1411.017,1912.756l13.023,12.383-17.686,19.8c-1.873,2.1-3.824,4.253-6.353,5.486-4.725,2.3-10.077.834-14.651-1.093-2.543-1.07-4.189-1.327-3.16-4.058.848-2.25,4.316-4.9,5.917-6.7C1390.02,1936.417,1411.14,1912.875,1411.017,1912.756Z" transform="translate(-1338.503 -1762.962)" fill="#fff" stroke="#1b1f26" stroke-linecap="round" stroke-linejoin="round" stroke-width="1.3"/>
      <path id="Path_1250" data-name="Path 1250" d="M1751.729,1894.251a88.075,88.075,0,0,0-3.433-13.836,20.4,20.4,0,0,1-3.022-7.31c-1.035-1.743-1.945-3.557-2.96-5.313a.348.348,0,0,1-.044-.234c-2.048-1.27-5.318-.407-5.911,2.2-2.12,9.343-10.8,14.124-18.443,18.625-4.5,2.653-11.393,6.839-11.8,12.329a.366.366,0,0,1,.051.107c.05.2.1.4.152.6a.444.444,0,0,1,.043.083c.18.613.366,1.224.552,1.835.333.936.7,1.869.952,2.834.017.021.032.045.049.066h-.031c.013.05.029.1.042.148v.032c.054.125.107.25.163.374a.327.327,0,0,1,.284.185l.292.586a.4.4,0,0,1-.165.536.38.38,0,0,1-.07.028.421.421,0,0,1-.594-.046.4.4,0,0,1-.064-.1l-.027-.009a.443.443,0,0,1-.494.36,9.587,9.587,0,0,1-1.224-.287c-1.269-.046-2.5-.411-3.753-.535a.333.333,0,0,1-.193.055,29.85,29.85,0,0,1-4.521-.568c-.385-.06-.77-.131-1.151-.227a.34.34,0,0,1-.051-.023c-.086-.02-.173-.034-.26-.054a20.763,20.763,0,0,1-5.647-.606.343.343,0,0,1-.248-.227c-1.185-.13-2.385-.136-3.561-.359a.306.306,0,0,1-.226-.175,297.61,297.61,0,0,1-30.27-3.963,4.15,4.15,0,0,0-1.747.041c-.044-.043-.1-.078-.144-.117a2.786,2.786,0,0,1-1.852-.162,1.476,1.476,0,0,1-.724-.822.347.347,0,0,1-.078-.28,2.272,2.272,0,0,1-.034-.44l-.021-.053a.359.359,0,0,1-.2-.165c-.243-.423-.463-.858-.686-1.3a.3.3,0,0,1-.132-.086c-.1-.119-.2-.245-.3-.366a.408.408,0,0,1-.423-.374.923.923,0,0,0-.039-.188c-.234-.292-.454-.588-.674-.888l-.268-.227a15.07,15.07,0,0,0-1.574-1.093,8.645,8.645,0,0,0-1.685-.985,1.541,1.541,0,0,0-1.322.19c-.083.223-.165.446-.25.669q-.032.891-.129,1.777a19.828,19.828,0,0,1-.115,2.3,2.153,2.153,0,0,1,.591.3c.332.248.156.851-.3.713-.139-.043-.275-.1-.413-.144a.365.365,0,0,1-.185.01,2.907,2.907,0,0,1-.563-.2.225.225,0,0,1-.034,0c-1.007-.363-2.2-.3-3.084-.97h0a1.747,1.747,0,0,1-.354-.176.329.329,0,0,1-.349.084,1.581,1.581,0,0,1-.625-.4c-.022.05-.038.1-.065.156a.39.39,0,0,1-.534.14.375.375,0,0,1-.079-.062,1.436,1.436,0,0,1-.1-.162.4.4,0,0,1-.5-.038,1.565,1.565,0,0,1-.215-.271.408.408,0,0,1-.336.015,1.113,1.113,0,0,1-.173.118.4.4,0,0,1-.473-.061,1.768,1.768,0,0,1-.166-.224c-.01.005-.016.013-.026.019a.4.4,0,0,1-.534-.14c-.008-.013-.011-.027-.018-.041a1.244,1.244,0,0,1-.512.446.428.428,0,0,1-.4-.009,1.8,1.8,0,0,1-.492-.03,1.566,1.566,0,0,1-.723-.36,1.841,1.841,0,0,1-1.708.256.226.226,0,0,1-.023.009,1.63,1.63,0,0,1-.624.205,2.328,2.328,0,0,1-1.577.709,2.784,2.784,0,0,1-.6.356,5.625,5.625,0,0,1-.546.6c-.008.007-.016.009-.024.016a10.648,10.648,0,0,1-1.52,2.037,11.251,11.251,0,0,1-.366,3.55c.024.065.048.132.07.2a.338.338,0,0,1,.106.109,6.317,6.317,0,0,1,.911,2.4q.253.323.483.66a.4.4,0,0,1,.473.048,10.1,10.1,0,0,1,2.95,4.08c.059.062.118.123.176.186l.7.542a.358.358,0,0,1,.151.051,16.067,16.067,0,0,1,3.362,2.7c.495.386.99.772,1.49,1.152a.41.41,0,0,1,.117.513.351.351,0,0,1,.349.018,39.59,39.59,0,0,1,4.334,3.121.313.313,0,0,1,.1.38,44.567,44.567,0,0,1,6.747,4.34.352.352,0,0,1,.036.482c.347.21.691.418,1.021.62a239.294,239.294,0,0,0,24.9,13.265,246.868,246.868,0,0,0,41.895,14.852.365.365,0,0,1,.377-.124c.7.169,1.417.267,2.131.365.531.054,1.06.128,1.589.208.553.009,1.106.018,1.659.034a.321.321,0,0,1,.276-.116c.53.042,1.057.113,1.579.2.751.023,1.5.034,2.252-.006a.3.3,0,0,1,.1-.039,7.248,7.248,0,0,1,1.185-.086.345.345,0,0,1,.194.064c.344-.022.686-.048,1.03-.064.01,0,.016,0,.025,0a10.783,10.783,0,0,1,1.249-.13,17.253,17.253,0,0,1,3.043-.305.45.45,0,0,1,.124.02,12.5,12.5,0,0,1,3.107-.931,24.852,24.852,0,0,1,2.438-.5c.545-.3,1.108-.6,1.688-.875.286-.156.571-.312.854-.472a25.372,25.372,0,0,1,3.471-2.229.405.405,0,0,1,.234-.045,42.712,42.712,0,0,0,9.276-25.265A76.282,76.282,0,0,0,1751.729,1894.251Z" transform="translate(-1392.154 -1752.906)" fill="#ffb4ce"/>
      <path id="Path_1251" data-name="Path 1251" d="M1768.133,1868.555a34.744,34.744,0,0,1-1.795-4.144c-.25-.431-.477-.874-.69-1.327a14.7,14.7,0,0,0-.962-1.689,17.777,17.777,0,0,1-1.583-2.809c-.042-.035-.078-.073-.124-.108-2.538-4.75-9.676-14.588-13.154-18.71-2.8-3.319-4.7,6.467-2.154,10.078,3.675,5.2,9.92,13.8,4.091,19.689a3.6,3.6,0,0,0-.256,5.079l.038.041q-5.913,3.967-12.095,7.506l-.95.546q-4.481,2.542-9.084,4.873a3.642,3.642,0,0,0-1.6,1.483,3.988,3.988,0,0,0-.9,3.535,7.678,7.678,0,0,0,9.034,5.748,7.868,7.868,0,0,0,5.219-4.033,10.818,10.818,0,0,0,11.914-5.368,8.832,8.832,0,0,0,8.17-3.823,6.861,6.861,0,0,0,3.5-.847,8.189,8.189,0,0,0,2.007-1.536,3.95,3.95,0,0,0,1.721-1.55,11.936,11.936,0,0,0,1.737-7.725A11.281,11.281,0,0,1,1768.133,1868.555Z" transform="translate(-1414.281 -1746.778)" fill="#f6f6f6"/>
      <path id="Path_1252" data-name="Path 1252" d="M1725.234,1835.27s40.366,44.287,27.595,94.827-126.162-18.734-126.552-31.892,18.189-4.644,18.189-4.644-1.935-8.357,1.935-6.114,5.806,6.888,5.806,6.888l56.889,7.353-9.346-27.477" transform="translate(-1392.193 -1745.939)" fill="none" stroke="#1b1f26" stroke-linecap="round" stroke-linejoin="round" stroke-width="1.3"/>
      <path id="Path_1253" data-name="Path 1253" d="M1728.913,1766.627a28.238,28.238,0,0,1-17.259-4.552c-5.057-3.33-8.115-8.8-10.135-14.5a27.957,27.957,0,0,1-31.642,18.007c1.991-8.542,8.318-16.27,15.931-20.627a32.446,32.446,0,0,1,25.429-2.783,23.613,23.613,0,0,1,9.881,5.731C1725.967,1752.821,1729.621,1759.233,1728.913,1766.627Z" transform="translate(-1401.773 -1725.175)" fill="none" stroke="#1b1f26" stroke-linecap="round" stroke-linejoin="round" stroke-width="1.3"/>
    </g>
    <path id="Path_1254" data-name="Path 1254" d="M1719.141,1738.445a8.013,8.013,0,0,1,3.6-10.743c.1-.049.2-.1.3-.141a8.8,8.8,0,0,1,8.771,1.17,10.272,10.272,0,0,1,3.809,8.12,12.385,12.385,0,0,1-3.533,8.356c-1.962,2.041-5.7.846-8.164-.546S1720.4,1740.98,1719.141,1738.445Z" transform="translate(-86.12 -1.339)" fill="#fff460" stroke="#1b1f26" stroke-linecap="round" stroke-linejoin="round" stroke-width="1.3"/>
  </g>
</svg>
