<svg xmlns="http://www.w3.org/2000/svg" width="241.612" height="183.246" viewBox="0 0 241.612 183.246">
  <g id="Group_1872" data-name="Group 1872" transform="translate(-1470.201 -83.992) rotate(-19)">
    <path id="Path_278" data-name="Path 278" d="M1345.542,624.544h203.219a4.963,4.963,0,0,1,4.947,4.95V738.562a4.963,4.963,0,0,1-4.947,4.95H1345.542a4.963,4.963,0,0,1-4.948-4.95V629.494A4.963,4.963,0,0,1,1345.542,624.544Z" fill="#ffb4ce" stroke="#000" stroke-linecap="round" stroke-linejoin="round" stroke-width="1.083" fill-rule="evenodd"/>
    <g id="Group_97" data-name="Group 97" transform="translate(1385.338 634.895)">
      <path id="Path_279" data-name="Path 279" d="M1476.983,742.993a49.131,49.131,0,1,0-49.135-49.132A49.224,49.224,0,0,0,1476.983,742.993Z" transform="translate(-1427.848 -644.73)" stroke="#000" stroke-linecap="round" stroke-linejoin="round" stroke-width="1.083" fill-rule="evenodd"/>
      <path id="Path_280" data-name="Path 280" d="M1509.529,741.284A14.878,14.878,0,1,0,1494.65,726.4,14.908,14.908,0,0,0,1509.529,741.284Z" transform="translate(-1460.394 -677.274)" fill="#f6f6f6" stroke="#000" stroke-linecap="round" stroke-linejoin="round" stroke-width="1.083" fill-rule="evenodd"/>
    </g>
    <g id="Group_98" data-name="Group 98" transform="translate(1405.658 637.002)">
      <path id="Path_281" data-name="Path 281" d="M1482.022,648.838a49,49,0,0,0-14.547,7.23l29.93,41.608-2.194-6.921Z" transform="translate(-1467.475 -648.838)" fill="#f6f6f6" stroke="#000" stroke-linecap="round" stroke-linejoin="round" stroke-width="1.083" fill-rule="evenodd"/>
    </g>
    <rect id="Rectangle_47" data-name="Rectangle 47" width="5.99" height="82.164" transform="translate(1492.985 644.232)" fill="#fff460" stroke="#000" stroke-linecap="round" stroke-linejoin="round" stroke-width="1.083"/>
    <rect id="Rectangle_48" data-name="Rectangle 48" width="5.994" height="82.164" transform="translate(1506.462 644.232)" fill="#fff460" stroke="#000" stroke-linecap="round" stroke-linejoin="round" stroke-width="1.083"/>
    <rect id="Rectangle_49" data-name="Rectangle 49" width="5.99" height="82.164" transform="translate(1520.374 644.232)" fill="#fff460" stroke="#000" stroke-linecap="round" stroke-linejoin="round" stroke-width="1.083"/>
    <rect id="Rectangle_50" data-name="Rectangle 50" width="10.484" height="4.707" transform="translate(1490.738 662.945)" fill="#035dff" stroke="#000" stroke-linecap="round" stroke-linejoin="round" stroke-width="1.083"/>
    <rect id="Rectangle_51" data-name="Rectangle 51" width="10.484" height="4.707" transform="translate(1504.219 687.123)" fill="#035dff" stroke="#000" stroke-linecap="round" stroke-linejoin="round" stroke-width="1.083"/>
    <rect id="Rectangle_52" data-name="Rectangle 52" width="10.484" height="4.707" transform="translate(1518.127 673.003)" fill="#035dff" stroke="#000" stroke-linecap="round" stroke-linejoin="round" stroke-width="1.083"/>
    <g id="Group_99" data-name="Group 99" transform="translate(1346.612 727.19)">
      <circle id="Ellipse_1" data-name="Ellipse 1" cx="4.707" cy="4.707" r="4.707" fill="#ffb4ce" stroke="#000" stroke-linecap="round" stroke-linejoin="round" stroke-width="1.083"/>
      <path id="Path_282" data-name="Path 282" d="M1382.577,829.42a4.707,4.707,0,1,1,4.707,4.707A4.708,4.708,0,0,1,1382.577,829.42Z" transform="translate(-1367.066 -824.713)" fill="#ffb4ce" stroke="#000" stroke-linecap="round" stroke-linejoin="round" stroke-width="1.083" fill-rule="evenodd"/>
      <path id="Path_283" data-name="Path 283" d="M1414.711,829.42a4.707,4.707,0,1,1,4.707,4.707A4.7,4.7,0,0,1,1414.711,829.42Z" transform="translate(-1382.722 -824.713)" fill="#ffb4ce" stroke="#000" stroke-linecap="round" stroke-linejoin="round" stroke-width="1.083" fill-rule="evenodd"/>
      <path id="Path_284" data-name="Path 284" d="M1448.508,829.42a4.707,4.707,0,1,1,4.708,4.707A4.705,4.705,0,0,1,1448.508,829.42Z" transform="translate(-1399.188 -824.713)" fill="#ffb4ce" stroke="#000" stroke-linecap="round" stroke-linejoin="round" stroke-width="1.083" fill-rule="evenodd"/>
    </g>
    <g id="Group_104" data-name="Group 104" transform="translate(1347.465 635.61)">
      <g id="Group_100" data-name="Group 100" transform="translate(0)">
        <path id="Path_285" data-name="Path 285" d="M1353.993,648.576a2.452,2.452,0,1,1,2.452,2.452A2.452,2.452,0,0,1,1353.993,648.576Z" transform="translate(-1353.993 -646.124)" fill="#9ef3f3" stroke="#000" stroke-linecap="round" stroke-linejoin="round" stroke-width="1.083" fill-rule="evenodd"/>
        <path id="Path_286" data-name="Path 286" d="M1369.756,648.576a2.452,2.452,0,1,1,2.452,2.452A2.452,2.452,0,0,1,1369.756,648.576Z" transform="translate(-1361.673 -646.124)" fill="#9ef3f3" stroke="#000" stroke-linecap="round" stroke-linejoin="round" stroke-width="1.083" fill-rule="evenodd"/>
        <path id="Path_287" data-name="Path 287" d="M1386.489,648.576a2.452,2.452,0,1,1,2.452,2.452A2.452,2.452,0,0,1,1386.489,648.576Z" transform="translate(-1369.825 -646.124)" fill="#9ef3f3" stroke="#000" stroke-linecap="round" stroke-linejoin="round" stroke-width="1.083" fill-rule="evenodd"/>
        <path id="Path_288" data-name="Path 288" d="M1404.092,648.576a2.452,2.452,0,1,1,2.452,2.452A2.452,2.452,0,0,1,1404.092,648.576Z" transform="translate(-1378.401 -646.124)" fill="#9ef3f3" stroke="#000" stroke-linecap="round" stroke-linejoin="round" stroke-width="1.083" fill-rule="evenodd"/>
      </g>
      <g id="Group_101" data-name="Group 101" transform="translate(0 9.586)">
        <path id="Path_289" data-name="Path 289" d="M1353.993,667.269a2.452,2.452,0,1,1,2.452,2.452A2.452,2.452,0,0,1,1353.993,667.269Z" transform="translate(-1353.993 -664.817)" fill="#fff460" stroke="#000" stroke-linecap="round" stroke-linejoin="round" stroke-width="1.083" fill-rule="evenodd"/>
        <path id="Path_290" data-name="Path 290" d="M1369.756,667.269a2.452,2.452,0,1,1,2.452,2.452A2.452,2.452,0,0,1,1369.756,667.269Z" transform="translate(-1361.673 -664.817)" fill="#fff460" stroke="#000" stroke-linecap="round" stroke-linejoin="round" stroke-width="1.083" fill-rule="evenodd"/>
        <path id="Path_291" data-name="Path 291" d="M1386.489,667.269a2.452,2.452,0,1,1,2.452,2.452A2.452,2.452,0,0,1,1386.489,667.269Z" transform="translate(-1369.825 -664.817)" fill="#fff460" stroke="#000" stroke-linecap="round" stroke-linejoin="round" stroke-width="1.083" fill-rule="evenodd"/>
        <path id="Path_292" data-name="Path 292" d="M1404.092,667.269a2.452,2.452,0,1,1,2.452,2.452A2.452,2.452,0,0,1,1404.092,667.269Z" transform="translate(-1378.401 -664.817)" fill="#fff460" stroke="#000" stroke-linecap="round" stroke-linejoin="round" stroke-width="1.083" fill-rule="evenodd"/>
      </g>
      <g id="Group_102" data-name="Group 102" transform="translate(0 19.392)">
        <path id="Path_293" data-name="Path 293" d="M1353.993,686.393a2.452,2.452,0,1,1,2.452,2.452A2.452,2.452,0,0,1,1353.993,686.393Z" transform="translate(-1353.993 -683.941)" fill="#ff6541" stroke="#000" stroke-linecap="round" stroke-linejoin="round" stroke-width="1.083" fill-rule="evenodd"/>
        <path id="Path_294" data-name="Path 294" d="M1369.756,686.393a2.452,2.452,0,1,1,2.452,2.452A2.452,2.452,0,0,1,1369.756,686.393Z" transform="translate(-1361.673 -683.941)" fill="#ff6541" stroke="#000" stroke-linecap="round" stroke-linejoin="round" stroke-width="1.083" fill-rule="evenodd"/>
        <path id="Path_295" data-name="Path 295" d="M1386.489,686.393a2.452,2.452,0,1,1,2.452,2.452A2.452,2.452,0,0,1,1386.489,686.393Z" transform="translate(-1369.825 -683.941)" fill="#ff6541" stroke="#000" stroke-linecap="round" stroke-linejoin="round" stroke-width="1.083" fill-rule="evenodd"/>
        <path id="Path_296" data-name="Path 296" d="M1404.092,686.393a2.452,2.452,0,1,1,2.452,2.452A2.452,2.452,0,0,1,1404.092,686.393Z" transform="translate(-1378.401 -683.941)" fill="#ff6541" stroke="#000" stroke-linecap="round" stroke-linejoin="round" stroke-width="1.083" fill-rule="evenodd"/>
      </g>
      <g id="Group_103" data-name="Group 103" transform="translate(0 28.311)">
        <path id="Path_297" data-name="Path 297" d="M1353.993,703.785a2.452,2.452,0,1,1,2.452,2.451A2.452,2.452,0,0,1,1353.993,703.785Z" transform="translate(-1353.993 -701.333)" fill="#035dff" stroke="#000" stroke-linecap="round" stroke-linejoin="round" stroke-width="1.083" fill-rule="evenodd"/>
        <path id="Path_298" data-name="Path 298" d="M1369.756,703.785a2.452,2.452,0,1,1,2.452,2.451A2.452,2.452,0,0,1,1369.756,703.785Z" transform="translate(-1361.673 -701.333)" fill="#035dff" stroke="#000" stroke-linecap="round" stroke-linejoin="round" stroke-width="1.083" fill-rule="evenodd"/>
        <path id="Path_299" data-name="Path 299" d="M1386.489,703.785a2.452,2.452,0,1,1,2.452,2.451A2.452,2.452,0,0,1,1386.489,703.785Z" transform="translate(-1369.825 -701.333)" fill="#035dff" stroke="#000" stroke-linecap="round" stroke-linejoin="round" stroke-width="1.083" fill-rule="evenodd"/>
        <path id="Path_300" data-name="Path 300" d="M1404.092,703.785a2.452,2.452,0,1,1,2.452,2.451A2.452,2.452,0,0,1,1404.092,703.785Z" transform="translate(-1378.401 -701.333)" fill="#035dff" stroke="#000" stroke-linecap="round" stroke-linejoin="round" stroke-width="1.083" fill-rule="evenodd"/>
      </g>
    </g>
    <path id="Path_301" data-name="Path 301" d="M1372.037,761.667a12.41,12.41,0,1,0-12.407-12.409A12.434,12.434,0,0,0,1372.037,761.667Z" transform="translate(-9.274 -54.715)" fill="#fff460" stroke="#000" stroke-linecap="round" stroke-linejoin="round" stroke-width="1.083" fill-rule="evenodd"/>
  </g>
</svg>
