<svg xmlns="http://www.w3.org/2000/svg" width="167.568" height="114.321" viewBox="0 0 167.568 114.321">
  <g id="Group_1896" data-name="Group 1896" transform="translate(-833.936 -1165.88)">
    <g id="Group_1895" data-name="Group 1895" transform="translate(834.45 1166.393)">
      <path id="Path_1466" data-name="Path 1466" d="M865.137,1248.792l-30.126-33.8a2.21,2.21,0,0,1,.991-3.58l143.606-44.841a3.9,3.9,0,0,1,4.952,2.817l10.966,46.047a17.066,17.066,0,0,1,4.611,7.394,16.654,16.654,0,0,1-11.277,21.276,17.905,17.905,0,0,1-5.348.828,16.642,16.642,0,0,1-9.616-2.982l1.436,2.928a1.824,1.824,0,0,1-1.094,2.543l-103.206,32.224a1.074,1.074,0,0,1-1.381-.865ZM966.7,1227.268a16.781,16.781,0,0,1,.4-3.082l-4.133-10.608-.6,4.854Z" transform="translate(-834.45 -1166.393)" fill="#035dff" stroke="#231f20" stroke-linecap="round" stroke-linejoin="round" stroke-width="1"/>
      <path id="Path_1467" data-name="Path 1467" d="M871.264,1249.468l-27.361-30.7a2.21,2.21,0,0,1,.991-3.58L980.2,1172.94a3.9,3.9,0,0,1,4.952,2.817l10.388,43.621a13.7,13.7,0,0,1,4.427,6.585,13.41,13.41,0,0,1-9.1,17.122,14.6,14.6,0,0,1-4.36.678,13.313,13.313,0,0,1-12.866-9.578,13.657,13.657,0,0,1-.069-8.054l-9.295-23.857-2.328,18.878,11.7,23.86a1.823,1.823,0,0,1-1.094,2.543l-95.822,29.919a1.073,1.073,0,0,1-1.382-.865Z" transform="translate(-837.445 -1168.538)" fill="#ffef60" stroke="#231f20" stroke-linecap="round" stroke-linejoin="round" stroke-width="1"/>
      <path id="Path_1468" data-name="Path 1468" d="M999.8,1229.1a10.207,10.207,0,0,0-9.22-7.23l4.31-1.346-9.143-38.395a3.9,3.9,0,0,0-4.952-2.817l-17.6,5.5h0l-45.783,14.3h0l-17.823,5.565h0l-23.091,7.21-22.709,7.092a2.21,2.21,0,0,0-.991,3.58l24.6,27.6,3.658,24.294a1.073,1.073,0,0,0,1.381.865l21.339-6.663h0l46.6-14.549h0l20.5-6.4a1.824,1.824,0,0,0,1.094-2.544l-10.43-21.273,4.058-32.9,13.443,34.5,4.236-1.323a10.084,10.084,0,0,0-2.844,3.394,10.259,10.259,0,0,0-.625,7.8,10.055,10.055,0,0,0,9.7,7.251,11.3,11.3,0,0,0,3.371-.526A10.168,10.168,0,0,0,999.8,1229.1Zm-105.158,15.661,3.558-28.849,4.862,46.025Zm30.3-37.2,19.344,21.7,2.849,18.916Z" transform="translate(-840.44 -1170.684)" fill="#ff6541" stroke="#231f20" stroke-linecap="round" stroke-linejoin="round" stroke-width="1"/>
      <path id="Path_1469" data-name="Path 1469" d="M880.437,1230.411l18.223-5.69-4.436,35.968,10.1,20.6-16.193,5.057a1.074,1.074,0,0,1-1.381-.865l-3.229-21.445-21.832-24.494a2.21,2.21,0,0,1,.991-3.58l14.8-4.621,7.848,21.132.835-.26Z" transform="translate(-843.435 -1186.041)" fill="#ffafc9"/>
      <path id="Path_1470" data-name="Path 1470" d="M948.485,1270.656l-17.235,5.381-5.966-56.469,17.615-5.5,27.226,49.831-17.008,5.31-4.339-11.228-3.189,1Zm-9.049-34.59,4.892,17.8,2.506-.782-6.183-17.4Z" transform="translate(-865.048 -1182.453)" fill="#ffafc9"/>
      <path id="Path_1471" data-name="Path 1471" d="M980.437,1198.915l18.223-5.69-4.436,35.967,9.162,18.687a1.824,1.824,0,0,1-1.094,2.544l-15.358,4.8-3.416-22.682-24.113-27.054,18.071-5.642,7.848,21.132.836-.262Z" transform="translate(-876.542 -1175.431)" fill="#ffafc9"/>
      <path id="Path_1472" data-name="Path 1472" d="M1039.588,1223.53l-13.431-34.472,10.822-3.379a3.9,3.9,0,0,1,4.952,2.817l7.6,31.929Zm1.966,12.969a7.161,7.161,0,1,1,8.92,4.547A6.9,6.9,0,0,1,1041.554,1236.5Z" transform="translate(-899.028 -1172.829)" fill="#ffafc9"/>
    </g>
    <path id="Path_1473" data-name="Path 1473" d="M868.1,1246.4l15.234,17.28" transform="translate(-11.334 -26.949)" fill="none" stroke="#000" stroke-miterlimit="10" stroke-width="1"/>
    <path id="Path_1474" data-name="Path 1474" d="M931.03,1229.817l2.4,23.189" transform="translate(-32.534 -21.365)" fill="none" stroke="#000" stroke-miterlimit="10" stroke-width="1"/>
    <path id="Path_1475" data-name="Path 1475" d="M969.612,1215.483l14.306,14.891" transform="translate(-45.53 -16.536)" fill="none" stroke="#000" stroke-miterlimit="10" stroke-width="1"/>
    <path id="Path_1476" data-name="Path 1476" d="M1033.123,1196.032l6.352,17.012" transform="translate(-66.924 -9.984)" fill="none" stroke="#000" stroke-miterlimit="10" stroke-width="1"/>
    <path id="Path_1477" data-name="Path 1477" d="M1055.29,1261.457a4.747,4.747,0,0,1,2.567-8.622" transform="translate(-73.719 -29.119)" fill="none" stroke="#000" stroke-miterlimit="10" stroke-width="1"/>
  </g>
</svg>
