<svg xmlns="http://www.w3.org/2000/svg" width="176.54" height="186.277" viewBox="0 0 176.54 186.277">
  <g id="Group_1871" data-name="Group 1871" transform="translate(-904.464 -365.996)">
    <line id="Line_1" data-name="Line 1" x2="17.193" y2="70.968" transform="translate(1042.283 475.541)" fill="#ffb4ce" stroke="#000" stroke-linecap="round" stroke-linejoin="round" stroke-width="1.1"/>
    <line id="Line_2" data-name="Line 2" y1="10.109" x2="41.727" transform="translate(1038.612 541.455)" fill="#ffb4ce" stroke="#000" stroke-linecap="round" stroke-linejoin="round" stroke-width="1.1"/>
    <g id="Group_92" data-name="Group 92" transform="translate(905.128 366.598)">
      <path id="Path_262" data-name="Path 262" d="M984.759,374.751,979.4,448.666a29.93,29.93,0,0,1-36.939,26.912h0a29.928,29.928,0,0,1-20.41-40.891L951.3,366.595Z" transform="translate(-904.307 -366.595)" fill="#ffb4ce" stroke="#000" stroke-linecap="round" stroke-linejoin="round" stroke-width="1.1"/>
      <line id="Line_3" data-name="Line 3" x1="17.294" y2="70.943" transform="translate(20.856 108.983)" fill="#ffb4ce" stroke="#000" stroke-linecap="round" stroke-linejoin="round" stroke-width="1.1"/>
      <line id="Line_4" data-name="Line 4" x2="41.713" y2="10.168" transform="translate(0 174.842)" fill="#ffb4ce" stroke="#000" stroke-linecap="round" stroke-linejoin="round" stroke-width="1.1"/>
      <line id="Line_5" data-name="Line 5" x2="41.093" y2="10.548" transform="translate(34.558 34.997)" fill="#ffb4ce" stroke="#000" stroke-linecap="round" stroke-linejoin="round" stroke-width="1.1"/>
    </g>
    <path id="Path_263" data-name="Path 263" d="M995.028,374.654l5.257,73.923a29.929,29.929,0,0,0,36.9,26.965h0a29.93,29.93,0,0,0,20.468-40.863L1028.5,366.546Z" transform="translate(5.097 0)" fill="#fff460" stroke="#000" stroke-linecap="round" stroke-linejoin="round" stroke-width="1.1"/>
    <line id="Line_6" data-name="Line 6" y1="9.77" x2="40.327" transform="translate(1006.161 401.968)" fill="#ffb4ce" stroke="#000" stroke-linecap="round" stroke-linejoin="round" stroke-width="1.1"/>
    <path id="Path_264" data-name="Path 264" d="M1042.561,420.256c2.454,6.37,4.932,12.836,5.594,19.629s-.708,14.074-5.182,19.229" transform="translate(7.793 3.045)" fill="none" stroke="#000" stroke-linecap="round" stroke-linejoin="round" stroke-width="1.1"/>
    <path id="Path_265" data-name="Path 265" d="M970.3,428.778c-.71,6.789-1.442,13.675-3.941,20.027S959.329,461.019,953,463.576" transform="translate(2.714 3.529)" fill="none" stroke="#000" stroke-linecap="round" stroke-linejoin="round" stroke-width="1.1"/>
  </g>
</svg>
