<svg xmlns="http://www.w3.org/2000/svg" width="683.785" height="100.74" viewBox="0 0 683.785 100.74">
  <g id="Group_2038" data-name="Group 2038" transform="translate(345.719 72.424)" style="isolation: isolate">
    <path id="Path_1867" data-name="Path 1867" d="M-253.121-16.12V26.246h-92.6v-96.6h38.5l-3.726,56.442Z" fill="#fff"/>
    <path id="Path_1868" data-name="Path 1868" d="M-245.807-22.053c0-32.845,23.737-50.37,57.823-50.37s57.822,17.525,57.822,50.37c0,32.706-23.736,50.37-57.822,50.37S-245.807,10.653-245.807-22.053Zm80.041,0c0-6.349-8.556-10.075-22.218-10.075s-22.081,3.726-22.081,10.075c0,6.21,8.418,9.935,22.081,9.935S-165.766-15.843-165.766-22.053Z" fill="#fff"/>
    <path id="Path_1869" data-name="Path 1869" d="M-96.49,26.246l-39.744-96.6h48.576l11.316,53.131h2.484l11.04-53.131H-14.1l-39.744,96.6Z" fill="#fff"/>
    <path id="Path_1870" data-name="Path 1870" d="M26.053-33.37v5.934l43.884-1.38v12.7L26.053-17.5v6.487l61.962-3.036v40.3H-9.138v-96.6H84.7V-31.99Z" fill="#fff"/>
    <path id="Path_1871" data-name="Path 1871" d="M132.861-70.354h90.253v41.538l-28.98-2.208.276,17.94,28.7-2.208V26.246H132.861V-15.292l28.7,2.208.277-17.94-28.981,2.208Z" fill="#fff"/>
    <path id="Path_1872" data-name="Path 1872" d="M231.53,19.9l-.138-44.3c11.316,9.385,31.05,14.9,52.992,14.9,10.627,0,16.284-.689,16.284-3.174,0-10.488-68.724,4-68.724-31.188,0-20.838,22.356-28.565,52.578-28.565,14.214,0,37.951,3.311,49.956,8.693l-5.244,39.469C318.057-30.61,301.772-34.75,286.316-34.75c-10.212,0-17.25,1.243-17.25,3.865,0,10.9,69-5.107,69,28.979,0,20.149-19.32,30.223-52.44,30.223C271.274,28.317,244.227,24.867,231.53,19.9Z" fill="#fff"/>
  </g>
</svg>
