<svg id="Group_1887" data-name="Group 1887" xmlns="http://www.w3.org/2000/svg" width="23.281" height="23.281" viewBox="0 0 23.281 23.281">
  <path id="Path_1437" data-name="Path 1437" d="M11.641,2.1c3.108,0,3.476.012,4.7.068a4.985,4.985,0,0,1,3.5,1.272,4.988,4.988,0,0,1,1.272,3.5c.056,1.227.068,1.6.068,4.7s-.012,3.476-.068,4.7a4.985,4.985,0,0,1-1.272,3.5,4.988,4.988,0,0,1-3.5,1.272c-1.227.056-1.6.068-4.7.068s-3.477-.012-4.7-.068a4.985,4.985,0,0,1-3.5-1.272,4.988,4.988,0,0,1-1.272-3.5c-.056-1.228-.068-1.6-.068-4.7s.012-3.476.068-4.7a4.985,4.985,0,0,1,1.272-3.5,4.988,4.988,0,0,1,3.5-1.272c1.227-.056,1.6-.068,4.7-.068m0-2.1c-3.162,0-3.558.013-4.8.07A6.957,6.957,0,0,0,1.953,1.954,6.956,6.956,0,0,0,.07,6.841C.013,8.083,0,8.479,0,11.641s.013,3.558.07,4.8a6.957,6.957,0,0,0,1.884,4.888,6.956,6.956,0,0,0,4.888,1.884c1.242.056,1.638.07,4.8.07s3.558-.013,4.8-.07a6.958,6.958,0,0,0,4.888-1.884,6.956,6.956,0,0,0,1.884-4.888c.056-1.242.07-1.638.07-4.8s-.013-3.558-.07-4.8a6.957,6.957,0,0,0-1.884-4.888A6.956,6.956,0,0,0,16.44.07C15.2.013,14.8,0,11.641,0Z"/>
  <path id="Path_1438" data-name="Path 1438" d="M21.545,15.568a5.977,5.977,0,1,0,5.977,5.977A5.978,5.978,0,0,0,21.545,15.568Zm0,9.858a3.88,3.88,0,1,1,3.88-3.88A3.88,3.88,0,0,1,21.545,25.426Z" transform="translate(-9.905 -9.905)"/>
  <circle id="Ellipse_25" data-name="Ellipse 25" cx="1.397" cy="1.397" r="1.397" transform="translate(16.458 4.03)"/>
</svg>
