<svg xmlns="http://www.w3.org/2000/svg" width="169.679" height="154.494" viewBox="0 0 169.679 154.494">
  <g id="Group_1945" data-name="Group 1945" transform="translate(-632.548 -597.784)">
    <g id="Group_1943" data-name="Group 1943" transform="translate(633.09 598.326)">
      <path id="Path_1554" data-name="Path 1554" d="M785.121,666.889a76.339,76.339,0,1,0-19.244,58.6q1.5-1.651,2.89-3.392,1.01-1.258,1.966-2.565a75.963,75.963,0,0,0,14.388-52.644ZM709.3,697.61a23.082,23.082,0,0,1-2.99-45.963,23.549,23.549,0,0,1,2.99-.192,23.077,23.077,0,0,1,0,46.155Z" transform="translate(-633.09 -598.326)" fill="#035dff" stroke="#000" stroke-linecap="round" stroke-linejoin="round" stroke-width="1.083" fill-rule="evenodd"/>
      <path id="Path_1555" data-name="Path 1555" d="M736.359,654.763a22.95,22.95,0,0,0-11.453,4.912l-30.222-43.708-.03-.044a75.93,75.93,0,0,1,22.571-11.213l.008.018Z" transform="translate(-663.143 -601.442)" fill="#fff" stroke="#000" stroke-linecap="round" stroke-linejoin="round" stroke-width="1.083" fill-rule="evenodd"/>
      <path id="Path_1556" data-name="Path 1556" d="M787.471,787.471a22.95,22.95,0,0,0,11.453-4.912l30.222,43.708.029.044A75.934,75.934,0,0,1,806.6,837.524l-.008-.018Z" transform="translate(-708.453 -688.261)" fill="#fff" stroke="#000" stroke-linecap="round" stroke-linejoin="round" stroke-width="1.083" fill-rule="evenodd"/>
    </g>
    <g id="Group_1944" data-name="Group 1944" transform="translate(742.186 644.946)">
      <path id="Path_1557" data-name="Path 1557" d="M863.955,719.721l.8-.244-7.363-22.661a4.313,4.313,0,0,1,2.762-5.419l.325-.106a4.319,4.319,0,0,1,5.421,2.762L873.3,716.86l.548-.167-7-21.549a4.313,4.313,0,0,1,2.761-5.42l.326-.1a4.317,4.317,0,0,1,5.42,2.761l7.057,21.717c.244-.055.488-.1.733-.13l-5.1-15.713a3.15,3.15,0,0,1,2.018-3.96l.238-.077a3.154,3.154,0,0,1,3.96,2.017l7.324,22.54q.112.276.206.563l7.389,22.738c1.342,4.134.191,9.15-1.95,12.932l-1.327,2.342,1.569,19.72-21.134,6.526-1.572-19.733c-3.038-.166-5.471-2.661-7.7-5.384l-9.854-12.045-9.972-11.514a4.283,4.283,0,0,1,.535-6.043l.262-.218a4.3,4.3,0,0,1,6.042.534l5.435,6.491-1.861-5.616a7.894,7.894,0,0,1-.38-1.961l-7.839-24.126a4.314,4.314,0,0,1,2.763-5.418l.326-.106a4.315,4.315,0,0,1,5.42,2.761Z" transform="translate(-846.236 -689.409)" fill="#ff6541" stroke="#000" stroke-linecap="round" stroke-linejoin="round" stroke-width="1.083" fill-rule="evenodd"/>
      <path id="Path_1558" data-name="Path 1558" d="M921.625,840.637l-30.309,9.717c1.853,6.754,3.566,13.274,5.175,19.669l31.25-10.153C925.519,852.729,923.423,846.141,921.625,840.637Z" transform="translate(-868.242 -763.232)" fill="#ffafc9" stroke="#000" stroke-linecap="round" stroke-linejoin="round" stroke-width="1.083" fill-rule="evenodd"/>
    </g>
  </g>
</svg>
