<svg xmlns="http://www.w3.org/2000/svg" width="94.682" height="98.124" viewBox="0 0 94.682 98.124">
  <g id="Group_1870" data-name="Group 1870" transform="translate(-1382.442 -393.416)">
    <path id="Path_304" data-name="Path 304" d="M1468.614,490.989l-4.642-3.943c7.954-9.366,8.647-24.577,1.576-34.627-4.663-6.629-12.584-10.838-20.733-11.7a36.946,36.946,0,0,1-1.455,5.427c-1.847,5.248-4.611,8.9-8.215,10.857-4.648,2.522-11.552,1.752-14.42-3.413a9.037,9.037,0,0,1-.512-7.715c1.449-3.942,5.4-7.622,10.069-9.376a32.473,32.473,0,0,1,9.055-1.971c.256-10.736-4.673-21.755-13.279-28.136-11.23-8.324-28.194-8.363-39.461-.091l-3.605-4.909a39.233,39.233,0,0,1,62.472,33.228,35.155,35.155,0,0,1,25.065,14.29C1479.263,461.33,1478.44,479.418,1468.614,490.989Zm-30.029-50.251a25.729,25.729,0,0,0-6.161,1.467c-2.939,1.1-5.67,3.534-6.495,5.776a2.967,2.967,0,0,0,.12,2.657c1.035,1.862,4.233,2.079,6.191,1.017,2.237-1.214,4.045-3.746,5.375-7.526A29.591,29.591,0,0,0,1438.585,440.738Z" fill="#9ef3f3" stroke="#231f20" stroke-linecap="round" stroke-linejoin="round" stroke-width="1.1"/>
  </g>
</svg>
