<svg xmlns="http://www.w3.org/2000/svg" width="155.08" height="139.509" viewBox="0 0 155.08 139.509">
  <g id="Group_1869" data-name="Group 1869" transform="matrix(0.875, 0.485, -0.485, 0.875, -303.409, -636.4)">
    <path id="Path_305" data-name="Path 305" d="M682.248,379.981l-12.272,12.272-2.194,2.194-14.3-14.3,7.643-7.643h13.646Z" transform="translate(-11.282)" fill="#ff6541" stroke="#000" stroke-linecap="round" stroke-linejoin="round" stroke-width="1.1"/>
    <path id="Path_306" data-name="Path 306" d="M727.693,406.654a38.581,38.581,0,1,1-22.156,71.509,42.819,42.819,0,0,0,6.751-7.257,28.931,28.931,0,1,0,0-51.449,29.36,29.36,0,0,0-7.715,5.81,28.964,28.964,0,0,0,0,39.828,32.106,32.106,0,0,1-6.751,6.9,38.611,38.611,0,0,1,0-53.619,39.783,39.783,0,0,1,7.715-6.172,38.293,38.293,0,0,1,17.793-5.521Z" transform="translate(-20.683 -9.58)" fill="#035dff" stroke="#000" stroke-linecap="round" stroke-linejoin="round" stroke-width="1.1"/>
    <path id="Path_307" data-name="Path 307" d="M682.248,379.981l-12.272,12.272-2.194,2.194-14.3-14.3,7.643-7.643h13.646Z" transform="translate(-11.282)" fill="#fff" stroke="#000" stroke-linecap="round" stroke-linejoin="round" stroke-width="1.1"/>
    <path id="Path_308" data-name="Path 308" d="M700.066,443.3a43.4,43.4,0,1,1-45.759-43.348l2.194,2.194,2.194-2.194a43.255,43.255,0,0,1,26.159,10.367,39.783,39.783,0,0,0-7.715,6.172,33.753,33.753,0,1,0,0,53.619,32.106,32.106,0,0,0,6.751-6.9,33.613,33.613,0,0,0,0-39.828,29.36,29.36,0,0,1,7.715-5.81A43.064,43.064,0,0,1,700.066,443.3Z" transform="translate(0 -7.7)" fill="none" stroke="#000" stroke-linecap="round" stroke-linejoin="round" stroke-width="1.1"/>
    <path id="Path_309" data-name="Path 309" d="M700.066,443.3a43.4,43.4,0,1,1-45.759-43.348l2.194,2.194,2.194-2.194a43.255,43.255,0,0,1,26.159,10.367,39.783,39.783,0,0,0-7.715,6.172,33.753,33.753,0,1,0,0,53.619,32.106,32.106,0,0,0,6.751-6.9,33.613,33.613,0,0,0,0-39.828,29.36,29.36,0,0,1,7.715-5.81A43.064,43.064,0,0,1,700.066,443.3Z" transform="translate(0 -7.7)" fill="#fff460" stroke="#000" stroke-linecap="round" stroke-linejoin="round" stroke-width="1.1"/>
    <path id="Path_310" data-name="Path 310" d="M727.693,406.654a38.581,38.581,0,1,1-22.156,71.509,42.819,42.819,0,0,0,6.751-7.257,28.931,28.931,0,1,0,0-51.449,29.36,29.36,0,0,0-7.715,5.81,28.964,28.964,0,0,0,0,39.828,32.106,32.106,0,0,1-6.751,6.9,38.611,38.611,0,0,1,0-53.619,39.783,39.783,0,0,1,7.715-6.172,38.293,38.293,0,0,1,17.793-5.521Z" transform="translate(-20.683 -9.58)" fill="none" stroke="#000" stroke-linecap="round" stroke-linejoin="round" stroke-width="1.1"/>
  </g>
</svg>
