<svg xmlns="http://www.w3.org/2000/svg" width="285.61" height="195.995" viewBox="0 0 285.61 195.995">
  <path id="Path_1312" data-name="Path 1312" d="M338.67,953.224c-.008-.154-.012-.313-.02-.475l-.006-.133c-.146-3.653-1.418-4.317-4.73-3.886-15.842,2.065-30.873,6.289-43.945,15.928-1.82,1.341-3.082,1.307-5.049-.015-15.072-10.14-31.169-12.831-48.385-6.028a4.983,4.983,0,0,1-5.624-.862,44.3,44.3,0,0,0-28.062-9.589c-17.458-.064-32.627,6.357-46.38,16.6-2.128,1.584-3.5,1.823-6.054.493-13.809-7.185-27.227-6.378-40.354,2.306-14.312,9.468-24.265,22.327-31.181,37.833-1.57,3.523-3.3,6.974-5.037,10.425-.934,1.862-1.868,3.72-2.776,5.59l-.058.121c-.511,1.047-.945,1.934.614,2.939,8.545,5.515,10.33,5.031,14.088-4.24.074-.18.141-.365.206-.55a6.719,6.719,0,0,1,.411-.989c1.438-2.663,2.78-5.381,4.121-8.1,3.475-7.042,6.95-14.083,12.138-20.171,3.4-3.991,7.533-7.072,11.64-10.136l.017-.014c.289-.214.577-.429.865-.645,7.643-5.711,16.007-8.437,25.627-4.913,2.827,1.033,2.751,1.578.885,3.6-10.521,11.417-17.229,24.955-21.364,39.788-2.1,7.524-2.178,14.969,2.386,21.925,6.42,9.782,23.662,9.225,31.867.6,13.843-14.561,18.315-39.2,10.187-58.463-2.528-5.992-2.526-5.994,3.021-9.8l.039-.029c12.555-8.615,26.344-12.525,41.567-10.818a22.115,22.115,0,0,1,12.342,5.165c-.137.163-.252.313-.358.449a3.826,3.826,0,0,1-.565.638q-25.953,21.437-28.594,55a17.186,17.186,0,0,0,21.026,18.389,28.745,28.745,0,0,0,15.477-9.091c15.339-16.9,20.384-36.306,13.251-58.277-1.153-3.551.05-4.127,2.932-4.8a42.948,42.948,0,0,1,28.645,3.235l.082.039c4.654,2.168,4.657,2.17,1.294,6.4-9.436,11.88-16.349,24.932-18.408,40.189-1.23,9.107,3.466,17.987,11.1,19.943,9.563,2.448,17.6-.724,24.365-7.754,11.686-12.142,13.711-35.032,5.183-51.336-1.773-3.387-.887-4.726,1.891-6.447,10.065-6.234,21.173-9.456,32.672-11.475l.429-.076c3.385-.592,5.1-.895,5.94-1.915C338.891,958.744,338.819,956.922,338.67,953.224Zm-184.35,61.061c-1.311,5.363-2.914,10.708-6.792,14.93a25.035,25.035,0,0,1-4.233,3.906,8.956,8.956,0,0,1-9.466.376c-2.461-1.252-2.186-3.629-1.937-5.788.035-.3.068-.6.094-.892,1.205-13.354,7.044-24.783,14.993-35.287,1.243-1.639,2.573-3.214,3.9-4.785l.288-.342a2.215,2.215,0,0,1,.708-.473c.157-.083.336-.174.524-.286C156.895,995,156.686,1004.606,154.32,1014.285Zm74.61-6.141c-3.049,8.4-7.334,15.8-15.941,19.7-5.259,2.39-8.26.875-8.062-4.817.342-9.839,3.786-18.911,8.494-27.457a61.474,61.474,0,0,1,13.42-16.684c2.936-2.576,3.7-1.485,4.28,1.52A50.453,50.453,0,0,1,228.93,1008.143Zm55.515,12.059c-2.583,4.2-6.427,7.133-12.011,6.393-2.193-.288-3.032-1.418-3.3-3.469-.37-2.788.317-5.4,1-8.02.045-.171.09-.341.134-.513a67.343,67.343,0,0,1,16.053-29.467C290.727,997.582,291.222,1009.183,284.444,1020.2Z" transform="matrix(-0.921, -0.391, 0.391, -0.921, -58.645, 1096.345)" fill="#ffb4ce"/>
</svg>
