<svg xmlns="http://www.w3.org/2000/svg" width="38.003" height="38.004" viewBox="0 0 38.003 38.004">
  <g id="Group_2036" data-name="Group 2036" transform="translate(-1210 -473)">
    <g id="Group_2035" data-name="Group 2035" transform="translate(1239.22 544.77)">
      <rect id="Rectangle_170" data-name="Rectangle 170" width="38" height="38" transform="translate(-29.22 -71.77)" fill="none"/>
      <rect id="Rectangle_171" data-name="Rectangle 171" width="38" height="38" transform="translate(-29.217 -71.766)" fill="#ffb4ce"/>
      <g id="Group_2031" data-name="Group 2031">
        <path id="Path_1858" data-name="Path 1858" d="M8.783-43.266v9.5h-24.93a3.735,3.735,0,0,1-.09-.46l-1.45-6.06c-.15-.6-.29-1.21-.43-1.81a.936.936,0,0,0-.04-.16c-.01-.05-.02-.11-.03-.16-.26-1.12-.49-2.25-.66-3.39a29.827,29.827,0,0,1-.31-3.4,1.275,1.275,0,0,1-.01-.2,1.2,1.2,0,0,1,0-.19,30.562,30.562,0,0,1,.44-6.33.985.985,0,0,1,.02-.17.06.06,0,0,0,.01-.04v-.03c.01-.03.01-.05.02-.08a10.5,10.5,0,0,1,1.83-4.71,8.491,8.491,0,0,1,5.38-2.88,11.647,11.647,0,0,1,1.31-.14c.06,0,.12-.01.18-.01h.18c.36-.02.71-.02,1.07-.02h.84a.487.487,0,0,0,.12-.01,1.044,1.044,0,0,0,.25,0,15.966,15.966,0,0,0,2.07-.12h.01a.757.757,0,0,1,.15-.01h.01a.757.757,0,0,1,.15-.01h.01c1.6,0,2.75,1.61,3.69,2.76l4.18,5.14a15.275,15.275,0,0,1,3.02,4.85c.57,1.81.45,3.8,1.18,5.54A7.813,7.813,0,0,0,8.783-43.266Z" fill="#f6f6f6"/>
        <g id="Group_2032" data-name="Group 2032">
          <path id="Path_1174" data-name="Path 1174" d="M-10.509-44.8c1.381-.115.6-.815.349-3.373a9.072,9.072,0,0,0,7.919-5.007A2.229,2.229,0,0,0,.55-54.646a2.228,2.228,0,0,0-1.465-2.79,2.227,2.227,0,0,0-2.026.364,7.373,7.373,0,0,0-2.584-5.339,9.357,9.357,0,0,0-5.592-2.18,10.891,10.891,0,0,0-7.743,2.683,10.913,10.913,0,0,0-3.226,7.539,1.726,1.726,0,0,0-2.361.619,1.726,1.726,0,0,0,.418,2.223,2.173,2.173,0,0,0,1.487.43,4.067,4.067,0,0,0,1.511-.316,7.569,7.569,0,0,0,6.987,3.49l.148,3.918A26.946,26.946,0,0,1-10.509-44.8Z" fill="#ffb4ce"/>
          <path id="Path_1859" data-name="Path 1859" d="M.523-56.416a2.354,2.354,0,0,0-1.39-1.16,2.356,2.356,0,0,0-1.94.23,7.465,7.465,0,0,0-1.91-4.47c-.06-.07-.11-.14-.17-.2a6.51,6.51,0,0,0-.54-.51q-.2-.165-.39-.3a.47.47,0,0,0-.12-.09.938.938,0,0,0-.12-.09,5.09,5.09,0,0,0-.74-.46,7.365,7.365,0,0,0-1.09-.54,7.94,7.94,0,0,0-1.5-.48c0-.01,0-.01-.01-.01h-.01a.185.185,0,0,0-.07-.02,2.048,2.048,0,0,0-.24-.05c-.16-.03-.32-.06-.48-.08a1.1,1.1,0,0,0-.18-.02.554.554,0,0,0-.18-.02,5.107,5.107,0,0,0-.55-.05c-.07,0-.15-.01-.22-.01-.26-.01-.51-.01-.77,0a10.986,10.986,0,0,0-1.928.26c-.046.009-.089.022-.134.032a10.844,10.844,0,0,0-2.569.938l-.079.04-.06.03c-.02.01-.05.02-.07.03l-.03.02-.01.01c-.21.11-.41.22-.61.34a9.03,9.03,0,0,0-1.17.86c-.07.05-.14.11-.21.17l-.1.1a10.936,10.936,0,0,0-2.02,2.83c-.01.02-.01.03-.02.05l-.01.01a.06.06,0,0,1-.01.04c0,.01-.01.01-.01.02a.01.01,0,0,0-.01.01.611.611,0,0,1-.07.14c-.08.17-.16.35-.23.53a.942.942,0,0,1-.04.1c-.02.04-.03.08-.05.12-.12.33-.23.67-.32,1.01-.01.05-.03.1-.04.16a8.588,8.588,0,0,0-.2,1.01,1.261,1.261,0,0,0-.04.28,8.256,8.256,0,0,0-.09,1,1.925,1.925,0,0,0-1.21-.09,1.884,1.884,0,0,0-1.14.87,1.887,1.887,0,0,0,.46,2.42,2.3,2.3,0,0,0,1.58.46,4.244,4.244,0,0,0,1.45-.28,7.586,7.586,0,0,0,1.93,2.02,7.7,7.7,0,0,0,4.97,1.44l.12,3.16v.16l.01.17.01.28a.152.152,0,0,0,.06.11.161.161,0,0,0,.09.03h.05a25.277,25.277,0,0,1,3.36-.8,1,1,0,0,0,.8-.31.535.535,0,0,0,.11-.28.757.757,0,0,0,.01-.15.757.757,0,0,0-.01-.15,6.281,6.281,0,0,0-.13-.78c-.09-.44-.21-.99-.29-1.7a9.2,9.2,0,0,0,7.83-4.98,2.311,2.311,0,0,0,1.69-.2,2.327,2.327,0,0,0,1.17-1.4A2.333,2.333,0,0,0,.523-56.416ZM.4-54.686a2.023,2.023,0,0,1-1.02,1.22,2.023,2.023,0,0,1-1.58.14.15.15,0,0,0-.18.08,8.883,8.883,0,0,1-7.79,4.92.161.161,0,0,0-.11.05.168.168,0,0,0-.03.12,15.335,15.335,0,0,0,.31,1.9,4.366,4.366,0,0,1,.13.73.864.864,0,0,1,.01.15.334.334,0,0,1-.03.15.2.2,0,0,1-.04.08c-.08.11-.27.17-.59.2h-.02a27.764,27.764,0,0,0-3.22.74l-.01-.18v-.17l-.01-.15-.12-3.22a.161.161,0,0,0-.05-.11.178.178,0,0,0-.1-.04h-.01a7.341,7.341,0,0,1-5.11-1.52,7.039,7.039,0,0,1-1.74-1.9.144.144,0,0,0-.18-.05,4.018,4.018,0,0,1-1.47.3,2.008,2.008,0,0,1-1.38-.4,1.585,1.585,0,0,1-.38-2.03,1.575,1.575,0,0,1,.96-.73,1.593,1.593,0,0,1,1.19.17.2.2,0,0,0,.15,0,.156.156,0,0,0,.08-.13c.01-.41.04-.82.09-1.22a.148.148,0,0,1,.01-.07c.01-.08.02-.15.03-.23l.03-.12a10.582,10.582,0,0,1,3.02-5.79,10.66,10.66,0,0,1,7.63-2.65,6.009,6.009,0,0,1,.73.07.628.628,0,0,1,.19.03.582.582,0,0,1,.19.03,8.079,8.079,0,0,1,1.29.31,8.974,8.974,0,0,1,2.46,1.22.938.938,0,0,1,.12.09.47.47,0,0,1,.12.09c.14.1.27.2.4.31a5.44,5.44,0,0,1,.49.47.62.62,0,0,1,.14.14,5.585,5.585,0,0,1,.39.46l.02.03a6.221,6.221,0,0,1,.45.65,6.949,6.949,0,0,1,.86,2.11c0,.01.01.02.01.03a6.713,6.713,0,0,1,.17,1.18.86.86,0,0,1,.01.16.123.123,0,0,0,.05.1s0,.02.01.02a.035.035,0,0,0,.02.01.157.157,0,0,0,.16-.02,2.094,2.094,0,0,1,1.89-.34,2.092,2.092,0,0,1,1.22,1.02A2.047,2.047,0,0,1,.4-54.686Z" fill="#1b1f26"/>
        </g>
        <path id="Path_1860" data-name="Path 1860" d="M-12.694-48.855A2.066,2.066,0,0,1-14-49.321a.15.15,0,0,1-.022-.211.149.149,0,0,1,.211-.022,1.778,1.778,0,0,0,2.5-.254,1.78,1.78,0,0,0,.33-.63.146.146,0,0,1,.185-.1.149.149,0,0,1,.1.185,2.048,2.048,0,0,1-.386.736A2.073,2.073,0,0,1-12.694-48.855Z" fill="#1b1f26"/>
        <path id="Path_1176" data-name="Path 1176" d="M-3.271-58.857a5.871,5.871,0,0,0-.966-1.923,8.325,8.325,0,0,0-2.42-2.6A6.188,6.188,0,0,0-8.226-64.2a15.428,15.428,0,0,0-1.864-.439,5.833,5.833,0,0,0-1.782-.137c-.59.052-1.169.151-1.751.243a6.646,6.646,0,0,0-1.855.524,3.973,3.973,0,0,1-.889.328l-.037.02a1.365,1.365,0,0,0-.2.079c-.067.029-.136.068-.2.1l-.056.033a.264.264,0,0,0-.071.031l-.025.016-.011.007a9.364,9.364,0,0,0-3.986,3.915,3.5,3.5,0,0,1-.166.491,1.692,1.692,0,0,1-.2.326c-.028.094-.06.187-.091.279l-.019.044a.306.306,0,0,0-.013.043s-.037.1-.049.144a1.453,1.453,0,0,0-.153.387l-.021.066c-.013.032-.024.065-.039.1a.416.416,0,0,0-.029.1l-.023.009c-.018.01-.041.021-.064.035a1.934,1.934,0,0,1-.083.2c-.017.044-.036.087-.054.129s-.05.1-.075.164-.051.134-.077.205l0,.028a.088.088,0,0,1,0,.028l-.006.011a.4.4,0,0,0-.06.258.6.6,0,0,0,.012.085.314.314,0,0,0-.079.248.34.34,0,0,0,.233.247.361.361,0,0,0,.209.21.228.228,0,0,0,.038.038.383.383,0,0,0,.283.087.4.4,0,0,0,.24-.106,4.639,4.639,0,0,0,.808,0,4.594,4.594,0,0,0,1.03-.209.357.357,0,0,0,.077-.035c.129,0,.26-.007.391-.017a.4.4,0,0,1,.057-.073,1.61,1.61,0,0,1,.867-.411A3.737,3.737,0,0,0-17-56.835a16.35,16.35,0,0,0,1.937-1.228,6.062,6.062,0,0,0,1.468-1.627,9.227,9.227,0,0,0,.469-1.009c.121-.278.365-.571.339-.884A.382.382,0,0,1-12.438-62a.381.381,0,0,1,.412.347,1.314,1.314,0,0,0,.231.486,3.922,3.922,0,0,1,.221.491,2.527,2.527,0,0,0,.621,1A17.786,17.786,0,0,0-9.087-58.2a5.443,5.443,0,0,0,2.116.745c.388.086.759.253,1.154.3.414.056.834.043,1.249.1a.349.349,0,0,1,.222.117.671.671,0,0,0,.1-.013,1.512,1.512,0,0,0,.506.04,1.507,1.507,0,0,0,.2-.031.388.388,0,0,0,.281.091.35.35,0,0,0,.243-.131A.271.271,0,0,0-2.982-57,14.337,14.337,0,0,1-3.271-58.857Z" fill="#ffb4ce"/>
        <path id="Path_1177" data-name="Path 1177" d="M-3.029-57.508l-.087-.208-.027-.457a.113.113,0,0,0-.1-.111c-.01-.05-.021-.1-.032-.148a.121.121,0,0,0,.016-.109c-.03-.1-.064-.2-.1-.292a.1.1,0,0,0,.015-.108c-.054-.131-.114-.259-.175-.386a.1.1,0,0,0,0-.025c-.007-.027-.018-.053-.026-.079a.1.1,0,0,0,.02-.12,4.287,4.287,0,0,0-.34-.625c-.052-.1-.108-.182-.167-.27a.114.114,0,0,0-.058-.043l-.047-.061a.137.137,0,0,0-.006-.18l-.468-.5a.128.128,0,0,0-.01-.178q-.187-.182-.384-.351l-.358-.328a.1.1,0,0,0-.011-.126l-.024-.025h0a2.731,2.731,0,0,0-.592-.512,5.8,5.8,0,0,0-3.045-1.541c-.088-.009-.44-.3-.441-.226a6.828,6.828,0,0,0-3.428-.018c-.176.024-.6-.082-.725,0a2.979,2.979,0,0,0-.852.165c-.189-.024-.314.228-.541.325-.437.193-.865.4-1.289.623a1.1,1.1,0,0,0-.194.072c-.1.049-.2.106-.3.158V-63.2l-.053.034a9.057,9.057,0,0,0-3.918,3.88c-.086.166-.347.166-.36.32-.053,0,.11.191.09.256-.042.148-.091.294-.141.44l-.011.026,0,.016c-.02.061-.042.124-.064.186a1.155,1.155,0,0,0-.141.352c-.026.063-.047.126-.074.187a.124.124,0,0,0,0,.091c-.057.16-.3.146-.336.311,0,.007-.228.2-.01.222-.062.138-.01.1-.043.249-.014.043-.087.128-.056.155-.012.045.04.149.028.2s-.114.117-.088.142c-.009.041.222.081.212.127a.121.121,0,0,0,.094.144.118.118,0,0,0,.053,0c.011.123.186.127.239.032a.238.238,0,0,1,.015-.055s.009,0,.014.007a.213.213,0,0,0,.094,0,4.393,4.393,0,0,0,1.782-.2.111.111,0,0,0,.059-.047c2.249.036,4.378-1.515,5.835-3.408a.3.3,0,0,1,.019-.3,4.322,4.322,0,0,0,.442-1c.057-.171.11-.343.172-.511a1.805,1.805,0,0,1,.09-.224c.021-.036.045-.072.069-.106.045-.053.044-.058,0-.016.018-.388.617-.4.731-.064a6.09,6.09,0,0,0,.7,1.456A10.8,10.8,0,0,0-10.3-59.1a9.844,9.844,0,0,0,.976.929,9.433,9.433,0,0,0,4.286,1.05.92.92,0,0,0,.394-.083.123.123,0,0,0,.095.04,1.766,1.766,0,0,0,.3-.041,1.259,1.259,0,0,0,.8-.025c0,.124.188.2.236.06,0-.036.021-.049.057-.041.107,0,.134-.1.1-.178A.126.126,0,0,0-3.029-57.508Z" fill="#fff460"/>
        <g id="Group_1740" data-name="Group 1740">
          <path id="Path_1178" data-name="Path 1178" d="M-16.878-52.181a1.244,1.244,0,0,1-1.348-1.132,1.244,1.244,0,0,1,1.131-1.348l2.2-.192a1.245,1.245,0,0,1,1.348,1.132,1.244,1.244,0,0,1-1.132,1.348Z" fill="#1b1f26"/>
          <path id="Rectangle_76" data-name="Rectangle 76" d="M-17.068-54.356l2.2-.192a.939.939,0,0,1,1.017.853h0a.938.938,0,0,1-.853,1.016l-2.2.192a.94.94,0,0,1-1.017-.853h0A.939.939,0,0,1-17.068-54.356Z" fill="#fff"/>
          <path id="Path_1179" data-name="Path 1179" d="M-13.854-53.695h0a.939.939,0,0,1-.853,1.017h0l-.787.069-.164-1.87.787-.068A.938.938,0,0,1-13.854-53.695Z" fill="#1b1f26"/>
          <path id="Path_1180" data-name="Path 1180" d="M-11.34-52.665A1.245,1.245,0,0,1-12.689-53.8a1.246,1.246,0,0,1,1.132-1.349l2.2-.192a1.245,1.245,0,0,1,1.349,1.132,1.244,1.244,0,0,1-1.132,1.348Z" fill="#1b1f26"/>
          <path id="Rectangle_77" data-name="Rectangle 77" d="M-11.53-54.84l2.2-.192a.939.939,0,0,1,1.017.853h0a.94.94,0,0,1-.854,1.017l-2.2.191a.938.938,0,0,1-1.017-.853h0A.938.938,0,0,1-11.53-54.84Z" fill="#fff"/>
          <path id="Path_1181" data-name="Path 1181" d="M-8.316-54.178h0a.94.94,0,0,1-.854,1.017h0l-.786.068-.164-1.869.787-.069A.939.939,0,0,1-8.316-54.178Z" fill="#1b1f26"/>
        </g>
        <g id="Group_2033" data-name="Group 2033">
          <path id="Path_1861" data-name="Path 1861" d="M4.333-33.766H-24.8a18.717,18.717,0,0,1,6.64-8.49,19.094,19.094,0,0,1,4.09-2.19.88.88,0,0,1,.15-.05l.15-.06c.13-.05.26-.1.39-.14a13.756,13.756,0,0,1,3.17-.66c.12-.01.23-.02.35-.02a.757.757,0,0,1,.15-.01.66.66,0,0,1,.14-.01c.18-.01.37-.01.55-.01A13.486,13.486,0,0,1,4.333-33.766Z" fill="#fff"/>
          <path id="Path_1862" data-name="Path 1862" d="M-9.577-45.546a.708.708,0,0,0-.14.01.757.757,0,0,0-.15.01c-.12,0-.23.01-.35.02a13.589,13.589,0,0,0-3.21.67c-.12.04-.23.08-.35.13a.784.784,0,0,0-.14.05.88.88,0,0,0-.15.05,18.88,18.88,0,0,0-4.12,2.19,18.782,18.782,0,0,0-6.78,8.65h.32a18.483,18.483,0,0,1,6.53-8.33,18,18,0,0,1,4.06-2.18.938.938,0,0,1,.15-.06.784.784,0,0,1,.14-.05c.15-.06.29-.11.44-.16a12.914,12.914,0,0,1,3.14-.66c.1-.01.2-.02.3-.02a.86.86,0,0,1,.16-.01.757.757,0,0,1,.15-.01,5.429,5.429,0,0,1,.57-.02,13.219,13.219,0,0,1,8.55,3.13,13.27,13.27,0,0,1,4.64,8.37h.3A13.656,13.656,0,0,0-9.577-45.546Z" fill="#1b1f26"/>
        </g>
        <path id="Path_1863" data-name="Path 1863" d="M-4.717-61.816c-.06-.07-.11-.14-.17-.2a6.51,6.51,0,0,0-.54-.51h0c-.122-.111-.228-.235-.36-.339a.524.524,0,0,0-.11-.1l-.12-.09a7.359,7.359,0,0,0-1.5-.96,7.7,7.7,0,0,0-1.93-.65,7.989,7.989,0,0,0-.83-.14l-.19-.03a1.1,1.1,0,0,1-.18-.02,10.8,10.8,0,0,0-7.08,1.83,9.954,9.954,0,0,0-1.223,1l-.017.014-.026.026c-.09.086-.186.164-.274.254a8.939,8.939,0,0,0-.95,1.09,11.07,11.07,0,0,0-2.15,4.86.2.2,0,0,0,.03.11.152.152,0,0,0,.11.06c.03,0,.06.01.09.01.05,0,.1.01.15.01s.1.01.14.01a.375.375,0,0,1,.11.01h.01c.14,0,.27.01.4.01h.08c.242,0,.477-.032.715-.05.031,0,.063,0,.095,0s.061-.01.091-.013a8.611,8.611,0,0,0,1.388-.247h.021l0-.005c.068-.019.139-.025.206-.045a8.944,8.944,0,0,0,3.6-1.97,3.879,3.879,0,0,0,.42-.39,8.425,8.425,0,0,0,1.1-1.35,9.411,9.411,0,0,0,1.14-2.34v-.01c.01-.02.01-.04.02-.06.01.02.02.03.03.05v.01a8.762,8.762,0,0,0,1.02,1.72,7.572,7.572,0,0,0,.69.81,8.163,8.163,0,0,0,.74.7l.01.01a9.771,9.771,0,0,0,1.11.8c.03.02.07.03.1.05a9.387,9.387,0,0,0,5.28,1c.13-.01.27-.03.4-.05h.04a.159.159,0,0,0,.12-.15A7.8,7.8,0,0,0-4.717-61.816Zm1.13,4.63a3.866,3.866,0,0,1-.48.03h-.01a3.976,3.976,0,0,1-.69,0,8.963,8.963,0,0,1-3.93-1.05,9.039,9.039,0,0,1-3.64-4.34.154.154,0,0,0-.15-.1.15.15,0,0,0-.13.11,8.9,8.9,0,0,1-6.06,6.29c-.12.04-.25.07-.37.11a.037.037,0,0,0-.03.01c-.23.05-.46.1-.69.14a.06.06,0,0,0-.04.01,11.905,11.905,0,0,1-1.34.11h-.23c-.11,0-.23-.01-.34-.02a.139.139,0,0,1-.09,0,.66.66,0,0,1-.14-.01h-.09c.02-.08.03-.16.05-.24a.037.037,0,0,1,.01-.03,2.211,2.211,0,0,1,.05-.25v-.01a1.39,1.39,0,0,1,.06-.19c-.01-.01,0-.01,0-.02q.075-.3.18-.6a8.464,8.464,0,0,1,.48-1.21c.05-.11.1-.22.14-.32a.388.388,0,0,0,.06-.11c.08-.14.15-.28.23-.41a.138.138,0,0,1,.03-.04,10.551,10.551,0,0,1,3-3.31,2.307,2.307,0,0,1,.19-.14,10.237,10.237,0,0,1,2.54-1.27.01.01,0,0,1,.01-.01,10.663,10.663,0,0,1,2.57-.52c.24-.02.49-.03.74-.03h.04a9.772,9.772,0,0,1,1.08.06c.03,0,.07.01.1.01a1.127,1.127,0,0,1,.18.03.772.772,0,0,1,.15.02h.03c.2.03.41.07.61.11a8.141,8.141,0,0,1,1.28.37.355.355,0,0,1,.09.04c.18.07.37.16.55.25l.24.12a7.8,7.8,0,0,1,1.14.76l.01.01a.812.812,0,0,1,.1.09.436.436,0,0,1,.11.09,5.5,5.5,0,0,1,.85.82.62.62,0,0,1,.14.14,7.547,7.547,0,0,1,1.79,4.46,1.941,1.941,0,0,1-.24.02A.34.34,0,0,1-3.587-57.186Z" fill="#1b1f26"/>
        <g id="Group_2034" data-name="Group 2034">
          <path id="Path_1254" data-name="Path 1254" d="M-10.377-64.667a2.606,2.606,0,0,1,.863-3.583l.1-.054a2.863,2.863,0,0,1,2.876.13A3.341,3.341,0,0,1-5.082-65.65a4.028,4.028,0,0,1-.909,2.807c-.578.717-1.822.435-2.661.054A4.141,4.141,0,0,1-10.377-64.667Z" fill="#fff460"/>
          <path id="Path_1864" data-name="Path 1864" d="M-6.467-68.3a3.013,3.013,0,0,0-3.03-.14l-.1.06a2.766,2.766,0,0,0-1.05,3.52.827.827,0,0,0,.07.13l.01.01a.037.037,0,0,0,.01.03.405.405,0,0,0,.05.09l.03.06c.03.06.05.11.08.16a3.258,3.258,0,0,0,.24.4,4.248,4.248,0,0,0,1.44,1.32,3.991,3.991,0,0,0,1.63.4,1.544,1.544,0,0,0,1.06-.35c.02,0,.03-.02.04-.04a.265.265,0,0,0,.06-.05c.01,0,.01,0,.01-.01.02-.01.03-.03.04-.04l.01-.01c.02-.02.03-.05.05-.07a.138.138,0,0,0,.03-.04,3.762,3.762,0,0,0,.66-1.29h.01a4.181,4.181,0,0,0,.18-1.5A3.417,3.417,0,0,0-6.467-68.3Zm.41,5.29c-.01.02-.03.04-.04.06l-.01.01c-.02.02-.03.04-.05.04v.01a.121.121,0,0,1-.05.05.265.265,0,0,1-.06.05,2.486,2.486,0,0,1-2.31-.13,3.93,3.93,0,0,1-1.22-1.07,3.783,3.783,0,0,1-.22-.33c-.03-.05-.07-.11-.1-.17a1.194,1.194,0,0,1-.08-.16.01.01,0,0,0-.01-.01v-.01l-.03-.06c-.01-.01-.01-.01-.01-.02l-.03-.06a2.443,2.443,0,0,1,.84-3.31l.09-.06a2.741,2.741,0,0,1,1.25-.3,2.656,2.656,0,0,1,1.47.43,3.175,3.175,0,0,1,1.39,2.41,3.638,3.638,0,0,1-.2,1.5,3.532,3.532,0,0,1-.58,1.08A.1.1,0,0,1-6.057-63.006Z" fill="#1b1f26"/>
        </g>
      </g>
    </g>
  </g>
</svg>
