<svg xmlns="http://www.w3.org/2000/svg" width="12.293" height="12.915" viewBox="0 0 12.293 12.915">
  <g id="Group_1878" data-name="Group 1878" transform="translate(-26.373 50.462)">
    <g id="Path_1431" data-name="Path 1431">
      <path id="Path_1865" data-name="Path 1865" d="M37.848-47.426l-1.664,3.165-.135.256.135.256,1.664,3.165-3.525-.606-.285-.049-.2.208-2.495,2.562-.514-3.54-.042-.286-.259-.128-3.207-1.582,3.207-1.583.259-.128L30.827-46l.514-3.539,2.5,2.561.2.207.285-.049Z" fill="#ffb4ce"/>
      <path id="Path_1866" data-name="Path 1866" d="M28.562-44.005l2.207,1.089.519.256.083.572.354,2.436,1.717-1.763.4-.415.571.1,2.426.417L35.7-43.493l-.269-.512.269-.512L36.843-46.7l-2.427.416-.569.1-.4-.414-1.718-1.763-.354,2.436-.083.572-.519.256-2.207,1.09m-2.189,0a.235.235,0,0,1,.115-.2l3.794-1.873.609-4.187a.227.227,0,0,1,.154-.183.225.225,0,0,1,.232.057l2.954,3.03,4.171-.715a.224.224,0,0,1,.221.09.224.224,0,0,1,.043.133.222.222,0,0,1-.026.106l-1.969,3.745L38.64-40.26a.218.218,0,0,1,.026.1.227.227,0,0,1-.043.134.228.228,0,0,1-.222.09l-4.171-.717-2.952,3.032a.227.227,0,0,1-.233.058.227.227,0,0,1-.154-.184l-.609-4.188L26.488-43.8A.238.238,0,0,1,26.373-44.005Z"/>
    </g>
  </g>
</svg>
