<svg xmlns="http://www.w3.org/2000/svg" width="100.786" height="96.206" viewBox="0 0 100.786 96.206">
  <g id="Group_1894" data-name="Group 1894" transform="translate(-1186.276 -803.062)">
    <path id="Path_1460" data-name="Path 1460" d="M1286.191,839.9h0a31.587,31.587,0,0,0-60.669-16.159,31.588,31.588,0,0,0-20.835,59.227v0l.029.012a31.742,31.742,0,0,0,3.775,1.519c7.722,3.059,25.772,9.953,40.52,13.611a20.961,20.961,0,0,0,24.718-13.061c5.287-14.244,9.762-33.037,11.586-41.143a31.815,31.815,0,0,0,.873-3.977Z" transform="translate(0 0)" fill="#035dff" stroke="#000" stroke-miterlimit="10" stroke-width="1"/>
    <path id="Path_1461" data-name="Path 1461" d="M1266.041,896.159a15.4,15.4,0,0,1-10.917,1.327c-14.559-3.612-32.691-10.563-39.811-13.384l-.149-.06-.152-.05a26.243,26.243,0,0,1-3.053-1.222l-.084-.041a26.082,26.082,0,0,1-.978-46.383l.136-.072a26.01,26.01,0,0,1,18.009-2.341l4.69,1.084,1.747-4.486a26.016,26.016,0,0,1,12.082-13.56l.134-.07a26.03,26.03,0,0,1,37.77,26.942l-.019.126a26.289,26.289,0,0,1-.706,3.18l-.044.154-.036.156c-1.68,7.47-6.152,26.362-11.373,40.428a15.4,15.4,0,0,1-7.247,8.27Z" transform="translate(-4.777 -4.777)" fill="#ffafc9" stroke="#000" stroke-miterlimit="10" stroke-width="1"/>
    <path id="Path_1462" data-name="Path 1462" d="M1268.229,896.028a9.843,9.843,0,0,1-6.979.847c-14.234-3.531-32.086-10.377-39.1-13.157l-.294-.118-.312-.1a20.663,20.663,0,0,1-2.4-.96l-.053-.026a20.521,20.521,0,0,1-.777-36.475l.116-.061a20.445,20.445,0,0,1,14.15-1.835l9.379,2.169,3.493-8.97a20.453,20.453,0,0,1,9.5-10.661l.125-.066a20.467,20.467,0,0,1,29.68,21.191l-.018.117a20.636,20.636,0,0,1-.554,2.485l-.088.306-.071.313c-1.656,7.362-6.057,25.963-11.162,39.717A9.841,9.841,0,0,1,1268.229,896.028Z" transform="translate(-9.563 -9.563)" fill="#ffef60" stroke="#000" stroke-miterlimit="10" stroke-width="1"/>
    <path id="Path_1463" data-name="Path 1463" d="M1270.417,895.895a4.287,4.287,0,0,1-3.042.366c-13.9-3.45-31.481-10.191-38.391-12.929l-.437-.175-.473-.156a14.99,14.99,0,0,1-1.75-.7l-.017-.009a14.958,14.958,0,0,1-.582-26.57l.087-.046a14.875,14.875,0,0,1,10.3-1.334l14.069,3.253,5.24-13.456a14.885,14.885,0,0,1,6.914-7.76l.116-.062a14.905,14.905,0,0,1,21.59,15.439l-.016.1a15.161,15.161,0,0,1-.4,1.8l-.131.458-.106.468c-1.632,7.257-5.964,25.573-10.951,39.008A4.284,4.284,0,0,1,1270.417,895.895Z" transform="translate(-14.35 -14.348)" fill="#ff6541" stroke="#000" stroke-miterlimit="10" stroke-width="1"/>
    <path id="Path_1464" data-name="Path 1464" d="M1238.464,879.816a9.224,9.224,0,0,0-4.937,17.395" transform="translate(-19.282 -35.208)" fill="none" stroke="#fff" stroke-miterlimit="10" stroke-width="1"/>
    <path id="Path_1465" data-name="Path 1465" d="M1244.834,916.324" transform="translate(-26.807 -52.101)" fill="none" stroke="#fff" stroke-miterlimit="10" stroke-width="1"/>
  </g>
</svg>
