<svg xmlns="http://www.w3.org/2000/svg" width="78.839" height="96.409" viewBox="0 0 78.839 96.409">
  <path id="Path_1257" data-name="Path 1257" d="M1264.718,133.886c.32-.01.645-.034.969-.034h-1.942c-22.206-1.239-36.281-23.732-37.435-45.305V85.682c0,.7-.015,1.416-.042,2.127-.029-.711-.042-1.423-.042-2.127v2.865c-1.159,21.573-15.23,44.066-37.442,45.305h-1.936c.324,0,.643.023.968.034-.326.005-.644.034-.968.034h1.936c22.211,1.239,36.283,23.732,37.442,45.305v2.865c0-.7.014-1.416.039-2.127.03.711.045,1.424.045,2.127v-2.865c1.154-21.573,15.227-44.066,37.435-45.305h1.942C1265.363,133.92,1265.038,133.891,1264.718,133.886Z" transform="translate(-1186.848 -85.682)" fill="#ffb4ce"/>
</svg>
