<svg xmlns="http://www.w3.org/2000/svg" xmlns:xlink="http://www.w3.org/1999/xlink" viewBox="0 0 346 168" width="346" height="168" style="width: 100%; height: 100%; transform: translate3d(0px, 0px, 0px); content-visibility: visible;" preserveAspectRatio="xMidYMid meet"><defs><clipPath id="__lottie_element_10"><rect width="346" height="168" x="0" y="0"></rect></clipPath><g id="__lottie_element_14"><g style="display: block;" transform="matrix(1,0,0,1,3.4669952392578125,7.081001281738281)" opacity="1"><g opacity="1" transform="matrix(1,0,0,1,166.19400024414062,77.2239990234375)"><path fill="rgb(255,255,255)" fill-opacity="1" d=" M165.79400634765625,-27.979000091552734 C165.38800048828125,-9.79800033569336 145.23500061035156,8.892000198364258 136.58299255371094,16.082000732421875 C119.58200073242188,30.233999252319336 98.37200164794922,41.707000732421875 71.75700378417969,51.1510009765625 C45.8129997253418,60.222999572753906 19.086999893188477,66.88400268554688 -8.081000328063965,71.0479965209961 C-39.04600143432617,75.89800262451172 -68.75599670410156,76.9739990234375 -96.4000015258789,74.23799896240234 C-123.66600036621094,71.5479965209961 -149.99899291992188,65.86900329589844 -158,42.6870002746582 C-165.94400024414062,19.66699981689453 -147.53700256347656,-4.52400016784668 -130.7050018310547,-20.770999908447266 C-113.26000213623047,-37.59299850463867 -91.13500213623047,-50.68899917602539 -64.96299743652344,-59.69900131225586 C-40.507999420166016,-68.1050033569336 -12.892999649047852,-73.37899780273438 19.4689998626709,-75.81400299072266 C29.83799934387207,-76.58699798583984 40.23099899291992,-76.9739990234375 50.650001525878906,-76.9739990234375 C70.7229995727539,-76.97200012207031 90.76899719238281,-75.54399871826172 110.63800048828125,-72.69999694824219 C110.67500305175781,-72.69999694824219 110.93000030517578,-72.51200103759766 111.11799621582031,-71.822998046875 C111.46700286865234,-70.61000061035156 111.37300109863281,-69.31199645996094 110.8550033569336,-68.16200256347656 C79.84400177001953,-72.30500030517578 48.474998474121094,-73.06700134277344 17.298999786376953,-70.43599700927734 C-16.70400047302246,-67.51100158691406 -45.23500061035156,-61.55799865722656 -69.9260025024414,-52.22700119018555 C-94.11699676513672,-43.07500076293945 -114.48600006103516,-30.639999389648438 -130.45899963378906,-15.251999855041504 C-148.43299865722656,2.071000099182129 -157.66900634765625,17.476999282836914 -157.90499877929688,30.554000854492188 C-158.03799438476562,37.875 -155.33900451660156,44.45199966430664 -149.87600708007812,50.10300064086914 C-140.13999938964844,60.18899917602539 -125.88400268554688,63.584999084472656 -115.99600219726562,65.25499725341797 C-102.70700073242188,67.41999816894531 -89.28299713134766,68.64700317382812 -75.822998046875,68.92500305175781 C-50.80099868774414,69.5770034790039 -24.072999954223633,67.26499938964844 3.61899995803833,62.07600021362305 C44.31999969482422,54.43299865722656 96.0510025024414,41.59299850463867 135.16799926757812,9.79699993133545 C143.4239959716797,3.0799999237060547 153.6790008544922,-5.986999988555908 159.7270050048828,-16.648000717163086 C163.98199462890625,-24.14900016784668 164.19000244140625,-30.527000427246094 160.35800170898438,-36.159000396728516 C157.8300018310547,-39.875999450683594 153.96200561523438,-43.104000091552734 148.50900268554688,-46.03799819946289 C137.1959991455078,-52.12300109863281 123.81700134277344,-54.55699920654297 113.41100311279297,-55.99100112915039 C100.05899810791016,-57.76300048828125 86.53500366210938,-57.84199905395508 73.16200256347656,-56.22700119018555 C72.64199829101562,-57.35599899291992 72.54399871826172,-58.63600158691406 72.88899993896484,-59.83100128173828 C73.0770034790039,-60.51100158691406 73.34200286865234,-60.76499938964844 73.38899993896484,-60.775001525878906 C89.89800262451172,-63.21699905395508 106.69400024414062,-62.95600128173828 123.11900329589844,-60.000999450683594 C129.2100067138672,-59.01300048828125 135.21600341796875,-57.558998107910156 141.08399963378906,-55.6510009765625 C147.00999450683594,-53.75899887084961 152.48899841308594,-50.680999755859375 157.18899536132812,-46.604000091552734 C163.05799865722656,-41.26300048828125 165.94400024414062,-34.999000549316406 165.79400634765625,-27.979000091552734z"></path></g></g></g><mask id="__lottie_element_14_1" mask-type="alpha"><use xlink:href="#__lottie_element_14"></use></mask></defs><g clip-path="url(#__lottie_element_10)"><g style="display: block;" mask="url(#__lottie_element_14_1)"><g transform="matrix(1,0,0,1,173,84)" opacity="1"><g opacity="1" transform="matrix(1,0,0,1,0,0)"><path fill="rgb(249,89,77)" fill-opacity="0" d="M0 0"></path><path stroke-linecap="butt" stroke-linejoin="miter" fill-opacity="0" stroke-miterlimit="4" stroke="rgb(255,255,255)" stroke-opacity="1" stroke-width="11" d="M0 0"></path></g></g></g></g></svg>