<svg xmlns="http://www.w3.org/2000/svg" xmlns:xlink="http://www.w3.org/1999/xlink" viewBox="0 0 712 712" width="712" height="712" style="width: 100%; height: 100%; transform: translate3d(0px, 0px, 0px); content-visibility: visible;" preserveAspectRatio="xMidYMid meet"><defs><clipPath id="__lottie_element_69"><rect width="712" height="712" x="0" y="0"></rect></clipPath></defs><g clip-path="url(#__lottie_element_69)"><g style="display: block;" transform="matrix(1,0,0,1,356,356)" opacity="1"><g opacity="1" transform="matrix(1,0,0,1,0,0)"><path stroke-linecap="round" stroke-linejoin="miter" fill-opacity="0" stroke-miterlimit="10" stroke="rgb(0,0,0)" stroke-opacity="1" stroke-width="60" d=" M-324,250 C-324,250 324,250 324,250"></path></g></g><g style="display: block;" transform="matrix(1,0,0,1,356,356)" opacity="1"><g opacity="1" transform="matrix(1,0,0,1,0,0)"><path stroke-linecap="round" stroke-linejoin="miter" fill-opacity="0" stroke-miterlimit="10" stroke="rgb(0,0,0)" stroke-opacity="1" stroke-width="60" d=" M-324,-250 C-324,-250 324,-250 324,-250"></path></g></g><g style="display: block;" transform="matrix(1,0,0,1,356,356)" opacity="1"><g opacity="1" transform="matrix(1,0,0,1,0,0)"><path stroke-linecap="round" stroke-linejoin="miter" fill-opacity="0" stroke-miterlimit="10" stroke="rgb(0,0,0)" stroke-opacity="1" stroke-width="60" d=" M-324,0 C-324,0 324,0 324,0"></path></g></g></g></svg>