<svg id="Layer_1" data-name="Layer 1" xmlns="http://www.w3.org/2000/svg" viewBox="0 0 25.4 25.4"><defs><style>.cls-1{fill:currentColor;}</style></defs><polygon class="cls-1" points="13.9 6.1 10.4 6.1 10.4 10.5 5.7 10.5 5.7 13.6 10.4 13.6 10.4 18.1 13.9 18.1 13.9 13.6 18.6 13.6 18.6 10.5 13.9 10.5 13.9 6.1"></polygon><path class="cls-1" d="M21.7,19.6a11.71,11.71,0,0,0,2.6-7.4,12.15,12.15,0,1,0-12.2,12,11.71,11.71,0,0,0,7.4-2.6l3.8,3.8,2.1-2.1Zm-9.6,1.7a9.15,9.15,0,1,1,9.1-9.2h0A9,9,0,0,1,12.1,21.3Z"></path></svg>