<svg xmlns="http://www.w3.org/2000/svg" xmlns:xlink="http://www.w3.org/1999/xlink" viewBox="0 0 59 59" width="59" height="59" style="width: 100%; height: 100%; transform: translate3d(0px, 0px, 0px); content-visibility: visible;" preserveAspectRatio="xMidYMid meet"><defs><clipPath id="__lottie_element_59"><rect width="59" height="59" x="0" y="0"></rect></clipPath></defs><g clip-path="url(#__lottie_element_59)"><g style="display: block;" transform="matrix(1,0,0,1,-0.25,-0.25)" opacity="1"><g opacity="1" transform="matrix(1,0,0,1,29.621000289916992,29.621000289916992)"><path fill="rgb(255,255,255)" fill-opacity="1" d=" M0,-29.371000289916992 C16.22100067138672,-29.371000289916992 29.371000289916992,-16.22100067138672 29.371000289916992,0 C29.371000289916992,16.22100067138672 16.22100067138672,29.371000289916992 0,29.371000289916992 C-16.22100067138672,29.371000289916992 -29.371000289916992,16.22100067138672 -29.371000289916992,0 C-29.371000289916992,-16.22100067138672 -16.22100067138672,-29.371000289916992 0,-29.371000289916992z"></path></g></g><g style="display: block;" transform="matrix(1,0,0,1,8.25200080871582,26.6200008392334)" opacity="1"><g opacity="1" transform="matrix(1,0,0,1,21.08099937438965,12.003999710083008)"><path stroke-linecap="butt" stroke-linejoin="miter" fill-opacity="0" stroke-miterlimit="10" stroke="rgb(0,0,0)" stroke-opacity="1" stroke-width="1.1" d=" M-8.548999786376953,-0.9990000128746033 C-8.583999633789062,-0.9990000128746033 -4.869999885559082,-0.9990000128746033 -0.2540000081062317,-0.9990000128746033 C4.361999988555908,-0.9990000128746033 8.130999565124512,-0.9990000128746033 8.166000366210938,-0.9990000128746033 C8.166000366210938,-0.9990000128746033 8.166000366210938,-0.9990000128746033 8.166000366210938,-0.9990000128746033"></path></g></g><g style="display: block;" transform="matrix(1,0,0,1,14.678998947143555,11.625)" opacity="1"><g opacity="1" transform="matrix(1,0,0,1,6.373000144958496,4.65500020980835)"><path stroke-linecap="butt" stroke-linejoin="miter" fill-opacity="0" stroke-miterlimit="10" stroke="rgb(0,0,0)" stroke-opacity="1" stroke-width="1.1" d=" M3.621999979019165,1.8109999895095825 C3.621999979019165,-0.1889999955892563 2,-1.8109999895095825 -0.0010000000474974513,-1.8109999895095825 C-2.000999927520752,-1.8109999895095825 -3.621999979019165,-0.1889999955892563 -3.621999979019165,1.8109999895095825"></path></g><g opacity="1" transform="matrix(1,0,0,1,23.025999069213867,4.607999801635742)"><path stroke-linecap="butt" stroke-linejoin="miter" fill-opacity="0" stroke-miterlimit="10" stroke="rgb(0,0,0)" stroke-opacity="1" stroke-width="1.1" d=" M3.6070001125335693,1.8580000400543213 C3.640000104904175,-0.1420000046491623 2.0450000762939453,-1.7910000085830688 0.04399999976158142,-1.8250000476837158 C-1.9559999704360962,-1.8580000400543213 -3.6059999465942383,-0.2630000114440918 -3.6389999389648438,1.7369999885559082 C-3.640000104904175,1.7769999504089355 -3.640000104904175,1.8179999589920044 -3.6389999389648438,1.8580000400543213"></path></g></g></g></svg>