<svg id="circle" xmlns="http://www.w3.org/2000/svg" viewBox="0 0 58.74 58.74"><defs><style>.cls-1{fill:currentColor;}</style></defs><path id="Path_1459" data-name="Path 1459" class="cls-1" d="M29.37,0A29.37,29.37,0,1,0,58.74,29.37,29.37,29.37,0,0,0,29.37,0ZM28.15,46.51a3.68,3.68,0,1,1,3.67-3.67A3.67,3.67,0,0,1,28.15,46.51ZM38.7,24.79a16.14,16.14,0,0,1-4.32,4.08c-3.42,2.54-3.33,3.1-3.33,5.4H25A8.49,8.49,0,0,1,26,29.42,12.07,12.07,0,0,1,29.37,26c2-1.41,3.9-2.77,3.9-5.15,0-2.22-1.9-3-4.13-3a17.53,17.53,0,0,0-7.76,2.23l-2.47-5c5.28-3,13.61-4.3,18.17-.59A8.13,8.13,0,0,1,38.7,24.79Z"></path></svg>